<svg width="877" height="641" viewBox="0 0 877 641" fill="none" xmlns="http://www.w3.org/2000/svg">
<rect x="0.00708008" y="3.00626" width="874.989" height="637.737" rx="50" transform="rotate(-0.179823 0.00708008 3.00626)" fill="#B794F4" fill-opacity="0.5"/>
<rect x="57.9599" y="149.44" width="753.647" height="444.928" rx="75" transform="rotate(-0.179823 57.9599 149.44)" fill="#B794F4" fill-opacity="0.75"/>
<g filter="url(#filter0_d_1_3)">
<rect x="53.4646" y="44.1956" width="324" height="78" rx="23.5" transform="rotate(-0.179823 53.4646 44.1956)" fill="#B794F4"/>
<path d="M87.6089 97.5887L96.0659 97.5622L96.014 81.0388L112.283 80.9878L112.262 74.0151L95.9921 74.0662L95.9622 64.535L113.989 64.4784L113.968 57.5058L87.4833 57.5889L87.6089 97.5887ZM131.097 98.0382C138.519 98.0149 143.507 94.3859 144.662 88.8159L136.965 88.3322C136.132 90.62 133.987 91.8181 131.214 91.8268C127.054 91.8399 124.409 89.0943 124.395 84.6216L124.394 84.6021L144.824 84.538L144.817 82.2528C144.785 72.0576 138.597 67.0379 130.668 67.0628C121.84 67.0905 116.137 73.378 116.166 82.6357C116.195 92.1474 121.859 98.0672 131.097 98.0382ZM124.378 79.4459C124.543 76.0274 127.132 73.2849 130.824 73.2733C134.437 73.2619 136.945 75.8322 136.976 79.4063L124.378 79.4459ZM158.851 97.9315C163.284 97.9176 166.149 95.975 167.605 93.1775L167.84 93.1767L167.853 97.3369L175.743 97.3121L175.68 77.0778C175.657 69.9294 169.593 66.9406 162.914 66.9616C155.726 66.9842 151.01 70.4365 149.875 75.9088L157.572 76.5097C158.133 74.5157 159.905 73.0453 162.894 73.0359C165.726 73.027 167.351 74.4477 167.359 76.9086L167.359 77.0258C167.365 78.9594 165.315 79.2197 160.102 79.7439C154.166 80.3094 148.841 82.3183 148.862 89.0175C148.88 94.955 153.128 97.9495 158.851 97.9315ZM161.215 92.1819C158.657 92.1899 156.817 91.0043 156.81 88.7191C156.803 86.3754 158.733 85.217 161.661 84.7976C163.476 84.538 166.444 84.099 167.438 83.4319L167.448 86.6154C167.458 89.7599 164.868 92.1704 161.215 92.1819ZM198.061 67.2419L192.417 67.2596L192.394 60.0722L184.074 60.0983L184.096 67.2857L179.995 67.2986L180.014 73.5486L184.116 73.5357L184.165 89.1606C184.144 95.0396 188.157 97.9372 194.192 97.6644C196.34 97.5795 197.862 97.145 198.701 96.869L197.373 90.6817C196.963 90.7611 196.085 90.9592 195.303 90.9616C193.643 90.9668 192.489 90.3455 192.482 88.0408L192.436 73.5096L198.081 73.4919L198.061 67.2419ZM222.773 84.391C222.805 88.4144 220.058 90.5324 217.07 90.5417C213.925 90.5516 211.887 88.351 211.857 84.8159L211.801 67.1988L203.481 67.2249L203.541 86.3264C203.582 93.338 207.697 97.6024 213.733 97.5835C218.244 97.5693 221.479 95.235 222.816 91.7151L223.128 91.7141L223.145 97.1633L231.134 97.1383L231.039 67.1384L222.719 67.1645L222.773 84.391ZM237.789 97.1174L246.109 97.0913L246.056 80.1187C246.044 76.4273 248.732 73.8798 252.403 73.8683C253.556 73.8647 255.138 74.055 255.92 74.3064L255.897 66.9237C255.155 66.7502 254.119 66.6363 253.279 66.6389C249.92 66.6495 247.172 68.6112 246.09 72.3256L245.777 72.3266L245.761 67.0922L237.695 67.1175L237.789 97.1174ZM272.571 97.5942C279.993 97.5709 284.981 93.9419 286.136 88.3718L278.439 87.8882C277.606 90.176 275.461 91.3741 272.688 91.3828C268.528 91.3959 265.882 88.6503 265.868 84.1776L265.868 84.1581L286.298 84.094L286.291 81.8088C286.259 71.6136 280.071 66.5939 272.141 66.6188C263.313 66.6465 257.61 72.934 257.64 82.1917C257.669 91.7034 263.333 97.6231 272.571 97.5942ZM265.852 79.0019C266.017 75.5834 268.606 72.8408 272.298 72.8293C275.911 72.8179 278.419 75.3882 278.45 78.9623L265.852 79.0019ZM316.662 75.4244C315.902 69.8994 311.438 66.4955 303.86 66.5192C296.184 66.5433 291.137 70.1139 291.175 75.895C291.169 80.3873 294.01 83.2885 299.873 84.442L305.072 85.4608C307.691 85.98 308.885 86.9333 308.929 88.437C308.895 90.2145 306.966 91.4901 304.056 91.4992C301.087 91.5085 299.11 90.2452 298.595 87.8054L290.413 88.2608C291.212 94.0005 296.106 97.5203 304.055 97.4953C311.828 97.4709 317.382 93.4886 317.383 87.5706C317.35 83.2348 314.51 80.646 308.686 79.4729L303.253 78.3962C300.458 77.7995 299.42 76.8457 299.435 75.4004C299.41 73.6035 301.437 72.4253 304.015 72.4172C306.906 72.4081 308.63 73.9848 309.046 75.9171L316.662 75.4244Z" fill="black"/>
<rect x="53.4646" y="44.1956" width="324" height="78" rx="23.5" transform="rotate(-0.179823 53.4646 44.1956)" stroke="black" stroke-width="3"/>
</g>
<path d="M99.1591 223.933C104.682 223.916 109.145 219.424 109.128 213.902C109.11 208.379 104.619 203.916 99.0963 203.933C93.5736 203.95 89.1104 208.442 89.1278 213.964C89.1451 219.487 93.6364 223.95 99.1591 223.933ZM151.088 185.77L151.234 232.315L160.779 232.285L160.684 201.876L161.07 201.875L173.21 232.019L179.71 231.998L191.661 201.893L192.048 201.891L192.143 232.187L201.688 232.157L201.542 185.611L189.406 185.65L176.686 216.962L176.14 216.964L163.224 185.732L151.088 185.77ZM226.029 232.762C236.62 232.729 243.188 225.458 243.154 214.708C243.12 203.89 236.507 196.684 225.916 196.717C215.325 196.75 208.757 203.998 208.791 214.816C208.825 225.566 215.438 232.795 226.029 232.762ZM226.051 225.262C221.165 225.277 218.651 220.808 218.632 214.717C218.612 208.626 221.098 204.118 225.985 204.103C230.78 204.088 233.294 208.58 233.313 214.671C233.332 220.762 230.846 225.247 226.051 225.262ZM259.763 211.792C259.771 207.292 262.445 204.648 266.354 204.635C270.24 204.623 272.589 207.161 272.58 211.434L272.644 231.934L282.326 231.904L282.256 209.676C282.231 201.54 277.442 196.555 270.169 196.578C264.988 196.594 261.246 199.151 259.69 203.224L259.281 203.226L259.262 197.067L250.035 197.096L250.144 232.005L259.826 231.974L259.763 211.792ZM306.508 232.51C315.144 232.482 320.949 228.26 322.292 221.778L313.336 221.215C312.367 223.877 309.871 225.272 306.644 225.282C301.803 225.297 298.725 222.102 298.709 216.898L298.709 216.875L322.481 216.8L322.473 214.141C322.436 202.278 315.235 196.436 306.008 196.465C295.735 196.498 289.099 203.814 289.133 214.587C289.168 225.655 295.758 232.543 306.508 232.51ZM298.69 210.875C298.882 206.897 301.894 203.706 306.19 203.692C310.394 203.679 313.313 206.67 313.349 210.829L298.69 210.875ZM347.945 196.788L341.377 196.809L341.35 188.445L331.669 188.476L331.695 196.839L326.922 196.854L326.945 204.127L331.718 204.112L331.775 222.294C331.751 229.135 336.42 232.507 343.442 232.189C345.942 232.09 347.713 231.585 348.689 231.263L347.144 224.064C346.667 224.156 345.645 224.387 344.736 224.389C342.804 224.396 341.461 223.673 341.453 220.991L341.399 204.082L347.968 204.061L347.945 196.788ZM399.239 184.991L399.331 214.377C399.348 219.695 395.633 223.548 389.906 223.566C384.201 223.584 380.439 219.755 380.422 214.437L380.33 185.05L370.489 185.081L370.584 215.308C370.616 225.49 378.319 232.261 389.933 232.225C401.501 232.189 409.207 225.369 409.175 215.187L409.08 184.96L399.239 184.991ZM427.657 184.902L417.817 184.933L417.963 231.478L427.804 231.447L427.657 184.902ZM99.473 323.932C104.996 323.915 109.459 319.424 109.442 313.901C109.424 308.378 104.933 303.915 99.4102 303.933C93.8875 303.95 89.4243 308.441 89.4416 313.964C89.459 319.487 93.9503 323.95 99.473 323.932ZM151.548 332.315L161.389 332.284L161.341 317.193L169.614 317.167C180.318 317.133 186.526 310.727 186.497 301.432C186.467 292.182 180.333 285.679 169.765 285.712L151.402 285.769L151.548 332.315ZM161.317 309.306L161.268 293.784L167.904 293.763C173.586 293.745 176.346 296.827 176.36 301.464C176.375 306.077 173.635 309.268 167.998 309.286L161.317 309.306ZM193.443 332.183L203.125 332.153L203.016 297.244L193.334 297.274L193.443 332.183ZM198.183 292.759C201.07 292.75 203.426 290.538 203.418 287.833C203.409 285.152 201.039 282.954 198.152 282.963C195.289 282.972 192.932 285.184 192.941 287.866C192.949 290.571 195.32 292.768 198.183 292.759ZM219.502 297.192L209.502 297.223L219.557 314.646L209.248 332.133L219.248 332.102L225.983 320.013L232.907 332.059L242.793 332.028L232.352 314.606L242.411 297.12L232.479 297.151L225.949 309.376L219.502 297.192ZM263.509 332.645C272.145 332.618 277.95 328.395 279.294 321.914L270.337 321.351C269.368 324.013 266.873 325.407 263.646 325.417C258.805 325.432 255.726 322.238 255.71 317.033L255.71 317.01L279.483 316.936L279.474 314.277C279.437 302.413 272.237 296.572 263.01 296.601C252.737 296.633 246.101 303.949 246.135 314.722C246.169 325.79 252.759 332.679 263.509 332.645ZM255.691 311.01C255.883 307.032 258.896 303.841 263.191 303.828C267.396 303.814 270.314 306.805 270.35 310.964L255.691 311.01ZM296.024 285.315L286.342 285.346L286.488 331.891L296.17 331.861L296.024 285.315ZM348.985 306.74C348.101 300.311 342.907 296.35 334.088 296.378C325.157 296.406 319.283 300.561 319.327 307.288C319.321 312.515 322.627 315.891 329.449 317.233L335.499 318.419C338.546 319.023 339.936 320.132 339.987 321.882C339.948 323.95 337.702 325.435 334.316 325.445C330.861 325.456 328.561 323.986 327.962 321.147L318.44 321.677C319.371 328.356 325.065 332.452 334.315 332.423C343.361 332.394 349.823 327.76 349.824 320.874C349.786 315.829 346.481 312.816 339.704 311.451L333.382 310.198C330.13 309.504 328.922 308.394 328.939 306.712C328.91 304.621 331.269 303.25 334.269 303.241C337.633 303.23 339.638 305.065 340.123 307.313L348.985 306.74ZM356.636 344.762L366.318 344.731L366.259 326.05L366.555 326.049C367.905 328.954 370.847 332.194 376.483 332.177C384.438 332.152 390.622 325.837 390.586 314.155C390.548 302.155 384.052 296.221 376.393 296.245C370.552 296.263 367.768 299.749 366.481 302.594L366.049 302.596L366.031 296.732L356.485 296.762L356.636 344.762ZM366.017 314.187C365.998 307.96 368.622 303.974 373.326 303.959C378.122 303.944 380.68 308.095 380.699 314.141C380.718 320.232 378.141 324.467 373.391 324.482C368.732 324.496 366.037 320.414 366.017 314.187ZM413.51 332.174C424.1 332.141 430.669 324.87 430.635 314.12C430.601 303.302 423.987 296.096 413.396 296.129C402.806 296.162 396.237 303.41 396.271 314.228C396.305 324.978 402.919 332.207 413.51 332.174ZM413.531 324.674C408.645 324.689 406.131 320.22 406.112 314.129C406.093 308.038 408.579 303.53 413.465 303.515C418.261 303.5 420.775 307.992 420.794 314.083C420.813 320.174 418.327 324.659 413.531 324.674ZM453.399 332.049C463.99 332.016 470.558 324.745 470.525 313.995C470.491 303.177 463.877 295.97 453.286 296.004C442.695 296.037 436.127 303.285 436.161 314.103C436.195 324.853 442.809 332.082 453.399 332.049ZM453.421 324.549C448.535 324.564 446.021 320.095 446.002 314.004C445.983 307.913 448.469 303.405 453.355 303.39C458.15 303.375 460.664 307.867 460.684 313.958C460.703 320.049 458.217 324.534 453.421 324.549ZM496.177 296.324L489.246 296.345L489.238 294.005C489.231 291.641 490.181 290.252 493.022 290.243C494.181 290.239 495.364 290.485 496.137 290.733L497.819 283.455C496.613 283.095 493.952 282.512 490.975 282.522C484.407 282.542 479.532 286.262 479.556 293.853L479.564 296.376L474.632 296.391L474.655 303.664L479.587 303.648L479.673 331.285L489.355 331.254L489.268 303.618L496.2 303.596L496.177 296.324ZM502.842 331.212L512.524 331.182L512.414 296.273L502.732 296.303L502.842 331.212ZM507.582 291.788C510.468 291.779 512.825 289.567 512.816 286.862C512.808 284.18 510.437 281.983 507.551 281.992C504.687 282.001 502.331 284.213 502.339 286.895C502.348 289.6 504.718 291.797 507.582 291.788ZM530.538 310.943C530.546 306.443 533.22 303.798 537.129 303.786C541.015 303.774 543.364 306.312 543.355 310.585L543.419 331.085L553.101 331.054L553.031 308.827C553.006 300.691 548.217 295.706 540.944 295.729C535.763 295.745 532.021 298.302 530.465 302.375L530.056 302.376L530.037 296.217L520.81 296.246L520.919 331.155L530.601 331.125L530.538 310.943ZM577.142 344.797C587.119 344.766 594.196 340.198 594.168 331.266L594.057 296.016L584.444 296.047L584.462 301.91L584.098 301.911C582.794 299.075 579.942 295.606 574.101 295.625C566.442 295.649 559.984 301.623 560.021 313.51C560.057 325.123 566.37 330.513 574.233 330.488C579.802 330.47 582.906 327.665 584.17 324.775L584.579 324.774L584.599 331.16C584.614 335.955 581.552 337.829 577.347 337.842C573.075 337.855 570.91 335.998 570.108 333.887L561.157 335.12C562.333 340.616 567.733 344.827 577.142 344.797ZM577.279 323.206C572.529 323.221 569.926 319.456 569.907 313.433C569.889 307.501 572.421 303.334 577.216 303.319C581.921 303.305 584.57 307.274 584.589 313.387C584.608 319.546 581.938 323.191 577.279 323.206ZM99.7868 423.932C105.31 423.915 109.773 419.423 109.755 413.901C109.738 408.378 105.247 403.915 99.724 403.932C94.2013 403.949 89.7381 408.441 89.7555 413.963C89.7728 419.486 94.2641 423.949 99.7868 423.932ZM177.007 399.076L186.439 399.046C186.277 390.751 179.441 385.045 169.077 385.078C158.873 385.11 151.413 390.77 151.485 399.224C151.484 406.088 156.337 410.004 164.207 411.866L169.279 413.123C174.351 414.334 177.174 415.78 177.206 418.916C177.194 422.325 173.974 424.654 168.974 424.669C163.861 424.685 160.171 422.333 159.838 417.675L150.316 417.705C150.597 427.773 157.818 432.954 169.114 432.919C180.477 432.883 187.142 427.431 187.138 418.908C187.091 411.158 181.237 407.063 173.141 405.27L168.956 404.283C164.907 403.364 161.516 401.874 161.574 398.533C161.564 395.533 164.217 393.321 169.035 393.305C173.739 393.291 176.632 395.418 177.007 399.076ZM194.257 432.181L203.939 432.151L203.873 411.196C203.861 407.333 206.307 404.757 209.535 404.747C212.717 404.737 214.86 406.912 214.871 410.343L214.939 432.116L224.325 432.087L224.258 410.769C224.247 407.155 226.307 404.694 229.83 404.683C232.921 404.673 235.245 406.598 235.257 410.484L235.325 432.052L244.984 432.022L244.91 408.545C244.887 400.976 240.373 396.672 233.873 396.693C228.76 396.709 224.791 399.335 223.371 403.339L223.008 403.341C221.881 399.299 218.305 396.742 213.51 396.757C208.805 396.772 205.245 399.283 203.803 403.401L203.394 403.402L203.375 397.243L194.148 397.272L194.257 432.181ZM263.228 432.624C268.387 432.607 271.721 430.347 273.416 427.092L273.688 427.091L273.704 431.932L282.885 431.903L282.811 408.357C282.785 400.039 275.729 396.561 267.956 396.586C259.593 396.612 254.105 400.629 252.784 406.997L261.741 407.696C262.393 405.376 264.456 403.665 267.933 403.654C271.228 403.644 273.12 405.297 273.129 408.161L273.129 408.297C273.136 410.547 270.751 410.85 264.685 411.46C257.778 412.118 251.58 414.456 251.605 422.251C251.627 429.16 256.569 432.645 263.228 432.624ZM265.98 425.933C263.003 425.942 260.862 424.563 260.854 421.904C260.845 419.176 263.091 417.829 266.499 417.341C268.611 417.038 272.064 416.528 273.221 415.751L273.233 419.456C273.244 423.115 270.23 425.92 265.98 425.933ZM291.037 431.877L300.718 431.847L300.656 412.097C300.643 407.802 303.77 404.837 308.043 404.824C309.384 404.82 311.225 405.041 312.135 405.334L312.108 396.743C311.244 396.541 310.039 396.408 309.062 396.411C305.153 396.424 301.955 398.706 300.696 403.029L300.333 403.03L300.313 396.939L290.927 396.968L291.037 431.877ZM338.073 396.82L331.504 396.841L331.478 388.477L321.796 388.508L321.823 396.871L317.05 396.886L317.073 404.159L321.845 404.144L321.903 422.326C321.879 429.167 326.548 432.539 333.57 432.221C336.07 432.122 337.841 431.617 338.817 431.295L337.272 424.096C336.795 424.188 335.773 424.419 334.864 424.421C332.932 424.428 331.589 423.704 331.58 421.023L331.527 404.114L338.095 404.093L338.073 396.82ZM370.457 398.469L379.888 398.439C379.726 390.144 372.89 384.438 362.526 384.471C352.322 384.503 344.862 390.163 344.934 398.617C344.933 405.481 349.786 409.397 357.656 411.259L362.728 412.516C367.8 413.727 370.623 415.173 370.655 418.309C370.643 421.718 367.423 424.047 362.423 424.062C357.31 424.078 353.62 421.726 353.288 417.068L343.765 417.098C344.046 427.165 351.267 432.347 362.563 432.312C373.926 432.276 380.591 426.823 380.587 418.301C380.54 410.551 374.686 406.455 366.59 404.663L362.405 403.676C358.356 402.757 354.965 401.267 355.023 397.926C355.014 394.926 357.666 392.713 362.484 392.698C367.188 392.683 370.081 394.811 370.457 398.469ZM387.747 444.665L397.429 444.634L397.37 425.953L397.666 425.952C399.016 428.857 401.958 432.097 407.594 432.08C415.549 432.055 421.733 425.74 421.697 414.058C421.659 402.058 415.163 396.124 407.504 396.148C401.663 396.166 398.879 399.652 397.592 402.497L397.16 402.499L397.142 396.635L387.597 396.665L387.747 444.665ZM397.129 414.09C397.109 407.862 399.733 403.877 404.437 403.862C409.233 403.847 411.791 407.998 411.81 414.044C411.829 420.134 409.252 424.37 404.502 424.385C399.843 424.399 397.148 420.317 397.129 414.09ZM438.803 432.073C443.962 432.056 447.295 429.796 448.99 426.541L449.263 426.54L449.278 431.381L458.459 431.352L458.386 407.806C458.359 399.488 451.303 396.01 443.53 396.035C435.167 396.061 429.679 400.078 428.358 406.446L437.315 407.145C437.967 404.825 440.03 403.114 443.507 403.103C446.803 403.093 448.694 404.746 448.703 407.61L448.704 407.746C448.711 409.996 446.325 410.299 440.259 410.909C433.352 411.567 427.155 413.904 427.179 421.7C427.201 428.609 432.143 432.093 438.803 432.073ZM441.554 425.382C438.577 425.391 436.436 424.012 436.428 421.353C436.419 418.625 438.665 417.277 442.073 416.789C444.185 416.487 447.638 415.977 448.795 415.2L448.807 418.905C448.818 422.564 445.804 425.369 441.554 425.382ZM482.386 431.959C491.681 431.929 497.505 426.456 497.934 418.432L488.798 418.461C488.241 422.19 485.793 424.289 482.475 424.299C477.952 424.313 475.009 420.527 474.988 413.845C474.967 407.254 477.91 403.472 482.41 403.458C485.955 403.447 488.235 405.781 488.769 409.257L497.905 409.228C497.471 401.161 491.341 395.885 482.227 395.913C471.636 395.947 465.114 403.308 465.147 414.013C465.181 424.626 471.636 431.992 482.386 431.959ZM520.724 431.838C529.361 431.811 535.166 427.588 536.509 421.107L527.552 420.544C526.584 423.206 524.088 424.6 520.861 424.61C516.02 424.626 512.942 421.431 512.925 416.226L512.925 416.203L536.698 416.129L536.689 413.47C536.652 401.606 529.452 395.765 520.225 395.794C509.952 395.826 503.316 403.143 503.35 413.915C503.384 424.983 509.974 431.872 520.724 431.838ZM512.906 410.204C513.098 406.226 516.111 403.034 520.407 403.021C524.611 403.008 527.53 405.999 527.565 410.158L512.906 410.204ZM100.101 523.931C105.623 523.914 110.087 519.423 110.069 513.9C110.052 508.377 105.561 503.914 100.038 503.932C94.5152 503.949 90.052 508.44 90.0693 513.963C90.0867 519.486 94.578 523.949 100.101 523.931ZM152.029 485.768L152.176 532.314L161.721 532.284L161.625 501.875L162.012 501.873L174.152 532.017L180.652 531.997L192.603 501.891L192.989 501.89L193.084 532.185L202.63 532.155L202.484 485.61L190.347 485.648L177.627 516.961L177.082 516.963L164.166 485.73L152.029 485.768ZM221.152 532.756C226.312 532.74 229.645 530.479 231.34 527.224L231.612 527.223L231.628 532.064L240.809 532.035L240.735 508.49C240.709 500.172 233.653 496.694 225.88 496.718C217.517 496.745 212.029 500.762 210.708 507.13L219.665 507.829C220.317 505.509 222.38 503.798 225.857 503.787C229.152 503.776 231.044 505.43 231.053 508.293L231.053 508.43C231.061 510.679 228.675 510.982 222.609 511.592C215.702 512.25 209.504 514.588 209.529 522.383C209.551 529.293 214.493 532.777 221.152 532.756ZM223.904 526.066C220.927 526.075 218.786 524.695 218.778 522.036C218.769 519.309 221.015 517.961 224.423 517.473C226.535 517.171 229.988 516.66 231.145 515.884L231.157 519.588C231.168 523.247 228.154 526.052 223.904 526.066ZM258.579 511.798C258.588 507.298 261.261 504.653 265.17 504.641C269.057 504.628 271.406 507.166 271.396 511.439L271.461 531.939L281.142 531.909L281.073 509.682C281.047 501.545 276.259 496.56 268.986 496.583C263.804 496.599 260.062 499.157 258.507 503.23L258.098 503.231L258.078 497.072L248.851 497.101L248.961 532.01L258.642 531.979L258.579 511.798ZM294.181 544.959C301.386 544.936 305.192 541.242 307.152 535.6L320.599 496.921L310.349 496.908L303.134 522.567L302.77 522.568L295.463 496.955L285.281 496.987L297.916 532.856L297.353 534.335C296.09 537.612 293.659 537.779 290.246 536.744L288.087 543.978C289.476 544.565 291.727 544.967 294.181 544.959ZM341.755 531.719L351.437 531.688L351.371 510.734C351.359 506.87 353.806 504.294 357.033 504.284C360.215 504.274 362.358 506.449 362.369 509.881L362.437 531.654L371.823 531.624L371.756 510.306C371.745 506.692 373.806 504.231 377.328 504.22C380.419 504.211 382.743 506.135 382.756 510.022L382.823 531.59L392.482 531.559L392.409 508.082C392.385 500.514 387.871 496.21 381.371 496.23C376.258 496.246 372.289 498.873 370.869 502.877L370.506 502.878C369.379 498.836 365.803 496.279 361.008 496.294C356.303 496.309 352.743 498.82 351.301 502.938L350.892 502.94L350.873 496.781L341.646 496.81L341.755 531.719ZM416.545 532.166C427.136 532.132 433.704 524.862 433.67 514.112C433.636 503.294 427.022 496.087 416.432 496.12C405.841 496.154 399.273 503.402 399.307 514.22C399.34 524.97 405.954 532.199 416.545 532.166ZM416.567 524.666C411.68 524.681 409.166 520.211 409.147 514.121C409.128 508.03 411.614 503.522 416.5 503.507C421.296 503.491 423.81 507.984 423.829 514.075C423.848 520.165 421.362 524.65 416.567 524.666ZM440.66 531.408L450.342 531.378L450.28 511.628C450.266 507.332 453.393 504.368 457.666 504.355C459.007 504.35 460.848 504.572 461.758 504.865L461.731 496.274C460.867 496.072 459.662 495.939 458.685 495.942C454.776 495.955 451.578 498.237 450.319 502.559L449.956 502.561L449.937 496.47L440.55 496.499L440.66 531.408ZM481.773 531.961C490.41 531.934 496.215 527.711 497.558 521.23L488.602 520.667C487.633 523.329 485.137 524.723 481.91 524.733C477.069 524.748 473.991 521.553 473.974 516.349L473.974 516.326L497.747 516.252L497.738 513.593C497.701 501.729 490.501 495.888 481.274 495.917C471.001 495.949 464.365 503.265 464.399 514.038C464.434 525.106 471.023 531.995 481.773 531.961ZM473.955 510.326C474.147 506.348 477.16 503.157 481.456 503.144C485.66 503.13 488.579 506.121 488.614 510.28L473.955 510.326Z" fill="black"/>
<defs>
<filter id="filter0_d_1_3" x="47.9599" y="41.674" width="331.253" height="86.0259" filterUnits="userSpaceOnUse" color-interpolation-filters="sRGB">
<feFlood flood-opacity="0" result="BackgroundImageFix"/>
<feColorMatrix in="SourceAlpha" type="matrix" values="0 0 0 0 0 0 0 0 0 0 0 0 0 0 0 0 0 0 127 0" result="hardAlpha"/>
<feOffset dx="-4" dy="4"/>
<feColorMatrix type="matrix" values="0 0 0 0 0 0 0 0 0 0 0 0 0 0 0 0 0 0 1 0"/>
<feBlend mode="normal" in2="BackgroundImageFix" result="effect1_dropShadow_1_3"/>
<feBlend mode="normal" in="SourceGraphic" in2="effect1_dropShadow_1_3" result="shape"/>
</filter>
</defs>
</svg>
