<svg width="1008" height="1003" viewBox="0 0 1008 1003" fill="none" xmlns="http://www.w3.org/2000/svg">
<rect width="1008" height="1003" fill="#E5E5E5"/>
<path d="M450.596 17.3597C482.665 -5.07445 525.335 -5.07443 557.404 17.3597L568.967 25.4484C589.652 39.9194 615.325 45.3763 640.108 40.57L653.961 37.8835C692.382 30.4324 731.364 47.7882 751.535 81.3263L758.808 93.4186C771.819 115.052 793.053 130.479 817.648 136.169L831.396 139.349C869.526 148.169 898.079 179.88 902.865 218.723L904.591 232.728C907.678 257.783 920.801 280.513 940.956 295.714L952.222 304.211C983.468 327.778 996.654 368.361 985.227 405.792L981.107 419.288C973.737 443.433 976.48 469.536 988.71 491.621L995.546 503.965C1014.5 538.203 1010.04 580.64 984.381 610.188L975.128 620.842C958.574 639.902 950.464 664.863 952.653 690.013L953.877 704.071C957.271 743.06 935.936 780.014 900.473 796.569L887.687 802.539C864.812 813.217 847.249 832.722 839.02 856.588L834.42 869.928C821.663 906.927 787.141 932.009 748.011 932.708L733.902 932.961C708.661 933.412 684.684 944.088 667.459 962.543L657.831 972.859C631.128 1001.47 589.389 1010.34 553.357 995.066L540.365 989.558C517.123 979.704 490.877 979.704 467.635 989.558L454.643 995.066C418.611 1010.34 376.872 1001.47 350.169 972.859L340.541 962.543C323.316 944.088 299.339 933.412 274.098 932.961L259.989 932.708C220.859 932.009 186.337 906.927 173.58 869.928L168.98 856.588C160.751 832.722 143.188 813.217 120.313 802.539L107.527 796.569C72.0642 780.014 50.7288 743.06 54.123 704.071L55.3468 690.013C57.5362 664.863 49.4257 639.902 32.8718 620.842L23.6188 610.188C-2.04459 580.64 -6.5049 538.203 12.4543 503.965L19.2901 491.621C31.5195 469.536 34.263 443.433 26.8925 419.288L22.7727 405.792C11.3463 368.361 24.5323 327.778 55.7782 304.211L67.0441 295.714C87.199 280.513 100.322 257.783 103.409 232.728L105.135 218.723C109.921 179.88 138.474 148.169 176.604 139.349L190.352 136.169C214.947 130.479 236.181 115.052 249.192 93.4186L256.465 81.3263C276.636 47.7882 315.618 30.4324 354.039 37.8835L367.892 40.57C392.675 45.3763 418.348 39.9194 439.033 25.4484L450.596 17.3597Z" fill="#F4B6B0"/>
</svg>
