<svg width="431" height="886" viewBox="0 0 431 886" fill="none" xmlns="http://www.w3.org/2000/svg">
<rect width="431" height="886" fill="#E5E5E5"/>
<rect x="5" y="5" width="421" height="876" rx="21" fill="#FCEDEA"/>
<g clip-path="url(#clip0_102_450)">
<rect x="26" y="300" width="376" height="144" rx="32" fill="#F5DFD9"/>
<circle cx="54" cy="328" r="12" fill="#156DAC"/>
<path d="M63 323.542C62.4116 323.803 61.7795 323.979 61.115 324.058C61.8007 323.648 62.3136 323.003 62.5582 322.243C61.914 322.625 61.209 322.894 60.4738 323.038C59.9794 322.511 59.3245 322.161 58.6109 322.044C57.8973 321.926 57.1648 322.047 56.5272 322.389C55.8895 322.73 55.3825 323.272 55.0847 323.931C54.7869 324.589 54.715 325.328 54.8802 326.032C53.575 325.966 52.2981 325.627 51.1324 325.036C49.9668 324.446 48.9384 323.617 48.1141 322.603C47.8322 323.089 47.6701 323.653 47.6701 324.253C47.6698 324.793 47.8029 325.325 48.0576 325.801C48.3123 326.278 48.6807 326.684 49.1302 326.984C48.6089 326.967 48.0992 326.827 47.6434 326.573V326.616C47.6433 327.373 47.9055 328.107 48.3855 328.694C48.8655 329.28 49.5337 329.683 50.2767 329.833C49.7931 329.963 49.2862 329.983 48.7941 329.889C49.0037 330.541 49.412 331.111 49.9619 331.519C50.5118 331.928 51.1758 332.154 51.8607 332.167C50.6979 333.079 49.2619 333.574 47.7836 333.572C47.5217 333.572 47.2601 333.556 47 333.526C48.5006 334.49 50.2473 335.002 52.0313 335C58.0702 335 61.3715 330.001 61.3715 325.665C61.3715 325.525 61.368 325.382 61.3617 325.241C62.0038 324.777 62.5581 324.203 62.9986 323.544L63 323.542V323.542Z" fill="white"/>
<circle cx="367" cy="328" r="12" fill="#FCEDEA"/>
<path d="M372.338 332C372.123 332 371.918 331.908 371.775 331.748L367 326.4L362.225 331.748C362.082 331.908 361.877 332 361.662 332V332C361.014 332 360.668 331.237 361.095 330.749L367 324L372.905 330.749C373.332 331.237 372.986 332 372.338 332V332Z" fill="black"/>
<path d="M89.981 323.862H87.147V332H86.068V323.862H83.234V322.9H89.981V323.862ZM93.7609 325.5L95.2559 329.296L95.5809 330.544H95.6069L95.8539 329.27L97.0109 325.5H97.9989L95.8149 332.143H95.3079L93.6049 327.853L93.3579 326.787H93.3189L93.0589 327.866L91.4209 332.143H90.9139L88.6519 325.5H89.7829L91.0699 329.283L91.2909 330.544H91.3039L91.6159 329.257L93.0069 325.5H93.7609ZM99.3294 325.5H100.369V332H99.3294V325.5ZM99.1084 323.524C99.1084 323.325 99.1734 323.156 99.3034 323.017C99.4421 322.87 99.6154 322.796 99.8234 322.796C100.031 322.796 100.209 322.87 100.356 323.017C100.504 323.156 100.577 323.325 100.577 323.524C100.577 323.723 100.504 323.888 100.356 324.018C100.209 324.148 100.031 324.213 99.8234 324.213C99.6154 324.213 99.4421 324.148 99.3034 324.018C99.1734 323.888 99.1084 323.723 99.1084 323.524ZM101.729 325.5H102.743V324.213L103.783 323.914V325.5H105.551V326.41H103.783V330.011C103.783 330.462 103.839 330.782 103.952 330.973C104.065 331.155 104.255 331.246 104.524 331.246C104.749 331.246 104.94 331.224 105.096 331.181C105.252 331.129 105.425 331.064 105.616 330.986L105.85 331.779C105.616 331.892 105.36 331.983 105.083 332.052C104.806 332.121 104.507 332.156 104.186 332.156C103.657 332.156 103.285 332.009 103.068 331.714C102.851 331.411 102.743 330.908 102.743 330.206V326.41H101.729V325.5ZM106.134 325.5H107.148V324.213L108.188 323.914V325.5H109.956V326.41H108.188V330.011C108.188 330.462 108.245 330.782 108.357 330.973C108.47 331.155 108.661 331.246 108.929 331.246C109.155 331.246 109.345 331.224 109.501 331.181C109.657 331.129 109.831 331.064 110.021 330.986L110.255 331.779C110.021 331.892 109.766 331.983 109.488 332.052C109.211 332.121 108.912 332.156 108.591 332.156C108.063 332.156 107.69 332.009 107.473 331.714C107.257 331.411 107.148 330.908 107.148 330.206V326.41H106.134V325.5ZM116.003 331.48C115.743 331.688 115.414 331.853 115.015 331.974C114.625 332.095 114.209 332.156 113.767 332.156C113.273 332.156 112.844 332.078 112.48 331.922C112.116 331.757 111.817 331.528 111.583 331.233C111.349 330.93 111.176 330.57 111.063 330.154C110.95 329.738 110.894 329.27 110.894 328.75C110.894 327.641 111.141 326.796 111.635 326.215C112.129 325.634 112.835 325.344 113.754 325.344C114.049 325.344 114.343 325.379 114.638 325.448C114.933 325.509 115.197 325.63 115.431 325.812C115.665 325.994 115.856 326.254 116.003 326.592C116.15 326.921 116.224 327.359 116.224 327.905C116.224 328.191 116.198 328.507 116.146 328.854H111.973C111.973 329.235 112.012 329.573 112.09 329.868C112.168 330.163 112.289 330.414 112.454 330.622C112.619 330.821 112.831 330.977 113.091 331.09C113.36 331.194 113.685 331.246 114.066 331.246C114.361 331.246 114.655 331.194 114.95 331.09C115.245 330.986 115.466 330.865 115.613 330.726L116.003 331.48ZM113.767 326.254C113.256 326.254 112.844 326.388 112.532 326.657C112.229 326.926 112.047 327.385 111.986 328.035H115.21C115.21 327.376 115.084 326.917 114.833 326.657C114.582 326.388 114.226 326.254 113.767 326.254ZM120.927 326.501C120.667 326.414 120.42 326.371 120.186 326.371C119.814 326.371 119.519 326.475 119.302 326.683C119.086 326.882 118.951 327.138 118.899 327.45V332H117.859V325.5H118.587L118.782 326.293H118.834C118.999 325.998 119.194 325.773 119.419 325.617C119.653 325.452 119.948 325.37 120.303 325.37C120.555 325.37 120.836 325.413 121.148 325.5L120.927 326.501ZM125.873 327.957C125.873 327.688 125.921 327.446 126.016 327.229C126.112 327.004 126.237 326.813 126.393 326.657C126.558 326.492 126.749 326.367 126.965 326.28C127.191 326.193 127.429 326.15 127.68 326.15C127.932 326.15 128.166 326.193 128.382 326.28C128.608 326.358 128.798 326.475 128.954 326.631C129.119 326.787 129.249 326.978 129.344 327.203C129.44 327.42 129.487 327.671 129.487 327.957C129.487 328.243 129.44 328.499 129.344 328.724C129.249 328.941 129.119 329.127 128.954 329.283C128.798 329.439 128.608 329.56 128.382 329.647C128.166 329.725 127.932 329.764 127.68 329.764C127.429 329.764 127.191 329.725 126.965 329.647C126.749 329.56 126.558 329.439 126.393 329.283C126.237 329.127 126.112 328.941 126.016 328.724C125.921 328.499 125.873 328.243 125.873 327.957ZM136.829 326.046L136.127 324.733H136.075L136.205 326.046V332H135.191V322.757H135.763L140.118 328.828L140.794 330.076H140.859L140.716 328.828V322.9H141.73V332.143H141.158L136.829 326.046ZM143.47 328.75C143.47 327.649 143.713 326.809 144.198 326.228C144.692 325.639 145.398 325.344 146.317 325.344C146.802 325.344 147.223 325.426 147.578 325.591C147.942 325.747 148.241 325.977 148.475 326.28C148.709 326.575 148.882 326.934 148.995 327.359C149.108 327.775 149.164 328.239 149.164 328.75C149.164 329.851 148.917 330.696 148.423 331.285C147.938 331.866 147.236 332.156 146.317 332.156C145.832 332.156 145.407 332.078 145.043 331.922C144.688 331.757 144.393 331.528 144.159 331.233C143.925 330.93 143.752 330.57 143.639 330.154C143.526 329.729 143.47 329.261 143.47 328.75ZM144.549 328.75C144.549 329.079 144.579 329.396 144.64 329.699C144.709 330.002 144.813 330.267 144.952 330.492C145.091 330.717 145.273 330.899 145.498 331.038C145.723 331.177 145.996 331.246 146.317 331.246C147.496 331.255 148.085 330.423 148.085 328.75C148.085 328.412 148.05 328.091 147.981 327.788C147.92 327.485 147.821 327.22 147.682 326.995C147.543 326.77 147.361 326.592 147.136 326.462C146.911 326.323 146.638 326.254 146.317 326.254C145.138 326.245 144.549 327.077 144.549 328.75ZM154.876 325.5L156.371 329.296L156.696 330.544H156.722L156.969 329.27L158.126 325.5H159.114L156.93 332.143H156.423L154.72 327.853L154.473 326.787H154.434L154.174 327.866L152.536 332.143H152.029L149.767 325.5H150.898L152.185 329.283L152.406 330.544H152.419L152.731 329.257L154.122 325.5H154.876Z" fill="#818181"/>
<path d="M83.84 387.298C84.232 387.223 84.6613 387.167 85.128 387.13C85.604 387.083 86.0753 387.06 86.542 387.06C87.0273 387.06 87.5127 387.102 87.998 387.186C88.4927 387.261 88.936 387.419 89.328 387.662C89.72 387.895 90.0373 388.227 90.28 388.656C90.532 389.076 90.658 389.627 90.658 390.308C90.658 390.924 90.5507 391.447 90.336 391.876C90.1213 392.296 89.8367 392.641 89.482 392.912C89.1273 393.183 88.7213 393.379 88.264 393.5C87.816 393.621 87.3493 393.682 86.864 393.682C86.8173 393.682 86.7427 393.682 86.64 393.682C86.5373 393.682 86.43 393.682 86.318 393.682C86.206 393.673 86.094 393.663 85.982 393.654C85.8793 393.645 85.8047 393.635 85.758 393.626V397H83.84V387.298ZM86.696 388.712C86.5093 388.712 86.332 388.721 86.164 388.74C85.996 388.749 85.8607 388.763 85.758 388.782V391.96C85.7953 391.969 85.8513 391.979 85.926 391.988C86.0007 391.997 86.08 392.007 86.164 392.016C86.248 392.016 86.3273 392.016 86.402 392.016C86.486 392.016 86.5467 392.016 86.584 392.016C86.836 392.016 87.0833 391.993 87.326 391.946C87.578 391.899 87.802 391.815 87.998 391.694C88.194 391.563 88.348 391.386 88.46 391.162C88.5813 390.938 88.642 390.644 88.642 390.28C88.642 389.972 88.586 389.72 88.474 389.524C88.362 389.319 88.2127 389.155 88.026 389.034C87.8487 388.913 87.6433 388.829 87.41 388.782C87.1767 388.735 86.9387 388.712 86.696 388.712ZM95.2636 391.708C94.9742 391.605 94.7129 391.554 94.4796 391.554C94.1529 391.554 93.8776 391.643 93.6536 391.82C93.4389 391.988 93.2942 392.207 93.2196 392.478V397H91.3996V390H92.8136L93.0236 390.924H93.0796C93.2382 390.579 93.4529 390.313 93.7236 390.126C93.9942 389.939 94.3116 389.846 94.6756 389.846C94.9182 389.846 95.1936 389.897 95.5016 390L95.2636 391.708ZM101.908 396.398C101.628 396.622 101.245 396.813 100.76 396.972C100.284 397.121 99.7751 397.196 99.2338 397.196C98.1044 397.196 97.2784 396.869 96.7558 396.216C96.2331 395.553 95.9718 394.648 95.9718 393.5C95.9718 392.268 96.2658 391.344 96.8538 390.728C97.4418 390.112 98.2678 389.804 99.3318 389.804C99.6864 389.804 100.032 389.851 100.368 389.944C100.704 390.037 101.002 390.191 101.264 390.406C101.525 390.621 101.735 390.91 101.894 391.274C102.052 391.638 102.132 392.091 102.132 392.632C102.132 392.828 102.118 393.038 102.09 393.262C102.071 393.486 102.038 393.719 101.992 393.962H97.7918C97.8198 394.55 97.9691 394.993 98.2398 395.292C98.5198 395.591 98.9678 395.74 99.5838 395.74C99.9664 395.74 100.307 395.684 100.606 395.572C100.914 395.451 101.147 395.329 101.306 395.208L101.908 396.398ZM99.3038 391.26C98.8278 391.26 98.4731 391.405 98.2398 391.694C98.0158 391.974 97.8804 392.352 97.8338 392.828H100.438C100.475 392.324 100.396 391.937 100.2 391.666C100.013 391.395 99.7144 391.26 99.3038 391.26ZM106.315 395.068C106.315 394.881 106.236 394.732 106.077 394.62C105.918 394.508 105.722 394.405 105.489 394.312C105.256 394.219 104.999 394.125 104.719 394.032C104.439 393.929 104.182 393.794 103.949 393.626C103.716 393.449 103.52 393.229 103.361 392.968C103.202 392.697 103.123 392.352 103.123 391.932C103.123 391.241 103.328 390.714 103.739 390.35C104.15 389.986 104.742 389.804 105.517 389.804C106.049 389.804 106.53 389.86 106.959 389.972C107.388 390.084 107.724 390.21 107.967 390.35L107.561 391.666C107.346 391.582 107.076 391.493 106.749 391.4C106.422 391.307 106.091 391.26 105.755 391.26C105.214 391.26 104.943 391.47 104.943 391.89C104.943 392.058 105.022 392.193 105.181 392.296C105.34 392.399 105.536 392.497 105.769 392.59C106.002 392.674 106.259 392.767 106.539 392.87C106.819 392.973 107.076 393.108 107.309 393.276C107.542 393.435 107.738 393.645 107.897 393.906C108.056 394.167 108.135 394.503 108.135 394.914C108.135 395.623 107.906 396.183 107.449 396.594C107.001 396.995 106.324 397.196 105.419 397.196C104.924 397.196 104.458 397.131 104.019 397C103.59 396.879 103.24 396.734 102.969 396.566L103.473 395.208C103.688 395.329 103.972 395.451 104.327 395.572C104.682 395.684 105.046 395.74 105.419 395.74C105.69 395.74 105.904 395.689 106.063 395.586C106.231 395.483 106.315 395.311 106.315 395.068ZM112.221 395.068C112.221 394.881 112.142 394.732 111.983 394.62C111.825 394.508 111.629 394.405 111.395 394.312C111.162 394.219 110.905 394.125 110.625 394.032C110.345 393.929 110.089 393.794 109.855 393.626C109.622 393.449 109.426 393.229 109.267 392.968C109.109 392.697 109.029 392.352 109.029 391.932C109.029 391.241 109.235 390.714 109.645 390.35C110.056 389.986 110.649 389.804 111.423 389.804C111.955 389.804 112.436 389.86 112.865 389.972C113.295 390.084 113.631 390.21 113.873 390.35L113.467 391.666C113.253 391.582 112.982 391.493 112.655 391.4C112.329 391.307 111.997 391.26 111.661 391.26C111.12 391.26 110.849 391.47 110.849 391.89C110.849 392.058 110.929 392.193 111.087 392.296C111.246 392.399 111.442 392.497 111.675 392.59C111.909 392.674 112.165 392.767 112.445 392.87C112.725 392.973 112.982 393.108 113.215 393.276C113.449 393.435 113.645 393.645 113.803 393.906C113.962 394.167 114.041 394.503 114.041 394.914C114.041 395.623 113.813 396.183 113.355 396.594C112.907 396.995 112.231 397.196 111.325 397.196C110.831 397.196 110.364 397.131 109.925 397C109.496 396.879 109.146 396.734 108.875 396.566L109.379 395.208C109.594 395.329 109.879 395.451 110.233 395.572C110.588 395.684 110.952 395.74 111.325 395.74C111.596 395.74 111.811 395.689 111.969 395.586C112.137 395.483 112.221 395.311 112.221 395.068ZM121.809 388.348C121.809 388.619 121.716 388.838 121.529 389.006C121.352 389.165 121.128 389.244 120.857 389.244C120.512 389.244 120.241 389.137 120.045 388.922C119.849 388.698 119.751 388.404 119.751 388.04C119.751 387.667 119.807 387.349 119.919 387.088C120.04 386.827 120.18 386.612 120.339 386.444C120.507 386.267 120.68 386.131 120.857 386.038C121.034 385.935 121.188 385.861 121.319 385.814L121.767 386.57C121.58 386.645 121.422 386.766 121.291 386.934C121.16 387.093 121.086 387.265 121.067 387.452C121.254 387.452 121.422 387.536 121.571 387.704C121.73 387.863 121.809 388.077 121.809 388.348ZM119.387 388.348C119.387 388.619 119.294 388.838 119.107 389.006C118.93 389.165 118.706 389.244 118.435 389.244C118.09 389.244 117.819 389.137 117.623 388.922C117.427 388.698 117.329 388.404 117.329 388.04C117.329 387.667 117.385 387.349 117.497 387.088C117.618 386.827 117.758 386.612 117.917 386.444C118.085 386.267 118.258 386.131 118.435 386.038C118.612 385.935 118.766 385.861 118.897 385.814L119.345 386.57C119.158 386.645 119 386.766 118.869 386.934C118.738 387.093 118.664 387.265 118.645 387.452C118.832 387.452 119 387.536 119.149 387.704C119.308 387.863 119.387 388.077 119.387 388.348ZM123.188 387.2H128.998V388.908H125.106V391.33H128.69V393.038H125.106V397H123.188V387.2ZM132.411 387.984C132.411 387.713 132.5 387.494 132.677 387.326C132.864 387.158 133.097 387.074 133.377 387.074C133.713 387.074 133.979 387.186 134.175 387.41C134.371 387.634 134.469 387.928 134.469 388.292C134.469 388.665 134.408 388.983 134.287 389.244C134.175 389.505 134.035 389.725 133.867 389.902C133.708 390.07 133.536 390.205 133.349 390.308C133.172 390.401 133.022 390.471 132.901 390.518L132.439 389.748C132.626 389.664 132.789 389.552 132.929 389.412C133.078 389.272 133.162 389.095 133.181 388.88C132.994 388.889 132.817 388.819 132.649 388.67C132.49 388.511 132.411 388.283 132.411 387.984ZM129.989 387.984C129.989 387.713 130.078 387.494 130.255 387.326C130.442 387.158 130.675 387.074 130.955 387.074C131.291 387.074 131.557 387.186 131.753 387.41C131.949 387.634 132.047 387.928 132.047 388.292C132.047 388.665 131.986 388.983 131.865 389.244C131.753 389.505 131.613 389.725 131.445 389.902C131.286 390.07 131.114 390.205 130.927 390.308C130.75 390.401 130.6 390.471 130.479 390.518L130.017 389.748C130.204 389.664 130.367 389.552 130.507 389.412C130.656 389.272 130.74 389.095 130.759 388.88C130.572 388.889 130.395 388.819 130.227 388.67C130.068 388.511 129.989 388.283 129.989 387.984ZM137.431 390H138.397V389.608C138.397 388.721 138.584 388.082 138.957 387.69C139.331 387.289 139.872 387.088 140.581 387.088C141.328 387.088 141.949 387.177 142.443 387.354L142.093 388.81C141.879 388.735 141.687 388.689 141.519 388.67C141.361 388.642 141.193 388.628 141.015 388.628C140.829 388.628 140.679 388.656 140.567 388.712C140.465 388.768 140.385 388.857 140.329 388.978C140.283 389.09 140.25 389.235 140.231 389.412C140.222 389.58 140.217 389.776 140.217 390H141.757V391.54H140.217V397H138.397V391.54H137.431V390ZM142.169 393.5C142.169 392.315 142.458 391.405 143.037 390.77C143.616 390.126 144.428 389.804 145.473 389.804C146.033 389.804 146.518 389.893 146.929 390.07C147.34 390.247 147.68 390.499 147.951 390.826C148.222 391.143 148.422 391.531 148.553 391.988C148.693 392.445 148.763 392.949 148.763 393.5C148.763 394.685 148.474 395.6 147.895 396.244C147.326 396.879 146.518 397.196 145.473 397.196C144.913 397.196 144.428 397.107 144.017 396.93C143.606 396.753 143.261 396.505 142.981 396.188C142.71 395.861 142.505 395.469 142.365 395.012C142.234 394.555 142.169 394.051 142.169 393.5ZM144.045 393.5C144.045 393.808 144.073 394.093 144.129 394.354C144.185 394.615 144.269 394.844 144.381 395.04C144.493 395.236 144.638 395.39 144.815 395.502C145.002 395.605 145.221 395.656 145.473 395.656C145.949 395.656 146.304 395.483 146.537 395.138C146.77 394.793 146.887 394.247 146.887 393.5C146.887 392.856 146.78 392.338 146.565 391.946C146.35 391.545 145.986 391.344 145.473 391.344C145.025 391.344 144.675 391.512 144.423 391.848C144.171 392.184 144.045 392.735 144.045 393.5ZM153.889 391.708C153.599 391.605 153.338 391.554 153.105 391.554C152.778 391.554 152.503 391.643 152.279 391.82C152.064 391.988 151.919 392.207 151.845 392.478V397H150.025V390H151.439L151.649 390.924H151.705C151.863 390.579 152.078 390.313 152.349 390.126C152.619 389.939 152.937 389.846 153.301 389.846C153.543 389.846 153.819 389.897 154.127 390L153.889 391.708ZM158.516 387.2H164.326V388.908H160.434V391.33H164.018V393.038H160.434V397H158.516V387.2ZM170.945 387.2H172.765V393.528C172.765 394.163 172.681 394.709 172.513 395.166C172.345 395.623 172.112 396.001 171.813 396.3C171.514 396.599 171.15 396.818 170.721 396.958C170.292 397.098 169.82 397.168 169.307 397.168C166.824 397.168 165.583 396.034 165.583 393.766V387.2H167.501V393.388C167.501 393.771 167.534 394.097 167.599 394.368C167.674 394.629 167.786 394.844 167.935 395.012C168.084 395.171 168.271 395.287 168.495 395.362C168.719 395.427 168.98 395.46 169.279 395.46C169.867 395.46 170.292 395.297 170.553 394.97C170.814 394.643 170.945 394.116 170.945 393.388V387.2ZM178.631 394.368C178.631 394.069 178.519 393.827 178.295 393.64C178.08 393.453 177.805 393.285 177.469 393.136C177.142 392.977 176.783 392.819 176.391 392.66C176.008 392.492 175.649 392.291 175.312 392.058C174.986 391.815 174.711 391.517 174.486 391.162C174.272 390.807 174.165 390.355 174.165 389.804C174.165 389.328 174.244 388.917 174.403 388.572C174.561 388.217 174.785 387.923 175.075 387.69C175.373 387.457 175.723 387.284 176.125 387.172C176.526 387.06 176.974 387.004 177.469 387.004C178.038 387.004 178.575 387.055 179.079 387.158C179.583 387.251 179.998 387.391 180.325 387.578L179.723 389.188C179.517 389.057 179.209 388.941 178.799 388.838C178.388 388.726 177.945 388.67 177.469 388.67C177.021 388.67 176.675 388.759 176.433 388.936C176.199 389.113 176.083 389.351 176.083 389.65C176.083 389.93 176.19 390.163 176.405 390.35C176.629 390.537 176.904 390.709 177.231 390.868C177.567 391.027 177.926 391.19 178.309 391.358C178.701 391.526 179.06 391.731 179.387 391.974C179.723 392.207 179.998 392.501 180.213 392.856C180.437 393.201 180.549 393.635 180.549 394.158C180.549 394.681 180.46 395.133 180.283 395.516C180.115 395.889 179.872 396.202 179.555 396.454C179.247 396.706 178.869 396.893 178.421 397.014C177.982 397.135 177.497 397.196 176.965 397.196C176.265 397.196 175.649 397.131 175.117 397C174.585 396.869 174.193 396.739 173.941 396.608L174.557 394.97C174.659 395.026 174.79 395.087 174.949 395.152C175.117 395.217 175.303 395.278 175.509 395.334C175.714 395.39 175.929 395.437 176.153 395.474C176.386 395.511 176.624 395.53 176.867 395.53C177.436 395.53 177.87 395.437 178.169 395.25C178.477 395.054 178.631 394.76 178.631 394.368ZM182.022 387.2H183.94V397H182.022V387.2ZM185.511 392.1C185.511 390.467 185.87 389.211 186.589 388.334C187.307 387.447 188.334 387.004 189.669 387.004C190.369 387.004 190.98 387.125 191.503 387.368C192.025 387.611 192.459 387.956 192.805 388.404C193.15 388.852 193.407 389.389 193.575 390.014C193.743 390.639 193.827 391.335 193.827 392.1C193.827 393.733 193.463 394.993 192.735 395.88C192.016 396.757 190.994 397.196 189.669 397.196C188.959 397.196 188.343 397.075 187.821 396.832C187.298 396.589 186.864 396.244 186.519 395.796C186.183 395.348 185.931 394.811 185.763 394.186C185.595 393.561 185.511 392.865 185.511 392.1ZM187.527 392.1C187.527 392.595 187.569 393.052 187.653 393.472C187.737 393.883 187.863 394.237 188.031 394.536C188.208 394.835 188.432 395.068 188.703 395.236C188.973 395.404 189.295 395.488 189.669 395.488C190.35 395.488 190.877 395.222 191.251 394.69C191.624 394.158 191.811 393.295 191.811 392.1C191.811 391.624 191.769 391.181 191.685 390.77C191.61 390.359 191.489 390 191.321 389.692C191.153 389.384 190.933 389.146 190.663 388.978C190.392 388.801 190.061 388.712 189.669 388.712C188.987 388.712 188.46 388.987 188.087 389.538C187.713 390.079 187.527 390.933 187.527 392.1ZM197.633 391.89L196.863 390.35H196.793L197.017 391.89V397H195.197V387.13H196.597L200.307 392.352L201.049 393.85H201.119L200.895 392.352V387.2H202.715V397.07H201.315L197.633 391.89ZM207.454 392.1C207.454 390.467 207.813 389.211 208.532 388.334C209.251 387.447 210.277 387.004 211.612 387.004C212.312 387.004 212.923 387.125 213.446 387.368C213.969 387.611 214.403 387.956 214.748 388.404C215.093 388.852 215.35 389.389 215.518 390.014C215.686 390.639 215.77 391.335 215.77 392.1C215.77 393.733 215.406 394.993 214.678 395.88C213.959 396.757 212.937 397.196 211.612 397.196C210.903 397.196 210.287 397.075 209.764 396.832C209.241 396.589 208.807 396.244 208.462 395.796C208.126 395.348 207.874 394.811 207.706 394.186C207.538 393.561 207.454 392.865 207.454 392.1ZM209.47 392.1C209.47 392.595 209.512 393.052 209.596 393.472C209.68 393.883 209.806 394.237 209.974 394.536C210.151 394.835 210.375 395.068 210.646 395.236C210.917 395.404 211.239 395.488 211.612 395.488C212.293 395.488 212.821 395.222 213.194 394.69C213.567 394.158 213.754 393.295 213.754 392.1C213.754 391.624 213.712 391.181 213.628 390.77C213.553 390.359 213.432 390 213.264 389.692C213.096 389.384 212.877 389.146 212.606 388.978C212.335 388.801 212.004 388.712 211.612 388.712C210.931 388.712 210.403 388.987 210.03 389.538C209.657 390.079 209.47 390.933 209.47 392.1ZM221.369 394.368C221.369 394.069 221.257 393.827 221.033 393.64C220.818 393.453 220.543 393.285 220.207 393.136C219.88 392.977 219.521 392.819 219.129 392.66C218.746 392.492 218.387 392.291 218.051 392.058C217.724 391.815 217.449 391.517 217.225 391.162C217.01 390.807 216.903 390.355 216.903 389.804C216.903 389.328 216.982 388.917 217.141 388.572C217.299 388.217 217.523 387.923 217.813 387.69C218.111 387.457 218.461 387.284 218.863 387.172C219.264 387.06 219.712 387.004 220.207 387.004C220.776 387.004 221.313 387.055 221.817 387.158C222.321 387.251 222.736 387.391 223.063 387.578L222.461 389.188C222.255 389.057 221.947 388.941 221.537 388.838C221.126 388.726 220.683 388.67 220.207 388.67C219.759 388.67 219.413 388.759 219.171 388.936C218.937 389.113 218.821 389.351 218.821 389.65C218.821 389.93 218.928 390.163 219.143 390.35C219.367 390.537 219.642 390.709 219.969 390.868C220.305 391.027 220.664 391.19 221.047 391.358C221.439 391.526 221.798 391.731 222.125 391.974C222.461 392.207 222.736 392.501 222.951 392.856C223.175 393.201 223.287 393.635 223.287 394.158C223.287 394.681 223.198 395.133 223.021 395.516C222.853 395.889 222.61 396.202 222.293 396.454C221.985 396.706 221.607 396.893 221.159 397.014C220.72 397.135 220.235 397.196 219.703 397.196C219.003 397.196 218.387 397.131 217.855 397C217.323 396.869 216.931 396.739 216.679 396.608L217.295 394.97C217.397 395.026 217.528 395.087 217.687 395.152C217.855 395.217 218.041 395.278 218.247 395.334C218.452 395.39 218.667 395.437 218.891 395.474C219.124 395.511 219.362 395.53 219.605 395.53C220.174 395.53 220.608 395.437 220.907 395.25C221.215 395.054 221.369 394.76 221.369 394.368Z" fill="#818181"/>
<path d="M90.218 365.796C90.218 365.292 90.068 364.884 89.768 364.572C89.468 364.248 89.09 363.966 88.634 363.726C88.19 363.474 87.704 363.24 87.176 363.024C86.648 362.808 86.156 362.55 85.7 362.25C85.256 361.938 84.884 361.56 84.584 361.116C84.284 360.66 84.134 360.084 84.134 359.388C84.134 358.404 84.476 357.624 85.16 357.048C85.844 356.472 86.816 356.184 88.076 356.184C88.808 356.184 89.474 356.238 90.074 356.346C90.674 356.454 91.142 356.592 91.478 356.76L91.028 358.074C90.752 357.942 90.344 357.816 89.804 357.696C89.276 357.576 88.676 357.516 88.004 357.516C87.212 357.516 86.618 357.696 86.222 358.056C85.826 358.404 85.628 358.818 85.628 359.298C85.628 359.766 85.778 360.156 86.078 360.468C86.378 360.78 86.75 361.062 87.194 361.314C87.65 361.554 88.142 361.794 88.67 362.034C89.198 362.274 89.684 362.556 90.128 362.88C90.584 363.192 90.962 363.57 91.262 364.014C91.562 364.458 91.712 365.01 91.712 365.67C91.712 366.21 91.616 366.696 91.424 367.128C91.232 367.56 90.95 367.932 90.578 368.244C90.206 368.556 89.756 368.796 89.228 368.964C88.7 369.132 88.1 369.216 87.428 369.216C86.528 369.216 85.784 369.144 85.196 369C84.608 368.868 84.152 368.718 83.828 368.55L84.332 367.2C84.608 367.356 85.016 367.512 85.556 367.668C86.096 367.812 86.702 367.884 87.374 367.884C87.77 367.884 88.142 367.848 88.49 367.776C88.838 367.692 89.138 367.566 89.39 367.398C89.642 367.218 89.84 366.996 89.984 366.732C90.14 366.468 90.218 366.156 90.218 365.796ZM100.519 368.28C100.159 368.568 99.7025 368.796 99.1505 368.964C98.6105 369.132 98.0345 369.216 97.4225 369.216C96.7385 369.216 96.1445 369.108 95.6405 368.892C95.1365 368.664 94.7225 368.346 94.3985 367.938C94.0745 367.518 93.8345 367.02 93.6785 366.444C93.5225 365.868 93.4445 365.22 93.4445 364.5C93.4445 362.964 93.7865 361.794 94.4705 360.99C95.1545 360.186 96.1325 359.784 97.4045 359.784C97.8125 359.784 98.2205 359.832 98.6285 359.928C99.0365 360.012 99.4025 360.18 99.7265 360.432C100.051 360.684 100.315 361.044 100.519 361.512C100.723 361.968 100.825 362.574 100.825 363.33C100.825 363.726 100.789 364.164 100.717 364.644H94.9385C94.9385 365.172 94.9925 365.64 95.1005 366.048C95.2085 366.456 95.3765 366.804 95.6045 367.092C95.8325 367.368 96.1265 367.584 96.4865 367.74C96.8585 367.884 97.3085 367.956 97.8365 367.956C98.2445 367.956 98.6525 367.884 99.0605 367.74C99.4685 367.596 99.7745 367.428 99.9785 367.236L100.519 368.28ZM97.4225 361.044C96.7145 361.044 96.1445 361.23 95.7125 361.602C95.2925 361.974 95.0405 362.61 94.9565 363.51H99.4205C99.4205 362.598 99.2465 361.962 98.8985 361.602C98.5505 361.23 98.0585 361.044 97.4225 361.044ZM108.867 369V363.87C108.867 362.934 108.729 362.232 108.453 361.764C108.189 361.284 107.697 361.044 106.977 361.044C106.341 361.044 105.813 361.218 105.393 361.566C104.985 361.902 104.697 362.328 104.529 362.844V369H103.089V360H104.097L104.367 361.098H104.439C104.727 360.714 105.111 360.402 105.591 360.162C106.083 359.91 106.665 359.784 107.337 359.784C107.829 359.784 108.261 359.844 108.633 359.964C109.005 360.072 109.311 360.27 109.551 360.558C109.803 360.846 109.989 361.236 110.109 361.728C110.241 362.208 110.307 362.82 110.307 363.564V369H108.867ZM119.845 365.904C119.845 366.516 119.851 367.074 119.863 367.578C119.875 368.07 119.929 368.556 120.025 369.036H119.053L118.693 367.758H118.621C118.381 368.178 118.033 368.526 117.577 368.802C117.121 369.078 116.587 369.216 115.975 369.216C114.775 369.216 113.881 368.838 113.293 368.082C112.717 367.326 112.429 366.144 112.429 364.536C112.429 363 112.789 361.836 113.509 361.044C114.241 360.24 115.243 359.838 116.515 359.838C116.959 359.838 117.307 359.862 117.559 359.91C117.823 359.958 118.105 360.036 118.405 360.144V356.4H119.845V365.904ZM116.209 367.956C116.821 367.956 117.307 367.8 117.667 367.488C118.027 367.164 118.273 366.678 118.405 366.03V361.566C118.189 361.398 117.943 361.278 117.667 361.206C117.391 361.134 117.025 361.098 116.569 361.098C115.741 361.098 115.093 361.374 114.625 361.926C114.157 362.466 113.923 363.336 113.923 364.536C113.923 365.028 113.959 365.484 114.031 365.904C114.115 366.324 114.247 366.684 114.427 366.984C114.607 367.284 114.841 367.524 115.129 367.704C115.429 367.872 115.789 367.956 116.209 367.956ZM122.924 360H124.364V369H122.924V360ZM122.618 357.264C122.618 356.988 122.708 356.754 122.888 356.562C123.08 356.358 123.32 356.256 123.608 356.256C123.896 356.256 124.142 356.358 124.346 356.562C124.55 356.754 124.652 356.988 124.652 357.264C124.652 357.54 124.55 357.768 124.346 357.948C124.142 358.128 123.896 358.218 123.608 358.218C123.32 358.218 123.08 358.128 122.888 357.948C122.708 357.768 122.618 357.54 122.618 357.264ZM133.213 369V363.87C133.213 362.934 133.075 362.232 132.799 361.764C132.535 361.284 132.043 361.044 131.323 361.044C130.687 361.044 130.159 361.218 129.739 361.566C129.331 361.902 129.043 362.328 128.875 362.844V369H127.435V360H128.443L128.713 361.098H128.785C129.073 360.714 129.457 360.402 129.937 360.162C130.429 359.91 131.011 359.784 131.683 359.784C132.175 359.784 132.607 359.844 132.979 359.964C133.351 360.072 133.657 360.27 133.897 360.558C134.149 360.846 134.335 361.236 134.455 361.728C134.587 362.208 134.653 362.82 134.653 363.564V369H133.213ZM144.173 369.414C144.173 370.578 143.861 371.436 143.237 371.988C142.625 372.54 141.713 372.816 140.501 372.816C139.781 372.816 139.199 372.768 138.755 372.672C138.323 372.588 137.951 372.474 137.639 372.33L138.017 371.106C138.293 371.214 138.599 371.316 138.935 371.412C139.271 371.508 139.709 371.556 140.249 371.556C140.753 371.556 141.161 371.508 141.473 371.412C141.797 371.328 142.055 371.178 142.247 370.962C142.439 370.758 142.571 370.488 142.643 370.152C142.715 369.828 142.751 369.438 142.751 368.982V368.118H142.679C142.439 368.466 142.133 368.736 141.761 368.928C141.389 369.108 140.903 369.198 140.303 369.198C139.091 369.198 138.197 368.82 137.621 368.064C137.057 367.308 136.775 366.132 136.775 364.536C136.775 363 137.141 361.836 137.873 361.044C138.605 360.24 139.685 359.838 141.113 359.838C141.797 359.838 142.379 359.892 142.859 360C143.351 360.108 143.789 360.234 144.173 360.378V369.414ZM140.555 367.938C141.167 367.938 141.647 367.788 141.995 367.488C142.343 367.176 142.589 366.696 142.733 366.048V361.44C142.253 361.212 141.641 361.098 140.897 361.098C140.081 361.098 139.439 361.374 138.971 361.926C138.503 362.478 138.269 363.342 138.269 364.518C138.269 365.022 138.311 365.484 138.395 365.904C138.479 366.324 138.611 366.684 138.791 366.984C138.971 367.284 139.205 367.518 139.493 367.686C139.781 367.854 140.135 367.938 140.555 367.938ZM154.157 360.756L153.185 358.938H153.113L153.293 360.756V369H151.889V356.202H152.681L158.711 364.608L159.647 366.336H159.737L159.539 364.608V356.4H160.943V369.198H160.151L154.157 360.756ZM163.353 364.5C163.353 362.976 163.689 361.812 164.361 361.008C165.045 360.192 166.023 359.784 167.295 359.784C167.967 359.784 168.549 359.898 169.041 360.126C169.545 360.342 169.959 360.66 170.283 361.08C170.607 361.488 170.847 361.986 171.003 362.574C171.159 363.15 171.237 363.792 171.237 364.5C171.237 366.024 170.895 367.194 170.211 368.01C169.539 368.814 168.567 369.216 167.295 369.216C166.623 369.216 166.035 369.108 165.531 368.892C165.039 368.664 164.631 368.346 164.307 367.938C163.983 367.518 163.743 367.02 163.587 366.444C163.431 365.856 163.353 365.208 163.353 364.5ZM164.847 364.5C164.847 364.956 164.889 365.394 164.973 365.814C165.069 366.234 165.213 366.6 165.405 366.912C165.597 367.224 165.849 367.476 166.161 367.668C166.473 367.86 166.851 367.956 167.295 367.956C168.927 367.968 169.743 366.816 169.743 364.5C169.743 364.032 169.695 363.588 169.599 363.168C169.515 362.748 169.377 362.382 169.185 362.07C168.993 361.758 168.741 361.512 168.429 361.332C168.117 361.14 167.739 361.044 167.295 361.044C165.663 361.032 164.847 362.184 164.847 364.5ZM173.003 364.5C173.003 362.976 173.339 361.812 174.011 361.008C174.695 360.192 175.673 359.784 176.945 359.784C177.617 359.784 178.199 359.898 178.691 360.126C179.195 360.342 179.609 360.66 179.933 361.08C180.257 361.488 180.497 361.986 180.653 362.574C180.809 363.15 180.887 363.792 180.887 364.5C180.887 366.024 180.545 367.194 179.861 368.01C179.189 368.814 178.217 369.216 176.945 369.216C176.273 369.216 175.685 369.108 175.181 368.892C174.689 368.664 174.281 368.346 173.957 367.938C173.633 367.518 173.393 367.02 173.237 366.444C173.081 365.856 173.003 365.208 173.003 364.5ZM174.497 364.5C174.497 364.956 174.539 365.394 174.623 365.814C174.719 366.234 174.863 366.6 175.055 366.912C175.247 367.224 175.499 367.476 175.811 367.668C176.123 367.86 176.501 367.956 176.945 367.956C178.577 367.968 179.393 366.816 179.393 364.5C179.393 364.032 179.345 363.588 179.249 363.168C179.165 362.748 179.027 362.382 178.835 362.07C178.643 361.758 178.391 361.512 178.079 361.332C177.767 361.14 177.389 361.044 176.945 361.044C175.313 361.032 174.497 362.184 174.497 364.5ZM190.069 365.904C190.069 366.516 190.075 367.074 190.087 367.578C190.099 368.07 190.153 368.556 190.249 369.036H189.277L188.917 367.758H188.845C188.605 368.178 188.257 368.526 187.801 368.802C187.345 369.078 186.811 369.216 186.199 369.216C184.999 369.216 184.105 368.838 183.517 368.082C182.941 367.326 182.653 366.144 182.653 364.536C182.653 363 183.013 361.836 183.733 361.044C184.465 360.24 185.467 359.838 186.739 359.838C187.183 359.838 187.531 359.862 187.783 359.91C188.047 359.958 188.329 360.036 188.629 360.144V356.4H190.069V365.904ZM186.433 367.956C187.045 367.956 187.531 367.8 187.891 367.488C188.251 367.164 188.497 366.678 188.629 366.03V361.566C188.413 361.398 188.167 361.278 187.891 361.206C187.615 361.134 187.249 361.098 186.793 361.098C185.965 361.098 185.317 361.374 184.849 361.926C184.381 362.466 184.147 363.336 184.147 364.536C184.147 365.028 184.183 365.484 184.255 365.904C184.339 366.324 184.471 366.684 184.651 366.984C184.831 367.284 185.065 367.524 185.353 367.704C185.653 367.872 186.013 367.956 186.433 367.956ZM196.803 366.552C196.803 366.192 196.695 365.91 196.479 365.706C196.263 365.502 195.993 365.334 195.669 365.202C195.357 365.058 195.009 364.926 194.625 364.806C194.253 364.674 193.905 364.512 193.581 364.32C193.269 364.116 193.005 363.858 192.789 363.546C192.573 363.234 192.465 362.814 192.465 362.286C192.465 361.422 192.711 360.792 193.203 360.396C193.695 359.988 194.379 359.784 195.255 359.784C195.903 359.784 196.443 359.844 196.875 359.964C197.319 360.072 197.703 360.204 198.027 360.36L197.685 361.548C197.409 361.416 197.073 361.302 196.677 361.206C196.293 361.098 195.879 361.044 195.435 361.044C194.907 361.044 194.517 361.134 194.265 361.314C194.025 361.494 193.905 361.806 193.905 362.25C193.905 362.562 194.013 362.808 194.229 362.988C194.445 363.156 194.709 363.312 195.021 363.456C195.345 363.588 195.693 363.72 196.065 363.852C196.449 363.984 196.797 364.158 197.109 364.374C197.433 364.59 197.703 364.866 197.919 365.202C198.135 365.526 198.243 365.958 198.243 366.498C198.243 366.882 198.177 367.242 198.045 367.578C197.925 367.914 197.733 368.202 197.469 368.442C197.205 368.682 196.875 368.868 196.479 369C196.095 369.144 195.639 369.216 195.111 369.216C194.427 369.216 193.845 369.15 193.365 369.018C192.885 368.886 192.483 368.73 192.159 368.55L192.591 367.326C192.867 367.482 193.227 367.626 193.671 367.758C194.115 367.89 194.565 367.956 195.021 367.956C195.537 367.956 195.963 367.854 196.299 367.65C196.635 367.446 196.803 367.08 196.803 366.552ZM199.915 368.172C199.915 367.848 200.005 367.596 200.185 367.416C200.377 367.224 200.629 367.128 200.941 367.128C201.265 367.128 201.523 367.224 201.715 367.416C201.907 367.596 202.003 367.848 202.003 368.172C202.003 368.484 201.907 368.736 201.715 368.928C201.523 369.12 201.265 369.216 200.941 369.216C200.629 369.216 200.377 369.12 200.185 368.928C200.005 368.736 199.915 368.484 199.915 368.172ZM204.943 368.172C204.943 367.848 205.033 367.596 205.213 367.416C205.405 367.224 205.657 367.128 205.969 367.128C206.293 367.128 206.551 367.224 206.743 367.416C206.935 367.596 207.031 367.848 207.031 368.172C207.031 368.484 206.935 368.736 206.743 368.928C206.551 369.12 206.293 369.216 205.969 369.216C205.657 369.216 205.405 369.12 205.213 368.928C205.033 368.736 204.943 368.484 204.943 368.172ZM209.97 368.172C209.97 367.848 210.06 367.596 210.24 367.416C210.432 367.224 210.684 367.128 210.996 367.128C211.32 367.128 211.578 367.224 211.77 367.416C211.962 367.596 212.058 367.848 212.058 368.172C212.058 368.484 211.962 368.736 211.77 368.928C211.578 369.12 211.32 369.216 210.996 369.216C210.684 369.216 210.432 369.12 210.24 368.928C210.06 368.736 209.97 368.484 209.97 368.172Z" fill="#121214"/>
<rect x="83" y="425" width="296" height="3" rx="1.5" fill="#F4B6B0"/>
<rect x="115" y="425" width="184" height="3" rx="1.5" fill="#DA7E70"/>
<path d="M50.722 469.42L50.862 467.95H50.792L50.26 469.294L47.712 473.718H47.362L44.66 469.28L44.156 467.95H44.086L44.282 469.406V476H43.19V466.2H44.058L47.124 471.212L47.586 472.304H47.614L48.048 471.184L50.974 466.2H51.884V476H50.722V469.42ZM54.0402 469.518C54.3949 469.303 54.8056 469.145 55.2722 469.042C55.7482 468.939 56.2429 468.888 56.7562 468.888C57.2416 468.888 57.6289 468.953 57.9182 469.084C58.2169 469.215 58.4409 469.387 58.5902 469.602C58.7489 469.807 58.8516 470.036 58.8982 470.288C58.9542 470.54 58.9822 470.792 58.9822 471.044C58.9822 471.604 58.9682 472.15 58.9402 472.682C58.9122 473.214 58.8982 473.718 58.8982 474.194C58.8982 474.539 58.9122 474.866 58.9402 475.174C58.9682 475.482 59.0196 475.767 59.0942 476.028H58.2682L57.9742 475.048H57.9042C57.8202 475.179 57.7129 475.309 57.5822 475.44C57.4609 475.561 57.3116 475.673 57.1342 475.776C56.9569 475.869 56.7516 475.949 56.5182 476.014C56.2849 476.079 56.0189 476.112 55.7202 476.112C55.4216 476.112 55.1416 476.065 54.8802 475.972C54.6282 475.879 54.4089 475.748 54.2222 475.58C54.0356 475.403 53.8862 475.193 53.7742 474.95C53.6716 474.707 53.6202 474.432 53.6202 474.124C53.6202 473.713 53.7042 473.373 53.8722 473.102C54.0402 472.822 54.2736 472.603 54.5722 472.444C54.8802 472.276 55.2442 472.159 55.6642 472.094C56.0936 472.019 56.5649 471.982 57.0782 471.982C57.2089 471.982 57.3349 471.982 57.4562 471.982C57.5869 471.982 57.7176 471.991 57.8482 472.01C57.8762 471.73 57.8902 471.478 57.8902 471.254C57.8902 470.741 57.7876 470.381 57.5822 470.176C57.3769 469.971 57.0036 469.868 56.4622 469.868C56.3036 469.868 56.1309 469.882 55.9442 469.91C55.7669 469.929 55.5802 469.961 55.3842 470.008C55.1976 470.045 55.0156 470.097 54.8382 470.162C54.6702 470.218 54.5209 470.283 54.3902 470.358L54.0402 469.518ZM56.0282 475.132C56.2896 475.132 56.5229 475.099 56.7282 475.034C56.9336 474.959 57.1109 474.871 57.2602 474.768C57.4096 474.656 57.5309 474.535 57.6242 474.404C57.7269 474.273 57.8016 474.147 57.8482 474.026V472.864C57.7176 472.855 57.5822 472.85 57.4422 472.85C57.3116 472.841 57.1809 472.836 57.0502 472.836C56.7609 472.836 56.4762 472.855 56.1962 472.892C55.9256 472.92 55.6829 472.981 55.4682 473.074C55.2629 473.158 55.0949 473.279 54.9642 473.438C54.8429 473.587 54.7822 473.779 54.7822 474.012C54.7822 474.339 54.8989 474.609 55.1322 474.824C55.3656 475.029 55.6642 475.132 56.0282 475.132ZM65.5915 476V472.01C65.5915 471.282 65.4842 470.736 65.2695 470.372C65.0642 469.999 64.6815 469.812 64.1215 469.812C63.6269 469.812 63.2162 469.947 62.8895 470.218C62.5722 470.479 62.3482 470.811 62.2175 471.212V476H61.0975V469H61.8815L62.0915 469.854H62.1475C62.3715 469.555 62.6702 469.313 63.0435 469.126C63.4262 468.93 63.8789 468.832 64.4015 468.832C64.7842 468.832 65.1202 468.879 65.4095 468.972C65.6989 469.056 65.9369 469.21 66.1235 469.434C66.3195 469.658 66.4642 469.961 66.5575 470.344C66.6602 470.717 66.7115 471.193 66.7115 471.772V476H65.5915ZM68.6418 469.518C68.9964 469.303 69.4071 469.145 69.8738 469.042C70.3498 468.939 70.8444 468.888 71.3578 468.888C71.8431 468.888 72.2304 468.953 72.5198 469.084C72.8184 469.215 73.0424 469.387 73.1918 469.602C73.3504 469.807 73.4531 470.036 73.4998 470.288C73.5558 470.54 73.5838 470.792 73.5838 471.044C73.5838 471.604 73.5698 472.15 73.5418 472.682C73.5138 473.214 73.4998 473.718 73.4998 474.194C73.4998 474.539 73.5138 474.866 73.5418 475.174C73.5698 475.482 73.6211 475.767 73.6958 476.028H72.8698L72.5758 475.048H72.5058C72.4218 475.179 72.3144 475.309 72.1838 475.44C72.0624 475.561 71.9131 475.673 71.7358 475.776C71.5584 475.869 71.3531 475.949 71.1198 476.014C70.8864 476.079 70.6204 476.112 70.3218 476.112C70.0231 476.112 69.7431 476.065 69.4818 475.972C69.2298 475.879 69.0104 475.748 68.8238 475.58C68.6371 475.403 68.4878 475.193 68.3758 474.95C68.2731 474.707 68.2218 474.432 68.2218 474.124C68.2218 473.713 68.3058 473.373 68.4738 473.102C68.6418 472.822 68.8751 472.603 69.1738 472.444C69.4818 472.276 69.8458 472.159 70.2658 472.094C70.6951 472.019 71.1664 471.982 71.6798 471.982C71.8104 471.982 71.9364 471.982 72.0578 471.982C72.1884 471.982 72.3191 471.991 72.4498 472.01C72.4778 471.73 72.4918 471.478 72.4918 471.254C72.4918 470.741 72.3891 470.381 72.1838 470.176C71.9784 469.971 71.6051 469.868 71.0638 469.868C70.9051 469.868 70.7324 469.882 70.5458 469.91C70.3684 469.929 70.1818 469.961 69.9858 470.008C69.7991 470.045 69.6171 470.097 69.4398 470.162C69.2718 470.218 69.1224 470.283 68.9918 470.358L68.6418 469.518ZM70.6298 475.132C70.8911 475.132 71.1244 475.099 71.3298 475.034C71.5351 474.959 71.7124 474.871 71.8618 474.768C72.0111 474.656 72.1324 474.535 72.2258 474.404C72.3284 474.273 72.4031 474.147 72.4498 474.026V472.864C72.3191 472.855 72.1838 472.85 72.0438 472.85C71.9131 472.841 71.7824 472.836 71.6518 472.836C71.3624 472.836 71.0778 472.855 70.7978 472.892C70.5271 472.92 70.2844 472.981 70.0698 473.074C69.8644 473.158 69.6964 473.279 69.5658 473.438C69.4444 473.587 69.3838 473.779 69.3838 474.012C69.3838 474.339 69.5004 474.609 69.7338 474.824C69.9671 475.029 70.2658 475.132 70.6298 475.132ZM81.0611 476.322C81.0611 477.227 80.8184 477.895 80.3331 478.324C79.8571 478.753 79.1478 478.968 78.2051 478.968C77.6451 478.968 77.1924 478.931 76.8471 478.856C76.5111 478.791 76.2218 478.702 75.9791 478.59L76.2731 477.638C76.4878 477.722 76.7258 477.801 76.9871 477.876C77.2484 477.951 77.5891 477.988 78.0091 477.988C78.4011 477.988 78.7184 477.951 78.9611 477.876C79.2131 477.811 79.4138 477.694 79.5631 477.526C79.7124 477.367 79.8151 477.157 79.8711 476.896C79.9271 476.644 79.9551 476.341 79.9551 475.986V475.314H79.8991C79.7124 475.585 79.4744 475.795 79.1851 475.944C78.8958 476.084 78.5178 476.154 78.0511 476.154C77.1084 476.154 76.4131 475.86 75.9651 475.272C75.5264 474.684 75.3071 473.769 75.3071 472.528C75.3071 471.333 75.5918 470.428 76.1611 469.812C76.7304 469.187 77.5704 468.874 78.6811 468.874C79.2131 468.874 79.6658 468.916 80.0391 469C80.4218 469.084 80.7624 469.182 81.0611 469.294V476.322ZM78.2471 475.174C78.7231 475.174 79.0964 475.057 79.3671 474.824C79.6378 474.581 79.8291 474.208 79.9411 473.704V470.12C79.5678 469.943 79.0918 469.854 78.5131 469.854C77.8784 469.854 77.3791 470.069 77.0151 470.498C76.6511 470.927 76.4691 471.599 76.4691 472.514C76.4691 472.906 76.5018 473.265 76.5671 473.592C76.6324 473.919 76.7351 474.199 76.8751 474.432C77.0151 474.665 77.1971 474.847 77.4211 474.978C77.6451 475.109 77.9204 475.174 78.2471 475.174ZM88.3286 475.44C88.0486 475.664 87.694 475.841 87.2646 475.972C86.8446 476.103 86.3966 476.168 85.9206 476.168C85.3886 476.168 84.9266 476.084 84.5346 475.916C84.1426 475.739 83.8206 475.491 83.5686 475.174C83.3166 474.847 83.13 474.46 83.0086 474.012C82.8873 473.564 82.8266 473.06 82.8266 472.5C82.8266 471.305 83.0926 470.395 83.6246 469.77C84.1566 469.145 84.9173 468.832 85.9066 468.832C86.224 468.832 86.5413 468.869 86.8586 468.944C87.176 469.009 87.4606 469.14 87.7126 469.336C87.9646 469.532 88.17 469.812 88.3286 470.176C88.4873 470.531 88.5666 471.002 88.5666 471.59C88.5666 471.898 88.5386 472.239 88.4826 472.612H83.9886C83.9886 473.023 84.0306 473.387 84.1146 473.704C84.1986 474.021 84.3293 474.292 84.5066 474.516C84.684 474.731 84.9126 474.899 85.1926 475.02C85.482 475.132 85.832 475.188 86.2426 475.188C86.56 475.188 86.8773 475.132 87.1946 475.02C87.512 474.908 87.75 474.777 87.9086 474.628L88.3286 475.44ZM85.9206 469.812C85.37 469.812 84.9266 469.957 84.5906 470.246C84.264 470.535 84.068 471.03 84.0026 471.73H87.4746C87.4746 471.021 87.3393 470.526 87.0686 470.246C86.798 469.957 86.4153 469.812 85.9206 469.812Z" fill="#3F3F3F"/>
<path d="M47.614 276.508C47.614 276.116 47.4973 275.799 47.264 275.556C47.0307 275.304 46.7367 275.085 46.382 274.898C46.0367 274.702 45.6587 274.52 45.248 274.352C44.8373 274.184 44.4547 273.983 44.1 273.75C43.7547 273.507 43.4653 273.213 43.232 272.868C42.9987 272.513 42.882 272.065 42.882 271.524C42.882 270.759 43.148 270.152 43.68 269.704C44.212 269.256 44.968 269.032 45.948 269.032C46.5173 269.032 47.0353 269.074 47.502 269.158C47.9687 269.242 48.3327 269.349 48.594 269.48L48.244 270.502C48.0293 270.399 47.712 270.301 47.292 270.208C46.8813 270.115 46.4147 270.068 45.892 270.068C45.276 270.068 44.814 270.208 44.506 270.488C44.198 270.759 44.044 271.081 44.044 271.454C44.044 271.818 44.1607 272.121 44.394 272.364C44.6273 272.607 44.9167 272.826 45.262 273.022C45.6167 273.209 45.9993 273.395 46.41 273.582C46.8207 273.769 47.1987 273.988 47.544 274.24C47.8987 274.483 48.1927 274.777 48.426 275.122C48.6593 275.467 48.776 275.897 48.776 276.41C48.776 276.83 48.7013 277.208 48.552 277.544C48.4027 277.88 48.1833 278.169 47.894 278.412C47.6047 278.655 47.2547 278.841 46.844 278.972C46.4333 279.103 45.9667 279.168 45.444 279.168C44.744 279.168 44.1653 279.112 43.708 279C43.2507 278.897 42.896 278.781 42.644 278.65L43.036 277.6C43.2507 277.721 43.568 277.843 43.988 277.964C44.408 278.076 44.8793 278.132 45.402 278.132C45.71 278.132 45.9993 278.104 46.27 278.048C46.5407 277.983 46.774 277.885 46.97 277.754C47.166 277.614 47.32 277.441 47.432 277.236C47.5533 277.031 47.614 276.788 47.614 276.508ZM51.7615 277.278C51.7615 277.605 51.8175 277.838 51.9295 277.978C52.0415 278.118 52.2002 278.188 52.4055 278.188C52.5268 278.188 52.6575 278.179 52.7975 278.16C52.9375 278.141 53.0962 278.099 53.2735 278.034L53.3995 278.916C53.2502 278.991 53.0402 279.051 52.7695 279.098C52.5082 279.145 52.2795 279.168 52.0835 279.168C51.6635 279.168 51.3182 279.051 51.0475 278.818C50.7768 278.575 50.6415 278.169 50.6415 277.6V269.2H51.7615V277.278ZM54.8414 272H55.9614V279H54.8414V272ZM54.6034 269.872C54.6034 269.657 54.6734 269.475 54.8134 269.326C54.9627 269.167 55.1494 269.088 55.3734 269.088C55.5974 269.088 55.7887 269.167 55.9474 269.326C56.1061 269.475 56.1854 269.657 56.1854 269.872C56.1854 270.087 56.1061 270.264 55.9474 270.404C55.7887 270.544 55.5974 270.614 55.3734 270.614C55.1494 270.614 54.9627 270.544 54.8134 270.404C54.6734 270.264 54.6034 270.087 54.6034 269.872ZM63.4595 278.44C63.1795 278.664 62.8248 278.841 62.3955 278.972C61.9755 279.103 61.5275 279.168 61.0515 279.168C60.5195 279.168 60.0575 279.084 59.6655 278.916C59.2735 278.739 58.9515 278.491 58.6995 278.174C58.4475 277.847 58.2608 277.46 58.1395 277.012C58.0182 276.564 57.9575 276.06 57.9575 275.5C57.9575 274.305 58.2235 273.395 58.7555 272.77C59.2875 272.145 60.0482 271.832 61.0375 271.832C61.3548 271.832 61.6722 271.869 61.9895 271.944C62.3068 272.009 62.5915 272.14 62.8435 272.336C63.0955 272.532 63.3008 272.812 63.4595 273.176C63.6182 273.531 63.6975 274.002 63.6975 274.59C63.6975 274.898 63.6695 275.239 63.6135 275.612H59.1195C59.1195 276.023 59.1615 276.387 59.2455 276.704C59.3295 277.021 59.4602 277.292 59.6375 277.516C59.8148 277.731 60.0435 277.899 60.3235 278.02C60.6128 278.132 60.9628 278.188 61.3735 278.188C61.6908 278.188 62.0082 278.132 62.3255 278.02C62.6428 277.908 62.8808 277.777 63.0395 277.628L63.4595 278.44ZM61.0515 272.812C60.5008 272.812 60.0575 272.957 59.7215 273.246C59.3948 273.535 59.1988 274.03 59.1335 274.73H62.6055C62.6055 274.021 62.4702 273.526 62.1995 273.246C61.9288 272.957 61.5462 272.812 61.0515 272.812ZM69.9529 279V275.01C69.9529 274.282 69.8455 273.736 69.6309 273.372C69.4255 272.999 69.0429 272.812 68.4829 272.812C67.9882 272.812 67.5775 272.947 67.2509 273.218C66.9335 273.479 66.7095 273.811 66.5789 274.212V279H65.4589V272H66.2429L66.4529 272.854H66.5089C66.7329 272.555 67.0315 272.313 67.4049 272.126C67.7875 271.93 68.2402 271.832 68.7629 271.832C69.1455 271.832 69.4815 271.879 69.7709 271.972C70.0602 272.056 70.2982 272.21 70.4849 272.434C70.6809 272.658 70.8255 272.961 70.9189 273.344C71.0215 273.717 71.0729 274.193 71.0729 274.772V279H69.9529ZM72.1911 272H73.2831V270.614L74.4031 270.292V272H76.3071V272.98H74.4031V276.858C74.4031 277.343 74.4638 277.689 74.5851 277.894C74.7064 278.09 74.9118 278.188 75.2011 278.188C75.4438 278.188 75.6491 278.165 75.8171 278.118C75.9851 278.062 76.1718 277.992 76.3771 277.908L76.6291 278.762C76.3771 278.883 76.1018 278.981 75.8031 279.056C75.5044 279.131 75.1824 279.168 74.8371 279.168C74.2678 279.168 73.8664 279.009 73.6331 278.692C73.3998 278.365 73.2831 277.824 73.2831 277.068V272.98H72.1911V272Z" fill="#3F3F3F"/>
<path d="M375.667 269.273L374.727 268.333L371 272.06L367.273 268.333L366.333 269.273L370.06 273L366.333 276.727L367.273 277.667L371 273.94L374.727 277.667L375.667 276.727L371.94 273L375.667 269.273Z" fill="#3F3F3F"/>
<path d="M336.71 475.594C336.43 475.809 336.075 475.958 335.646 476.042C335.217 476.126 334.759 476.168 334.274 476.168C333.686 476.168 333.135 476.07 332.622 475.874C332.109 475.669 331.661 475.361 331.278 474.95C330.895 474.539 330.592 474.017 330.368 473.382C330.144 472.738 330.032 471.977 330.032 471.1C330.032 470.185 330.153 469.411 330.396 468.776C330.648 468.132 330.975 467.609 331.376 467.208C331.787 466.797 332.244 466.499 332.748 466.312C333.252 466.125 333.765 466.032 334.288 466.032C334.848 466.032 335.305 466.065 335.66 466.13C336.015 466.186 336.318 466.265 336.57 466.368L336.29 467.39C335.842 467.175 335.203 467.068 334.372 467.068C333.989 467.068 333.611 467.138 333.238 467.278C332.865 467.418 332.529 467.647 332.23 467.964C331.941 468.281 331.707 468.697 331.53 469.21C331.353 469.723 331.264 470.353 331.264 471.1C331.264 471.772 331.348 472.36 331.516 472.864C331.684 473.368 331.913 473.788 332.202 474.124C332.501 474.46 332.846 474.712 333.238 474.88C333.639 475.048 334.073 475.132 334.54 475.132C334.96 475.132 335.324 475.09 335.632 475.006C335.949 474.922 336.215 474.815 336.43 474.684L336.71 475.594ZM339.57 474.278C339.57 474.605 339.626 474.838 339.738 474.978C339.85 475.118 340.009 475.188 340.214 475.188C340.335 475.188 340.466 475.179 340.606 475.16C340.746 475.141 340.905 475.099 341.082 475.034L341.208 475.916C341.059 475.991 340.849 476.051 340.578 476.098C340.317 476.145 340.088 476.168 339.892 476.168C339.472 476.168 339.127 476.051 338.856 475.818C338.585 475.575 338.45 475.169 338.45 474.6V466.2H339.57V474.278ZM347.522 475.44C347.242 475.664 346.887 475.841 346.458 475.972C346.038 476.103 345.59 476.168 345.114 476.168C344.582 476.168 344.12 476.084 343.728 475.916C343.336 475.739 343.014 475.491 342.762 475.174C342.51 474.847 342.323 474.46 342.202 474.012C342.081 473.564 342.02 473.06 342.02 472.5C342.02 471.305 342.286 470.395 342.818 469.77C343.35 469.145 344.111 468.832 345.1 468.832C345.417 468.832 345.735 468.869 346.052 468.944C346.369 469.009 346.654 469.14 346.906 469.336C347.158 469.532 347.363 469.812 347.522 470.176C347.681 470.531 347.76 471.002 347.76 471.59C347.76 471.898 347.732 472.239 347.676 472.612H343.182C343.182 473.023 343.224 473.387 343.308 473.704C343.392 474.021 343.523 474.292 343.7 474.516C343.877 474.731 344.106 474.899 344.386 475.02C344.675 475.132 345.025 475.188 345.436 475.188C345.753 475.188 346.071 475.132 346.388 475.02C346.705 474.908 346.943 474.777 347.102 474.628L347.522 475.44ZM345.114 469.812C344.563 469.812 344.12 469.957 343.784 470.246C343.457 470.535 343.261 471.03 343.196 471.73H346.668C346.668 471.021 346.533 470.526 346.262 470.246C345.991 469.957 345.609 469.812 345.114 469.812ZM349.409 469.518C349.764 469.303 350.175 469.145 350.641 469.042C351.117 468.939 351.612 468.888 352.125 468.888C352.611 468.888 352.998 468.953 353.287 469.084C353.586 469.215 353.81 469.387 353.959 469.602C354.118 469.807 354.221 470.036 354.267 470.288C354.323 470.54 354.351 470.792 354.351 471.044C354.351 471.604 354.337 472.15 354.309 472.682C354.281 473.214 354.267 473.718 354.267 474.194C354.267 474.539 354.281 474.866 354.309 475.174C354.337 475.482 354.389 475.767 354.463 476.028H353.637L353.343 475.048H353.273C353.189 475.179 353.082 475.309 352.951 475.44C352.83 475.561 352.681 475.673 352.503 475.776C352.326 475.869 352.121 475.949 351.887 476.014C351.654 476.079 351.388 476.112 351.089 476.112C350.791 476.112 350.511 476.065 350.249 475.972C349.997 475.879 349.778 475.748 349.591 475.58C349.405 475.403 349.255 475.193 349.143 474.95C349.041 474.707 348.989 474.432 348.989 474.124C348.989 473.713 349.073 473.373 349.241 473.102C349.409 472.822 349.643 472.603 349.941 472.444C350.249 472.276 350.613 472.159 351.033 472.094C351.463 472.019 351.934 471.982 352.447 471.982C352.578 471.982 352.704 471.982 352.825 471.982C352.956 471.982 353.087 471.991 353.217 472.01C353.245 471.73 353.259 471.478 353.259 471.254C353.259 470.741 353.157 470.381 352.951 470.176C352.746 469.971 352.373 469.868 351.831 469.868C351.673 469.868 351.5 469.882 351.313 469.91C351.136 469.929 350.949 469.961 350.753 470.008C350.567 470.045 350.385 470.097 350.207 470.162C350.039 470.218 349.89 470.283 349.759 470.358L349.409 469.518ZM351.397 475.132C351.659 475.132 351.892 475.099 352.097 475.034C352.303 474.959 352.48 474.871 352.629 474.768C352.779 474.656 352.9 474.535 352.993 474.404C353.096 474.273 353.171 474.147 353.217 474.026V472.864C353.087 472.855 352.951 472.85 352.811 472.85C352.681 472.841 352.55 472.836 352.419 472.836C352.13 472.836 351.845 472.855 351.565 472.892C351.295 472.92 351.052 472.981 350.837 473.074C350.632 473.158 350.464 473.279 350.333 473.438C350.212 473.587 350.151 473.779 350.151 474.012C350.151 474.339 350.268 474.609 350.501 474.824C350.735 475.029 351.033 475.132 351.397 475.132ZM359.771 470.078C359.491 469.985 359.225 469.938 358.973 469.938C358.571 469.938 358.254 470.05 358.021 470.274C357.787 470.489 357.643 470.764 357.587 471.1V476H356.467V469H357.251L357.461 469.854H357.517C357.694 469.537 357.904 469.294 358.147 469.126C358.399 468.949 358.716 468.86 359.099 468.86C359.369 468.86 359.673 468.907 360.009 469L359.771 470.078ZM364.845 469.518C365.2 469.303 365.61 469.145 366.077 469.042C366.553 468.939 367.048 468.888 367.561 468.888C368.046 468.888 368.434 468.953 368.723 469.084C369.022 469.215 369.246 469.387 369.395 469.602C369.554 469.807 369.656 470.036 369.703 470.288C369.759 470.54 369.787 470.792 369.787 471.044C369.787 471.604 369.773 472.15 369.745 472.682C369.717 473.214 369.703 473.718 369.703 474.194C369.703 474.539 369.717 474.866 369.745 475.174C369.773 475.482 369.824 475.767 369.899 476.028H369.073L368.779 475.048H368.709C368.625 475.179 368.518 475.309 368.387 475.44C368.266 475.561 368.116 475.673 367.939 475.776C367.762 475.869 367.556 475.949 367.323 476.014C367.09 476.079 366.824 476.112 366.525 476.112C366.226 476.112 365.946 476.065 365.685 475.972C365.433 475.879 365.214 475.748 365.027 475.58C364.84 475.403 364.691 475.193 364.579 474.95C364.476 474.707 364.425 474.432 364.425 474.124C364.425 473.713 364.509 473.373 364.677 473.102C364.845 472.822 365.078 472.603 365.377 472.444C365.685 472.276 366.049 472.159 366.469 472.094C366.898 472.019 367.37 471.982 367.883 471.982C368.014 471.982 368.14 471.982 368.261 471.982C368.392 471.982 368.522 471.991 368.653 472.01C368.681 471.73 368.695 471.478 368.695 471.254C368.695 470.741 368.592 470.381 368.387 470.176C368.182 469.971 367.808 469.868 367.267 469.868C367.108 469.868 366.936 469.882 366.749 469.91C366.572 469.929 366.385 469.961 366.189 470.008C366.002 470.045 365.82 470.097 365.643 470.162C365.475 470.218 365.326 470.283 365.195 470.358L364.845 469.518ZM366.833 475.132C367.094 475.132 367.328 475.099 367.533 475.034C367.738 474.959 367.916 474.871 368.065 474.768C368.214 474.656 368.336 474.535 368.429 474.404C368.532 474.273 368.606 474.147 368.653 474.026V472.864C368.522 472.855 368.387 472.85 368.247 472.85C368.116 472.841 367.986 472.836 367.855 472.836C367.566 472.836 367.281 472.855 367.001 472.892C366.73 472.92 366.488 472.981 366.273 473.074C366.068 473.158 365.9 473.279 365.769 473.438C365.648 473.587 365.587 473.779 365.587 474.012C365.587 474.339 365.704 474.609 365.937 474.824C366.17 475.029 366.469 475.132 366.833 475.132ZM373.148 474.278C373.148 474.605 373.204 474.838 373.316 474.978C373.428 475.118 373.587 475.188 373.792 475.188C373.914 475.188 374.044 475.179 374.184 475.16C374.324 475.141 374.483 475.099 374.66 475.034L374.786 475.916C374.637 475.991 374.427 476.051 374.156 476.098C373.895 476.145 373.666 476.168 373.47 476.168C373.05 476.168 372.705 476.051 372.434 475.818C372.164 475.575 372.028 475.169 372.028 474.6V466.2H373.148V474.278ZM377.236 474.278C377.236 474.605 377.292 474.838 377.404 474.978C377.516 475.118 377.675 475.188 377.88 475.188C378.001 475.188 378.132 475.179 378.272 475.16C378.412 475.141 378.571 475.099 378.748 475.034L378.874 475.916C378.725 475.991 378.515 476.051 378.244 476.098C377.983 476.145 377.754 476.168 377.558 476.168C377.138 476.168 376.793 476.051 376.522 475.818C376.251 475.575 376.116 475.169 376.116 474.6V466.2H377.236V474.278Z" fill="#3F3F3F"/>
</g>
<rect x="182" y="860" width="70" height="3" rx="1.5" fill="#C4C4C4"/>
<rect opacity="0.5" x="192" y="243" width="46" height="3" rx="1.5" fill="#121214"/>
<rect x="26" y="163" width="184" height="64" rx="16" fill="#F4B6B0"/>
<path d="M50 194V196H60V194H50ZM55 185C49.48 185 45 189.48 45 195C45 200.52 49.48 205 55 205C60.52 205 65 200.52 65 195C65 189.48 60.52 185 55 185ZM55 203C50.59 203 47 199.41 47 195C47 190.59 50.59 187 55 187C59.41 187 63 190.59 63 195C63 199.41 59.41 203 55 203Z" fill="#413D4B"/>
<path d="M75.84 190.2C76.036 190.172 76.2553 190.149 76.498 190.13C76.75 190.111 77.0067 190.097 77.268 190.088C77.5293 190.079 77.7813 190.074 78.024 190.074C78.276 190.065 78.5 190.06 78.696 190.06C79.564 190.06 80.306 190.181 80.922 190.424C81.538 190.667 82.0373 191.007 82.42 191.446C82.8027 191.885 83.0827 192.407 83.26 193.014C83.4373 193.621 83.526 194.288 83.526 195.016C83.526 195.679 83.442 196.318 83.274 196.934C83.106 197.55 82.826 198.096 82.434 198.572C82.042 199.048 81.524 199.431 80.88 199.72C80.2453 200.009 79.4567 200.154 78.514 200.154C78.3647 200.154 78.164 200.149 77.912 200.14C77.6693 200.131 77.4127 200.117 77.142 200.098C76.8807 200.089 76.6287 200.075 76.386 200.056C76.1433 200.047 75.9613 200.033 75.84 200.014V190.2ZM78.85 191.768C78.6447 191.768 78.4347 191.773 78.22 191.782C78.0147 191.791 77.8607 191.805 77.758 191.824V198.39C77.7953 198.399 77.856 198.409 77.94 198.418C78.0333 198.418 78.1313 198.423 78.234 198.432C78.3367 198.432 78.4347 198.437 78.528 198.446C78.6213 198.446 78.6913 198.446 78.738 198.446C79.2793 198.446 79.7273 198.353 80.082 198.166C80.446 197.97 80.7307 197.713 80.936 197.396C81.1507 197.079 81.3 196.715 81.384 196.304C81.468 195.884 81.51 195.455 81.51 195.016C81.51 194.633 81.4727 194.251 81.398 193.868C81.3233 193.476 81.1833 193.126 80.978 192.818C80.782 192.51 80.5113 192.258 80.166 192.062C79.8207 191.866 79.382 191.768 78.85 191.768ZM84.5265 196.5C84.5265 195.315 84.8158 194.405 85.3945 193.77C85.9731 193.126 86.7851 192.804 87.8305 192.804C88.3905 192.804 88.8758 192.893 89.2865 193.07C89.6971 193.247 90.0378 193.499 90.3085 193.826C90.5791 194.143 90.7798 194.531 90.9105 194.988C91.0505 195.445 91.1205 195.949 91.1205 196.5C91.1205 197.685 90.8311 198.6 90.2525 199.244C89.6831 199.879 88.8758 200.196 87.8305 200.196C87.2705 200.196 86.7851 200.107 86.3745 199.93C85.9638 199.753 85.6185 199.505 85.3385 199.188C85.0678 198.861 84.8625 198.469 84.7225 198.012C84.5918 197.555 84.5265 197.051 84.5265 196.5ZM86.4025 196.5C86.4025 196.808 86.4305 197.093 86.4865 197.354C86.5425 197.615 86.6265 197.844 86.7385 198.04C86.8505 198.236 86.9951 198.39 87.1725 198.502C87.3591 198.605 87.5785 198.656 87.8305 198.656C88.3065 198.656 88.6611 198.483 88.8945 198.138C89.1278 197.793 89.2445 197.247 89.2445 196.5C89.2445 195.856 89.1371 195.338 88.9225 194.946C88.7078 194.545 88.3438 194.344 87.8305 194.344C87.3825 194.344 87.0325 194.512 86.7805 194.848C86.5285 195.184 86.4025 195.735 86.4025 196.5ZM98.401 194.89L97.631 193.35H97.561L97.785 194.89V200H95.965V190.13H97.365L101.075 195.352L101.817 196.85H101.887L101.663 195.352V190.2H103.483V200.07H102.083L98.401 194.89ZM104.788 196.5C104.788 195.315 105.078 194.405 105.656 193.77C106.235 193.126 107.047 192.804 108.092 192.804C108.652 192.804 109.138 192.893 109.548 193.07C109.959 193.247 110.3 193.499 110.57 193.826C110.841 194.143 111.042 194.531 111.172 194.988C111.312 195.445 111.382 195.949 111.382 196.5C111.382 197.685 111.093 198.6 110.514 199.244C109.945 199.879 109.138 200.196 108.092 200.196C107.532 200.196 107.047 200.107 106.636 199.93C106.226 199.753 105.88 199.505 105.6 199.188C105.33 198.861 105.124 198.469 104.984 198.012C104.854 197.555 104.788 197.051 104.788 196.5ZM106.664 196.5C106.664 196.808 106.692 197.093 106.748 197.354C106.804 197.615 106.888 197.844 107 198.04C107.112 198.236 107.257 198.39 107.434 198.502C107.621 198.605 107.84 198.656 108.092 198.656C108.568 198.656 108.923 198.483 109.156 198.138C109.39 197.793 109.506 197.247 109.506 196.5C109.506 195.856 109.399 195.338 109.184 194.946C108.97 194.545 108.606 194.344 108.092 194.344C107.644 194.344 107.294 194.512 107.042 194.848C106.79 195.184 106.664 195.735 106.664 196.5ZM111.916 193H112.882V191.684L114.702 191.166V193H116.41V194.54H114.702V197.228C114.702 197.713 114.748 198.063 114.842 198.278C114.944 198.483 115.131 198.586 115.402 198.586C115.588 198.586 115.747 198.567 115.878 198.53C116.018 198.493 116.172 198.437 116.34 198.362L116.662 199.762C116.41 199.883 116.116 199.986 115.78 200.07C115.444 200.154 115.103 200.196 114.758 200.196C114.114 200.196 113.638 200.033 113.33 199.706C113.031 199.37 112.882 198.824 112.882 198.068V194.54H111.916V193ZM121.108 190.2C121.304 190.172 121.523 190.149 121.766 190.13C122.018 190.111 122.274 190.097 122.536 190.088C122.797 190.079 123.049 190.074 123.292 190.074C123.544 190.065 123.768 190.06 123.964 190.06C124.832 190.06 125.574 190.181 126.19 190.424C126.806 190.667 127.305 191.007 127.688 191.446C128.07 191.885 128.35 192.407 128.528 193.014C128.705 193.621 128.794 194.288 128.794 195.016C128.794 195.679 128.71 196.318 128.542 196.934C128.374 197.55 128.094 198.096 127.702 198.572C127.31 199.048 126.792 199.431 126.148 199.72C125.513 200.009 124.724 200.154 123.782 200.154C123.632 200.154 123.432 200.149 123.18 200.14C122.937 200.131 122.68 200.117 122.41 200.098C122.148 200.089 121.896 200.075 121.654 200.056C121.411 200.047 121.229 200.033 121.108 200.014V190.2ZM124.118 191.768C123.912 191.768 123.702 191.773 123.488 191.782C123.282 191.791 123.128 191.805 123.026 191.824V198.39C123.063 198.399 123.124 198.409 123.208 198.418C123.301 198.418 123.399 198.423 123.502 198.432C123.604 198.432 123.702 198.437 123.796 198.446C123.889 198.446 123.959 198.446 124.006 198.446C124.547 198.446 124.995 198.353 125.35 198.166C125.714 197.97 125.998 197.713 126.204 197.396C126.418 197.079 126.568 196.715 126.652 196.304C126.736 195.884 126.778 195.455 126.778 195.016C126.778 194.633 126.74 194.251 126.666 193.868C126.591 193.476 126.451 193.126 126.246 192.818C126.05 192.51 125.779 192.258 125.434 192.062C125.088 191.866 124.65 191.768 124.118 191.768ZM130.284 193H132.104V200H130.284V193ZM130.018 191.026C130.018 190.755 130.116 190.527 130.312 190.34C130.517 190.144 130.797 190.046 131.152 190.046C131.507 190.046 131.791 190.144 132.006 190.34C132.23 190.527 132.342 190.755 132.342 191.026C132.342 191.297 132.23 191.525 132.006 191.712C131.791 191.889 131.507 191.978 131.152 191.978C130.797 191.978 130.517 191.889 130.312 191.712C130.116 191.525 130.018 191.297 130.018 191.026ZM136.788 198.068C136.788 197.881 136.708 197.732 136.55 197.62C136.391 197.508 136.195 197.405 135.962 197.312C135.728 197.219 135.472 197.125 135.192 197.032C134.912 196.929 134.655 196.794 134.422 196.626C134.188 196.449 133.992 196.229 133.834 195.968C133.675 195.697 133.596 195.352 133.596 194.932C133.596 194.241 133.801 193.714 134.212 193.35C134.622 192.986 135.215 192.804 135.99 192.804C136.522 192.804 137.002 192.86 137.432 192.972C137.861 193.084 138.197 193.21 138.44 193.35L138.034 194.666C137.819 194.582 137.548 194.493 137.222 194.4C136.895 194.307 136.564 194.26 136.228 194.26C135.686 194.26 135.416 194.47 135.416 194.89C135.416 195.058 135.495 195.193 135.654 195.296C135.812 195.399 136.008 195.497 136.242 195.59C136.475 195.674 136.732 195.767 137.012 195.87C137.292 195.973 137.548 196.108 137.782 196.276C138.015 196.435 138.211 196.645 138.37 196.906C138.528 197.167 138.608 197.503 138.608 197.914C138.608 198.623 138.379 199.183 137.922 199.594C137.474 199.995 136.797 200.196 135.892 200.196C135.397 200.196 134.93 200.131 134.492 200C134.062 199.879 133.712 199.734 133.442 199.566L133.946 198.208C134.16 198.329 134.445 198.451 134.8 198.572C135.154 198.684 135.518 198.74 135.892 198.74C136.162 198.74 136.377 198.689 136.536 198.586C136.704 198.483 136.788 198.311 136.788 198.068ZM139.068 193H140.034V191.684L141.854 191.166V193H143.562V194.54H141.854V197.228C141.854 197.713 141.901 198.063 141.994 198.278C142.097 198.483 142.283 198.586 142.554 198.586C142.741 198.586 142.899 198.567 143.03 198.53C143.17 198.493 143.324 198.437 143.492 198.362L143.814 199.762C143.562 199.883 143.268 199.986 142.932 200.07C142.596 200.154 142.255 200.196 141.91 200.196C141.266 200.196 140.79 200.033 140.482 199.706C140.183 199.37 140.034 198.824 140.034 198.068V194.54H139.068V193ZM146.427 193V196.976C146.427 197.545 146.492 197.956 146.623 198.208C146.763 198.46 147.029 198.586 147.421 198.586C147.766 198.586 148.051 198.483 148.275 198.278C148.508 198.073 148.681 197.821 148.793 197.522V193H150.613V197.872C150.613 198.255 150.632 198.633 150.669 199.006C150.706 199.37 150.762 199.701 150.837 200H149.465L149.143 198.964H149.087C148.872 199.319 148.574 199.613 148.191 199.846C147.808 200.079 147.356 200.196 146.833 200.196C146.478 200.196 146.161 200.149 145.881 200.056C145.601 199.963 145.368 199.809 145.181 199.594C144.994 199.379 144.85 199.09 144.747 198.726C144.654 198.362 144.607 197.905 144.607 197.354V193H146.427ZM156.074 194.708C155.785 194.605 155.523 194.554 155.29 194.554C154.963 194.554 154.688 194.643 154.464 194.82C154.249 194.988 154.105 195.207 154.03 195.478V200H152.21V193H153.624L153.834 193.924H153.89C154.049 193.579 154.263 193.313 154.534 193.126C154.805 192.939 155.122 192.846 155.486 192.846C155.729 192.846 156.004 192.897 156.312 193L156.074 194.708ZM157.118 190.2H158.938V193.56H158.994C159.19 193.336 159.442 193.159 159.75 193.028C160.058 192.897 160.399 192.832 160.772 192.832C161.612 192.832 162.252 193.121 162.69 193.7C163.138 194.269 163.362 195.142 163.362 196.318C163.362 197.578 163.05 198.535 162.424 199.188C161.808 199.841 160.959 200.168 159.876 200.168C159.279 200.168 158.733 200.117 158.238 200.014C157.744 199.921 157.37 199.813 157.118 199.692V190.2ZM160.24 194.372C159.904 194.372 159.629 194.461 159.414 194.638C159.209 194.806 159.05 195.053 158.938 195.38V198.432C159.088 198.507 159.246 198.558 159.414 198.586C159.592 198.614 159.778 198.628 159.974 198.628C160.469 198.628 160.842 198.451 161.094 198.096C161.356 197.732 161.486 197.158 161.486 196.374C161.486 195.039 161.071 194.372 160.24 194.372Z" fill="#413D4B"/>
<rect x="26" y="91" width="184" height="64" rx="16" fill="#DA7E70"/>
<g clip-path="url(#clip1_102_450)">
<path d="M66.8059 118.868C67.1334 118.492 67.1356 117.929 66.7905 117.569C65.3444 116.059 63.6806 114.845 61.8715 113.984C59.8126 113.004 57.6058 112.5 55.3772 112.5C53.1486 112.5 50.9418 113.004 48.8828 113.984C47.0738 114.845 45.41 116.059 43.9639 117.569C43.6188 117.929 43.621 118.492 43.9485 118.868L55.3772 132L66.8059 118.868Z" fill="white"/>
</g>
<path d="M75.84 118.2H81.65V119.908H77.758V122.33H81.342V124.038H77.758V128H75.84V118.2ZM84.6574 121V124.976C84.6574 125.545 84.7227 125.956 84.8534 126.208C84.9934 126.46 85.2594 126.586 85.6514 126.586C85.9967 126.586 86.2814 126.483 86.5054 126.278C86.7387 126.073 86.9114 125.821 87.0234 125.522V121H88.8434V125.872C88.8434 126.255 88.862 126.633 88.8994 127.006C88.9367 127.37 88.9927 127.701 89.0674 128H87.6954L87.3734 126.964H87.3174C87.1027 127.319 86.804 127.613 86.4214 127.846C86.0387 128.079 85.586 128.196 85.0634 128.196C84.7087 128.196 84.3914 128.149 84.1114 128.056C83.8314 127.963 83.598 127.809 83.4114 127.594C83.2247 127.379 83.08 127.09 82.9774 126.726C82.884 126.362 82.8374 125.905 82.8374 125.354V121H84.6574ZM93.3386 126.068C93.3386 125.881 93.2592 125.732 93.1006 125.62C92.9419 125.508 92.7459 125.405 92.5126 125.312C92.2792 125.219 92.0226 125.125 91.7426 125.032C91.4626 124.929 91.2059 124.794 90.9726 124.626C90.7392 124.449 90.5432 124.229 90.3846 123.968C90.2259 123.697 90.1466 123.352 90.1466 122.932C90.1466 122.241 90.3519 121.714 90.7626 121.35C91.1732 120.986 91.7659 120.804 92.5406 120.804C93.0726 120.804 93.5532 120.86 93.9826 120.972C94.4119 121.084 94.7479 121.21 94.9906 121.35L94.5846 122.666C94.3699 122.582 94.0992 122.493 93.7726 122.4C93.4459 122.307 93.1146 122.26 92.7786 122.26C92.2372 122.26 91.9666 122.47 91.9666 122.89C91.9666 123.058 92.0459 123.193 92.2046 123.296C92.3632 123.399 92.5592 123.497 92.7926 123.59C93.0259 123.674 93.2826 123.767 93.5626 123.87C93.8426 123.973 94.0992 124.108 94.3326 124.276C94.5659 124.435 94.7619 124.645 94.9206 124.906C95.0792 125.167 95.1586 125.503 95.1586 125.914C95.1586 126.623 94.9299 127.183 94.4726 127.594C94.0246 127.995 93.3479 128.196 92.4426 128.196C91.9479 128.196 91.4812 128.131 91.0426 128C90.6132 127.879 90.2632 127.734 89.9926 127.566L90.4966 126.208C90.7112 126.329 90.9959 126.451 91.3506 126.572C91.7052 126.684 92.0692 126.74 92.4426 126.74C92.7132 126.74 92.9279 126.689 93.0866 126.586C93.2546 126.483 93.3386 126.311 93.3386 126.068ZM96.5008 121H98.3208V128H96.5008V121ZM96.2348 119.026C96.2348 118.755 96.3328 118.527 96.5288 118.34C96.7342 118.144 97.0142 118.046 97.3688 118.046C97.7235 118.046 98.0082 118.144 98.2228 118.34C98.4468 118.527 98.5588 118.755 98.5588 119.026C98.5588 119.297 98.4468 119.525 98.2228 119.712C98.0082 119.889 97.7235 119.978 97.3688 119.978C97.0142 119.978 96.7342 119.889 96.5288 119.712C96.3328 119.525 96.2348 119.297 96.2348 119.026ZM99.7706 124.5C99.7706 123.315 100.06 122.405 100.639 121.77C101.217 121.126 102.029 120.804 103.075 120.804C103.635 120.804 104.12 120.893 104.531 121.07C104.941 121.247 105.282 121.499 105.553 121.826C105.823 122.143 106.024 122.531 106.155 122.988C106.295 123.445 106.365 123.949 106.365 124.5C106.365 125.685 106.075 126.6 105.497 127.244C104.927 127.879 104.12 128.196 103.075 128.196C102.515 128.196 102.029 128.107 101.619 127.93C101.208 127.753 100.863 127.505 100.583 127.188C100.312 126.861 100.107 126.469 99.9666 126.012C99.8359 125.555 99.7706 125.051 99.7706 124.5ZM101.647 124.5C101.647 124.808 101.675 125.093 101.731 125.354C101.787 125.615 101.871 125.844 101.983 126.04C102.095 126.236 102.239 126.39 102.417 126.502C102.603 126.605 102.823 126.656 103.075 126.656C103.551 126.656 103.905 126.483 104.139 126.138C104.372 125.793 104.489 125.247 104.489 124.5C104.489 123.856 104.381 123.338 104.167 122.946C103.952 122.545 103.588 122.344 103.075 122.344C102.627 122.344 102.277 122.512 102.025 122.848C101.773 123.184 101.647 123.735 101.647 124.5ZM111.91 128V124.024C111.91 123.455 111.826 123.044 111.658 122.792C111.499 122.54 111.224 122.414 110.832 122.414C110.487 122.414 110.193 122.517 109.95 122.722C109.717 122.918 109.549 123.165 109.446 123.464V128H107.626V121H109.068L109.278 121.924H109.334C109.549 121.625 109.833 121.364 110.188 121.14C110.543 120.916 111 120.804 111.56 120.804C111.905 120.804 112.213 120.851 112.484 120.944C112.755 121.037 112.983 121.191 113.17 121.406C113.357 121.621 113.497 121.915 113.59 122.288C113.683 122.652 113.73 123.105 113.73 123.646V128H111.91ZM115.213 123.17H118.727V124.78H115.213V123.17ZM120.034 123.1C120.034 121.467 120.393 120.211 121.112 119.334C121.831 118.447 122.857 118.004 124.192 118.004C124.892 118.004 125.503 118.125 126.026 118.368C126.549 118.611 126.983 118.956 127.328 119.404C127.673 119.852 127.93 120.389 128.098 121.014C128.266 121.639 128.35 122.335 128.35 123.1C128.35 124.733 127.986 125.993 127.258 126.88C126.539 127.757 125.517 128.196 124.192 128.196C123.483 128.196 122.867 128.075 122.344 127.832C121.821 127.589 121.387 127.244 121.042 126.796C120.706 126.348 120.454 125.811 120.286 125.186C120.118 124.561 120.034 123.865 120.034 123.1ZM122.05 123.1C122.05 123.595 122.092 124.052 122.176 124.472C122.26 124.883 122.386 125.237 122.554 125.536C122.731 125.835 122.955 126.068 123.226 126.236C123.497 126.404 123.819 126.488 124.192 126.488C124.873 126.488 125.401 126.222 125.774 125.69C126.147 125.158 126.334 124.295 126.334 123.1C126.334 122.624 126.292 122.181 126.208 121.77C126.133 121.359 126.012 121 125.844 120.692C125.676 120.384 125.457 120.146 125.186 119.978C124.915 119.801 124.584 119.712 124.192 119.712C123.511 119.712 122.983 119.987 122.61 120.538C122.237 121.079 122.05 121.933 122.05 123.1ZM133.949 125.368C133.949 125.069 133.837 124.827 133.613 124.64C133.398 124.453 133.123 124.285 132.787 124.136C132.46 123.977 132.101 123.819 131.709 123.66C131.326 123.492 130.967 123.291 130.631 123.058C130.304 122.815 130.029 122.517 129.805 122.162C129.59 121.807 129.483 121.355 129.483 120.804C129.483 120.328 129.562 119.917 129.721 119.572C129.88 119.217 130.104 118.923 130.393 118.69C130.692 118.457 131.042 118.284 131.443 118.172C131.844 118.06 132.292 118.004 132.787 118.004C133.356 118.004 133.893 118.055 134.397 118.158C134.901 118.251 135.316 118.391 135.643 118.578L135.041 120.188C134.836 120.057 134.528 119.941 134.117 119.838C133.706 119.726 133.263 119.67 132.787 119.67C132.339 119.67 131.994 119.759 131.751 119.936C131.518 120.113 131.401 120.351 131.401 120.65C131.401 120.93 131.508 121.163 131.723 121.35C131.947 121.537 132.222 121.709 132.549 121.868C132.885 122.027 133.244 122.19 133.627 122.358C134.019 122.526 134.378 122.731 134.705 122.974C135.041 123.207 135.316 123.501 135.531 123.856C135.755 124.201 135.867 124.635 135.867 125.158C135.867 125.681 135.778 126.133 135.601 126.516C135.433 126.889 135.19 127.202 134.873 127.454C134.565 127.706 134.187 127.893 133.739 128.014C133.3 128.135 132.815 128.196 132.283 128.196C131.583 128.196 130.967 128.131 130.435 128C129.903 127.869 129.511 127.739 129.259 127.608L129.875 125.97C129.978 126.026 130.108 126.087 130.267 126.152C130.435 126.217 130.622 126.278 130.827 126.334C131.032 126.39 131.247 126.437 131.471 126.474C131.704 126.511 131.942 126.53 132.185 126.53C132.754 126.53 133.188 126.437 133.487 126.25C133.795 126.054 133.949 125.76 133.949 125.368Z" fill="white"/>
<rect x="218" y="91" width="187" height="64" rx="16" fill="#DA7E70"/>
<path d="M240 118L252 128L246 133V113L252 118L240 128" stroke="white" stroke-width="2" stroke-linecap="round" stroke-linejoin="round"/>
<path d="M274.434 120.482C274.434 120.725 274.401 120.967 274.336 121.21C274.28 121.453 274.182 121.677 274.042 121.882C273.902 122.078 273.72 122.255 273.496 122.414C273.272 122.563 273.001 122.675 272.684 122.75V122.834C272.964 122.881 273.23 122.96 273.482 123.072C273.734 123.184 273.953 123.338 274.14 123.534C274.327 123.73 274.471 123.968 274.574 124.248C274.686 124.528 274.742 124.859 274.742 125.242C274.742 125.746 274.635 126.185 274.42 126.558C274.205 126.922 273.916 127.221 273.552 127.454C273.197 127.687 272.791 127.86 272.334 127.972C271.877 128.084 271.405 128.14 270.92 128.14C270.761 128.14 270.556 128.14 270.304 128.14C270.061 128.14 269.795 128.131 269.506 128.112C269.226 128.103 268.937 128.084 268.638 128.056C268.349 128.028 268.083 127.986 267.84 127.93V118.27C268.017 118.242 268.218 118.214 268.442 118.186C268.675 118.158 268.923 118.135 269.184 118.116C269.445 118.097 269.711 118.083 269.982 118.074C270.262 118.065 270.537 118.06 270.808 118.06C271.265 118.06 271.709 118.097 272.138 118.172C272.577 118.237 272.964 118.359 273.3 118.536C273.645 118.713 273.921 118.961 274.126 119.278C274.331 119.595 274.434 119.997 274.434 120.482ZM270.934 126.558C271.167 126.558 271.391 126.53 271.606 126.474C271.83 126.418 272.026 126.334 272.194 126.222C272.362 126.101 272.497 125.951 272.6 125.774C272.703 125.597 272.754 125.387 272.754 125.144C272.754 124.836 272.693 124.593 272.572 124.416C272.451 124.239 272.292 124.103 272.096 124.01C271.9 123.907 271.681 123.842 271.438 123.814C271.195 123.786 270.953 123.772 270.71 123.772H269.688V126.474C269.735 126.493 269.809 126.507 269.912 126.516C270.015 126.525 270.122 126.535 270.234 126.544C270.355 126.544 270.477 126.549 270.598 126.558C270.729 126.558 270.841 126.558 270.934 126.558ZM270.304 122.316C270.435 122.316 270.584 122.311 270.752 122.302C270.929 122.293 271.074 122.279 271.186 122.26C271.541 122.148 271.844 121.98 272.096 121.756C272.357 121.532 272.488 121.238 272.488 120.874C272.488 120.631 272.441 120.431 272.348 120.272C272.255 120.113 272.129 119.987 271.97 119.894C271.821 119.801 271.648 119.735 271.452 119.698C271.256 119.661 271.051 119.642 270.836 119.642C270.593 119.642 270.369 119.647 270.164 119.656C269.959 119.665 269.8 119.679 269.688 119.698V122.316H270.304ZM277.945 125.648C277.945 125.975 277.987 126.213 278.071 126.362C278.155 126.511 278.291 126.586 278.477 126.586C278.589 126.586 278.697 126.577 278.799 126.558C278.911 126.539 279.047 126.497 279.205 126.432L279.401 127.86C279.252 127.935 279.023 128.009 278.715 128.084C278.407 128.159 278.09 128.196 277.763 128.196C277.231 128.196 276.825 128.075 276.545 127.832C276.265 127.58 276.125 127.169 276.125 126.6V118.2H277.945V125.648ZM281.935 121V124.976C281.935 125.545 282 125.956 282.131 126.208C282.271 126.46 282.537 126.586 282.929 126.586C283.274 126.586 283.559 126.483 283.783 126.278C284.016 126.073 284.189 125.821 284.301 125.522V121H286.121V125.872C286.121 126.255 286.139 126.633 286.177 127.006C286.214 127.37 286.27 127.701 286.345 128H284.973L284.651 126.964H284.595C284.38 127.319 284.081 127.613 283.699 127.846C283.316 128.079 282.863 128.196 282.341 128.196C281.986 128.196 281.669 128.149 281.389 128.056C281.109 127.963 280.875 127.809 280.689 127.594C280.502 127.379 280.357 127.09 280.255 126.726C280.161 126.362 280.115 125.905 280.115 125.354V121H281.935ZM293.318 127.398C293.038 127.622 292.655 127.813 292.17 127.972C291.694 128.121 291.185 128.196 290.644 128.196C289.515 128.196 288.689 127.869 288.166 127.216C287.643 126.553 287.382 125.648 287.382 124.5C287.382 123.268 287.676 122.344 288.264 121.728C288.852 121.112 289.678 120.804 290.742 120.804C291.097 120.804 291.442 120.851 291.778 120.944C292.114 121.037 292.413 121.191 292.674 121.406C292.935 121.621 293.145 121.91 293.304 122.274C293.463 122.638 293.542 123.091 293.542 123.632C293.542 123.828 293.528 124.038 293.5 124.262C293.481 124.486 293.449 124.719 293.402 124.962H289.202C289.23 125.55 289.379 125.993 289.65 126.292C289.93 126.591 290.378 126.74 290.994 126.74C291.377 126.74 291.717 126.684 292.016 126.572C292.324 126.451 292.557 126.329 292.716 126.208L293.318 127.398ZM290.714 122.26C290.238 122.26 289.883 122.405 289.65 122.694C289.426 122.974 289.291 123.352 289.244 123.828H291.848C291.885 123.324 291.806 122.937 291.61 122.666C291.423 122.395 291.125 122.26 290.714 122.26ZM294.099 121H295.065V119.684L296.885 119.166V121H298.593V122.54H296.885V125.228C296.885 125.713 296.932 126.063 297.025 126.278C297.128 126.483 297.315 126.586 297.585 126.586C297.772 126.586 297.931 126.567 298.061 126.53C298.201 126.493 298.355 126.437 298.523 126.362L298.845 127.762C298.593 127.883 298.299 127.986 297.963 128.07C297.627 128.154 297.287 128.196 296.941 128.196C296.297 128.196 295.821 128.033 295.513 127.706C295.215 127.37 295.065 126.824 295.065 126.068V122.54H294.099V121ZM299.304 124.5C299.304 123.315 299.593 122.405 300.172 121.77C300.75 121.126 301.562 120.804 302.608 120.804C303.168 120.804 303.653 120.893 304.064 121.07C304.474 121.247 304.815 121.499 305.086 121.826C305.356 122.143 305.557 122.531 305.688 122.988C305.828 123.445 305.898 123.949 305.898 124.5C305.898 125.685 305.608 126.6 305.03 127.244C304.46 127.879 303.653 128.196 302.608 128.196C302.048 128.196 301.562 128.107 301.152 127.93C300.741 127.753 300.396 127.505 300.116 127.188C299.845 126.861 299.64 126.469 299.5 126.012C299.369 125.555 299.304 125.051 299.304 124.5ZM301.18 124.5C301.18 124.808 301.208 125.093 301.264 125.354C301.32 125.615 301.404 125.844 301.516 126.04C301.628 126.236 301.772 126.39 301.95 126.502C302.136 126.605 302.356 126.656 302.608 126.656C303.084 126.656 303.438 126.483 303.672 126.138C303.905 125.793 304.022 125.247 304.022 124.5C304.022 123.856 303.914 123.338 303.7 122.946C303.485 122.545 303.121 122.344 302.608 122.344C302.16 122.344 301.81 122.512 301.558 122.848C301.306 123.184 301.18 123.735 301.18 124.5ZM306.823 124.5C306.823 123.315 307.113 122.405 307.691 121.77C308.27 121.126 309.082 120.804 310.127 120.804C310.687 120.804 311.173 120.893 311.583 121.07C311.994 121.247 312.335 121.499 312.605 121.826C312.876 122.143 313.077 122.531 313.207 122.988C313.347 123.445 313.417 123.949 313.417 124.5C313.417 125.685 313.128 126.6 312.549 127.244C311.98 127.879 311.173 128.196 310.127 128.196C309.567 128.196 309.082 128.107 308.671 127.93C308.261 127.753 307.915 127.505 307.635 127.188C307.365 126.861 307.159 126.469 307.019 126.012C306.889 125.555 306.823 125.051 306.823 124.5ZM308.699 124.5C308.699 124.808 308.727 125.093 308.783 125.354C308.839 125.615 308.923 125.844 309.035 126.04C309.147 126.236 309.292 126.39 309.469 126.502C309.656 126.605 309.875 126.656 310.127 126.656C310.603 126.656 310.958 126.483 311.191 126.138C311.425 125.793 311.541 125.247 311.541 124.5C311.541 123.856 311.434 123.338 311.219 122.946C311.005 122.545 310.641 122.344 310.127 122.344C309.679 122.344 309.329 122.512 309.077 122.848C308.825 123.184 308.699 123.735 308.699 124.5ZM313.951 121H314.917V119.684L316.737 119.166V121H318.445V122.54H316.737V125.228C316.737 125.713 316.784 126.063 316.877 126.278C316.98 126.483 317.166 126.586 317.437 126.586C317.624 126.586 317.782 126.567 317.913 126.53C318.053 126.493 318.207 126.437 318.375 126.362L318.697 127.762C318.445 127.883 318.151 127.986 317.815 128.07C317.479 128.154 317.138 128.196 316.793 128.196C316.149 128.196 315.673 128.033 315.365 127.706C315.066 127.37 314.917 126.824 314.917 126.068V122.54H313.951V121ZM323.844 128V124.024C323.844 123.455 323.764 123.044 323.606 122.792C323.447 122.54 323.158 122.414 322.738 122.414C322.43 122.414 322.145 122.521 321.884 122.736C321.632 122.941 321.464 123.207 321.38 123.534V128H319.56V118.2H321.38V121.784H321.436C321.66 121.485 321.935 121.247 322.262 121.07C322.588 120.893 323.004 120.804 323.508 120.804C323.862 120.804 324.175 120.851 324.446 120.944C324.716 121.037 324.94 121.191 325.118 121.406C325.304 121.621 325.44 121.915 325.524 122.288C325.617 122.652 325.664 123.105 325.664 123.646V128H323.844Z" fill="white"/>
<rect x="218" y="163" width="187" height="64" rx="16" fill="#F4B6B0"/>
<path d="M253 185H241V191L243 194V205H251V194L253 191V185ZM251 187V188H243V187H251ZM249 193.4V203H245V193.39L243 190.39V190H251V190.39L249 193.4V193.4Z" fill="#413D4B"/>
<path d="M247 198.5C247.828 198.5 248.5 197.828 248.5 197C248.5 196.172 247.828 195.5 247 195.5C246.172 195.5 245.5 196.172 245.5 197C245.5 197.828 246.172 198.5 247 198.5Z" fill="#413D4B"/>
<path d="M267.84 190.2H273.65V191.908H269.758V194.33H273.342V196.038H269.758V200H267.84V190.2ZM276.783 197.648C276.783 197.975 276.825 198.213 276.909 198.362C276.993 198.511 277.129 198.586 277.315 198.586C277.427 198.586 277.535 198.577 277.637 198.558C277.749 198.539 277.885 198.497 278.043 198.432L278.239 199.86C278.09 199.935 277.861 200.009 277.553 200.084C277.245 200.159 276.928 200.196 276.601 200.196C276.069 200.196 275.663 200.075 275.383 199.832C275.103 199.58 274.963 199.169 274.963 198.6V190.2H276.783V197.648ZM278.981 193.406C279.354 193.238 279.797 193.107 280.311 193.014C280.824 192.911 281.361 192.86 281.921 192.86C282.406 192.86 282.812 192.921 283.139 193.042C283.465 193.154 283.722 193.317 283.909 193.532C284.105 193.747 284.24 194.003 284.315 194.302C284.399 194.601 284.441 194.937 284.441 195.31C284.441 195.721 284.427 196.136 284.399 196.556C284.371 196.967 284.352 197.373 284.343 197.774C284.343 198.175 284.357 198.567 284.385 198.95C284.413 199.323 284.483 199.678 284.595 200.014H283.111L282.817 199.048H282.747C282.56 199.337 282.299 199.589 281.963 199.804C281.636 200.009 281.211 200.112 280.689 200.112C280.362 200.112 280.068 200.065 279.807 199.972C279.545 199.869 279.321 199.729 279.135 199.552C278.948 199.365 278.803 199.151 278.701 198.908C278.598 198.656 278.547 198.376 278.547 198.068C278.547 197.639 278.64 197.279 278.827 196.99C279.023 196.691 279.298 196.453 279.653 196.276C280.017 196.089 280.446 195.963 280.941 195.898C281.445 195.823 282.005 195.8 282.621 195.828C282.686 195.305 282.649 194.932 282.509 194.708C282.369 194.475 282.056 194.358 281.571 194.358C281.207 194.358 280.819 194.395 280.409 194.47C280.007 194.545 279.676 194.643 279.415 194.764L278.981 193.406ZM281.291 198.614C281.655 198.614 281.944 198.535 282.159 198.376C282.373 198.208 282.532 198.031 282.635 197.844V196.934C282.345 196.906 282.065 196.901 281.795 196.92C281.533 196.939 281.3 196.981 281.095 197.046C280.889 197.111 280.726 197.205 280.605 197.326C280.483 197.447 280.423 197.601 280.423 197.788C280.423 198.049 280.497 198.255 280.647 198.404C280.805 198.544 281.02 198.614 281.291 198.614ZM288.866 198.068C288.866 197.881 288.787 197.732 288.628 197.62C288.469 197.508 288.273 197.405 288.04 197.312C287.807 197.219 287.55 197.125 287.27 197.032C286.99 196.929 286.733 196.794 286.5 196.626C286.267 196.449 286.071 196.229 285.912 195.968C285.753 195.697 285.674 195.352 285.674 194.932C285.674 194.241 285.879 193.714 286.29 193.35C286.701 192.986 287.293 192.804 288.068 192.804C288.6 192.804 289.081 192.86 289.51 192.972C289.939 193.084 290.275 193.21 290.518 193.35L290.112 194.666C289.897 194.582 289.627 194.493 289.3 194.4C288.973 194.307 288.642 194.26 288.306 194.26C287.765 194.26 287.494 194.47 287.494 194.89C287.494 195.058 287.573 195.193 287.732 195.296C287.891 195.399 288.087 195.497 288.32 195.59C288.553 195.674 288.81 195.767 289.09 195.87C289.37 195.973 289.627 196.108 289.86 196.276C290.093 196.435 290.289 196.645 290.448 196.906C290.607 197.167 290.686 197.503 290.686 197.914C290.686 198.623 290.457 199.183 290 199.594C289.552 199.995 288.875 200.196 287.97 200.196C287.475 200.196 287.009 200.131 286.57 200C286.141 199.879 285.791 199.734 285.52 199.566L286.024 198.208C286.239 198.329 286.523 198.451 286.878 198.572C287.233 198.684 287.597 198.74 287.97 198.74C288.241 198.74 288.455 198.689 288.614 198.586C288.782 198.483 288.866 198.311 288.866 198.068ZM296.158 200V196.024C296.158 195.455 296.079 195.044 295.92 194.792C295.762 194.54 295.472 194.414 295.052 194.414C294.744 194.414 294.46 194.521 294.198 194.736C293.946 194.941 293.778 195.207 293.694 195.534V200H291.874V190.2H293.694V193.784H293.75C293.974 193.485 294.25 193.247 294.576 193.07C294.903 192.893 295.318 192.804 295.822 192.804C296.177 192.804 296.49 192.851 296.76 192.944C297.031 193.037 297.255 193.191 297.432 193.406C297.619 193.621 297.754 193.915 297.838 194.288C297.932 194.652 297.978 195.105 297.978 195.646V200H296.158ZM301.379 197.648C301.379 197.975 301.421 198.213 301.505 198.362C301.589 198.511 301.724 198.586 301.911 198.586C302.023 198.586 302.13 198.577 302.233 198.558C302.345 198.539 302.48 198.497 302.639 198.432L302.835 199.86C302.686 199.935 302.457 200.009 302.149 200.084C301.841 200.159 301.524 200.196 301.197 200.196C300.665 200.196 300.259 200.075 299.979 199.832C299.699 199.58 299.559 199.169 299.559 198.6V190.2H301.379V197.648ZM303.772 193H305.592V200H303.772V193ZM303.506 191.026C303.506 190.755 303.604 190.527 303.8 190.34C304.006 190.144 304.286 190.046 304.64 190.046C304.995 190.046 305.28 190.144 305.494 190.34C305.718 190.527 305.83 190.755 305.83 191.026C305.83 191.297 305.718 191.525 305.494 191.712C305.28 191.889 304.995 191.978 304.64 191.978C304.286 191.978 304.006 191.889 303.8 191.712C303.604 191.525 303.506 191.297 303.506 191.026ZM313.3 200C313.3 201.017 313.025 201.764 312.474 202.24C311.923 202.725 311.153 202.968 310.164 202.968C309.492 202.968 308.96 202.921 308.568 202.828C308.185 202.735 307.896 202.637 307.7 202.534L308.078 201.092C308.293 201.176 308.54 201.26 308.82 201.344C309.109 201.428 309.464 201.47 309.884 201.47C310.519 201.47 310.948 201.33 311.172 201.05C311.405 200.779 311.522 200.397 311.522 199.902V199.454H311.466C311.139 199.893 310.561 200.112 309.73 200.112C308.825 200.112 308.148 199.832 307.7 199.272C307.261 198.712 307.042 197.835 307.042 196.64C307.042 195.389 307.341 194.442 307.938 193.798C308.535 193.154 309.403 192.832 310.542 192.832C311.139 192.832 311.671 192.874 312.138 192.958C312.614 193.042 313.001 193.14 313.3 193.252V200ZM310.22 198.656C310.575 198.656 310.845 198.577 311.032 198.418C311.228 198.259 311.377 198.021 311.48 197.704V194.554C311.191 194.433 310.831 194.372 310.402 194.372C309.935 194.372 309.571 194.549 309.31 194.904C309.049 195.249 308.918 195.805 308.918 196.57C308.918 197.251 309.03 197.769 309.254 198.124C309.478 198.479 309.8 198.656 310.22 198.656ZM319.168 200V196.024C319.168 195.455 319.089 195.044 318.93 194.792C318.771 194.54 318.482 194.414 318.062 194.414C317.754 194.414 317.469 194.521 317.208 194.736C316.956 194.941 316.788 195.207 316.704 195.534V200H314.884V190.2H316.704V193.784H316.76C316.984 193.485 317.259 193.247 317.586 193.07C317.913 192.893 318.328 192.804 318.832 192.804C319.187 192.804 319.499 192.851 319.77 192.944C320.041 193.037 320.265 193.191 320.442 193.406C320.629 193.621 320.764 193.915 320.848 194.288C320.941 194.652 320.988 195.105 320.988 195.646V200H319.168ZM321.785 193H322.751V191.684L324.571 191.166V193H326.279V194.54H324.571V197.228C324.571 197.713 324.618 198.063 324.711 198.278C324.814 198.483 325 198.586 325.271 198.586C325.458 198.586 325.616 198.567 325.747 198.53C325.887 198.493 326.041 198.437 326.209 198.362L326.531 199.762C326.279 199.883 325.985 199.986 325.649 200.07C325.313 200.154 324.972 200.196 324.627 200.196C323.983 200.196 323.507 200.033 323.199 199.706C322.9 199.37 322.751 198.824 322.751 198.068V194.54H321.785V193Z" fill="#413D4B"/>
<rect width="411" height="48" transform="translate(10 10)" fill="#FEF9F7"/>
<circle cx="54.5" cy="34.5" r="14.5" fill="#323232"/>
<circle cx="54.5" cy="34.5" r="6.5" fill="url(#paint0_radial_102_450)"/>
<path d="M377.17 31.4918C377.531 31.107 377.534 30.5047 377.145 30.148C376.165 29.2481 375.055 28.519 373.856 27.9896C372.376 27.3363 370.791 27 369.189 27C367.588 27 366.002 27.3363 364.523 27.9896C363.324 28.519 362.214 29.2481 361.233 30.148C360.845 30.5047 360.847 31.107 361.208 31.4918L369.189 40L377.17 31.4918Z" fill="#323232"/>
<path d="M354.48 39V28.3899C354.48 27.5025 353.41 27.0548 352.778 27.6778L342.014 38.2878C341.377 38.9157 341.822 40 342.716 40H353.48C354.032 40 354.48 39.5523 354.48 39Z" fill="#323232"/>
<path fill-rule="evenodd" clip-rule="evenodd" d="M385.913 27C385.361 27 384.913 27.4477 384.913 28H383.884C383.332 28 382.884 28.4477 382.884 29V39C382.884 39.5523 383.332 40 383.884 40H390C390.552 40 391 39.5523 391 39V29C391 28.4477 390.552 28 390 28H388.971C388.971 27.4477 388.523 27 387.971 27H385.913Z" fill="#323232"/>
<path opacity="0.6" d="M77.512 38.964H79.472V32.188L79.612 31.362L79.052 32.02L77.512 33.126L76.98 32.412L80.06 30.032H80.564V38.964H82.482V40H77.512V38.964ZM89.8729 32.426C89.8729 32.9207 89.7796 33.4293 89.5929 33.952C89.4156 34.4653 89.1776 34.9833 88.8789 35.506C88.5896 36.0287 88.2629 36.542 87.8989 37.046C87.5349 37.5407 87.1709 38.012 86.8069 38.46L86.1209 39.062V39.118L87.0169 38.964H90.0689V40H84.4969V39.594C84.7022 39.3793 84.9496 39.1133 85.2389 38.796C85.5282 38.4787 85.8269 38.1287 86.1349 37.746C86.4522 37.354 86.7602 36.9433 87.0589 36.514C87.3669 36.0753 87.6422 35.632 87.8849 35.184C88.1369 34.736 88.3376 34.2927 88.4869 33.854C88.6362 33.4153 88.7109 33 88.7109 32.608C88.7109 32.1507 88.5802 31.7727 88.3189 31.474C88.0576 31.166 87.6609 31.012 87.1289 31.012C86.7742 31.012 86.4289 31.0867 86.0929 31.236C85.7569 31.376 85.4676 31.5393 85.2249 31.726L84.7629 30.928C85.0896 30.648 85.4769 30.4287 85.9249 30.27C86.3729 30.1113 86.8536 30.032 87.3669 30.032C87.7682 30.032 88.1229 30.0927 88.4309 30.214C88.7389 30.326 89.0002 30.4893 89.2149 30.704C89.4296 30.9187 89.5929 31.1753 89.7049 31.474C89.8169 31.7633 89.8729 32.0807 89.8729 32.426ZM92.5318 33.714C92.5318 33.462 92.6018 33.266 92.7418 33.126C92.8911 32.9767 93.0871 32.902 93.3298 32.902C93.5818 32.902 93.7825 32.9767 93.9318 33.126C94.0811 33.266 94.1558 33.462 94.1558 33.714C94.1558 33.9567 94.0811 34.1527 93.9318 34.302C93.7825 34.4513 93.5818 34.526 93.3298 34.526C93.0871 34.526 92.8911 34.4513 92.7418 34.302C92.6018 34.1527 92.5318 33.9567 92.5318 33.714ZM92.5318 39.356C92.5318 39.104 92.6018 38.908 92.7418 38.768C92.8911 38.6187 93.0871 38.544 93.3298 38.544C93.5818 38.544 93.7825 38.6187 93.9318 38.768C94.0811 38.908 94.1558 39.104 94.1558 39.356C94.1558 39.5987 94.0811 39.7947 93.9318 39.944C93.7825 40.0933 93.5818 40.168 93.3298 40.168C93.0871 40.168 92.8911 40.0933 92.7418 39.944C92.6018 39.7947 92.5318 39.5987 92.5318 39.356ZM94.9223 35.1C94.9223 33.42 95.193 32.1553 95.7343 31.306C96.285 30.4567 97.083 30.032 98.1283 30.032C99.2576 30.032 100.074 30.452 100.578 31.292C101.092 32.1227 101.348 33.392 101.348 35.1C101.348 36.78 101.073 38.0447 100.522 38.894C99.981 39.7433 99.183 40.168 98.1283 40.168C97.0176 40.168 96.2056 39.7247 95.6923 38.838C95.179 37.9513 94.9223 36.7053 94.9223 35.1ZM96.0843 35.1C96.0843 35.7067 96.1216 36.262 96.1963 36.766C96.2803 37.2607 96.4063 37.69 96.5743 38.054C96.7423 38.4087 96.9523 38.6887 97.2043 38.894C97.4656 39.09 97.7736 39.188 98.1283 39.188C98.8376 39.188 99.3556 38.8613 99.6823 38.208C100.018 37.5453 100.186 36.5093 100.186 35.1C100.186 34.5027 100.149 33.952 100.074 33.448C100.009 32.944 99.8923 32.51 99.7243 32.146C99.5656 31.782 99.3556 31.502 99.0943 31.306C98.833 31.11 98.511 31.012 98.1283 31.012C97.4283 31.012 96.9103 31.3433 96.5743 32.006C96.2476 32.6687 96.0843 33.7 96.0843 35.1ZM102.551 35.1C102.551 33.42 102.822 32.1553 103.363 31.306C103.914 30.4567 104.712 30.032 105.757 30.032C106.887 30.032 107.703 30.452 108.207 31.292C108.721 32.1227 108.977 33.392 108.977 35.1C108.977 36.78 108.702 38.0447 108.151 38.894C107.61 39.7433 106.812 40.168 105.757 40.168C104.647 40.168 103.835 39.7247 103.321 38.838C102.808 37.9513 102.551 36.7053 102.551 35.1ZM103.713 35.1C103.713 35.7067 103.751 36.262 103.825 36.766C103.909 37.2607 104.035 37.69 104.203 38.054C104.371 38.4087 104.581 38.6887 104.833 38.894C105.095 39.09 105.403 39.188 105.757 39.188C106.467 39.188 106.985 38.8613 107.311 38.208C107.647 37.5453 107.815 36.5093 107.815 35.1C107.815 34.5027 107.778 33.952 107.703 33.448C107.638 32.944 107.521 32.51 107.353 32.146C107.195 31.782 106.985 31.502 106.723 31.306C106.462 31.11 106.14 31.012 105.757 31.012C105.057 31.012 104.539 31.3433 104.203 32.006C103.877 32.6687 103.713 33.7 103.713 35.1Z" fill="#323232"/>
<rect x="5" y="5" width="421" height="876" rx="21" stroke="#323232" stroke-width="10"/>
<defs>
<radialGradient id="paint0_radial_102_450" cx="0" cy="0" r="1" gradientUnits="userSpaceOnUse" gradientTransform="translate(56 36.5) rotate(-120.466) scale(9.86154)">
<stop stop-color="#666669"/>
<stop offset="0.502083" stop-color="#3E3E3F"/>
<stop offset="1" stop-color="#323232"/>
</radialGradient>
<clipPath id="clip0_102_450">
<rect width="376" height="214" fill="white" transform="translate(26 265)"/>
</clipPath>
<clipPath id="clip1_102_450">
<rect width="24" height="24" fill="white" transform="translate(43 111)"/>
</clipPath>
</defs>
</svg>
