<svg width="308" height="193" viewBox="0 0 308 193" fill="none" xmlns="http://www.w3.org/2000/svg">
<g clip-path="url(#clip0_50995_3212)">
<path d="M0 28C0 12.536 12.536 0 28 0H280C295.464 0 308 12.536 308 28V165C308 180.464 295.464 193 280 193H28C12.536 193 0 180.464 0 165V28Z" fill="#FFFBFE"/>
<path d="M0 28C0 12.536 12.536 0 28 0H280C295.464 0 308 12.536 308 28V165C308 180.464 295.464 193 280 193H28C12.536 193 0 180.464 0 165V28Z" fill="#6750A4" fill-opacity="0.11"/>
<path d="M25.9805 48V30.9375H30.7969C32.2812 30.9375 33.5938 31.2656 34.7344 31.9219C35.875 32.5781 36.7539 33.5117 37.3711 34.7227C37.9961 35.9336 38.3125 37.3242 38.3203 38.8945V39.9844C38.3203 41.5938 38.0078 43.0039 37.3828 44.2148C36.7656 45.4258 35.8789 46.3555 34.7227 47.0039C33.5742 47.6523 32.2344 47.9844 30.7031 48H25.9805ZM28.2305 32.7891V46.1602H30.5977C32.332 46.1602 33.6797 45.6211 34.6406 44.543C35.6094 43.4648 36.0938 41.9297 36.0938 39.9375V38.9414C36.0938 37.0039 35.6367 35.5 34.7227 34.4297C33.8164 33.3516 32.5273 32.8047 30.8555 32.7891H28.2305ZM46.6523 48.2344C44.9336 48.2344 43.5352 47.6719 42.457 46.5469C41.3789 45.4141 40.8398 43.9023 40.8398 42.0117V41.6133C40.8398 40.3555 41.0781 39.2344 41.5547 38.25C42.0391 37.2578 42.7109 36.4844 43.5703 35.9297C44.4375 35.3672 45.375 35.0859 46.3828 35.0859C48.0312 35.0859 49.3125 35.6289 50.2266 36.7148C51.1406 37.8008 51.5977 39.3555 51.5977 41.3789V42.2812H43.0078C43.0391 43.5312 43.4023 44.543 44.0977 45.3164C44.8008 46.082 45.6914 46.4648 46.7695 46.4648C47.5352 46.4648 48.1836 46.3086 48.7148 45.9961C49.2461 45.6836 49.7109 45.2695 50.1094 44.7539L51.4336 45.7852C50.3711 47.418 48.7773 48.2344 46.6523 48.2344ZM46.3828 36.8672C45.5078 36.8672 44.7734 37.1875 44.1797 37.8281C43.5859 38.4609 43.2188 39.3516 43.0781 40.5H49.4297V40.3359C49.3672 39.2344 49.0703 38.3828 48.5391 37.7812C48.0078 37.1719 47.2891 36.8672 46.3828 36.8672ZM58.1367 45.0586L61.2773 35.3203H63.4922L58.9453 48H57.293L52.6992 35.3203H54.9141L58.1367 45.0586ZM67.9336 48H65.7656V35.3203H67.9336V48ZM65.5898 31.957C65.5898 31.6055 65.6953 31.3086 65.9062 31.0664C66.125 30.8242 66.4453 30.7031 66.8672 30.7031C67.2891 30.7031 67.6094 30.8242 67.8281 31.0664C68.0469 31.3086 68.1562 31.6055 68.1562 31.957C68.1562 32.3086 68.0469 32.6016 67.8281 32.8359C67.6094 33.0703 67.2891 33.1875 66.8672 33.1875C66.4453 33.1875 66.125 33.0703 65.9062 32.8359C65.6953 32.6016 65.5898 32.3086 65.5898 31.957ZM76.5 46.4648C77.2734 46.4648 77.9492 46.2305 78.5273 45.7617C79.1055 45.293 79.4258 44.707 79.4883 44.0039H81.5391C81.5 44.7305 81.25 45.4219 80.7891 46.0781C80.3281 46.7344 79.7109 47.2578 78.9375 47.6484C78.1719 48.0391 77.3594 48.2344 76.5 48.2344C74.7734 48.2344 73.3984 47.6602 72.375 46.5117C71.3594 45.3555 70.8516 43.7773 70.8516 41.7773V41.4141C70.8516 40.1797 71.0781 39.082 71.5312 38.1211C71.9844 37.1602 72.6328 36.4141 73.4766 35.8828C74.3281 35.3516 75.332 35.0859 76.4883 35.0859C77.9102 35.0859 79.0898 35.5117 80.0273 36.3633C80.9727 37.2148 81.4766 38.3203 81.5391 39.6797H79.4883C79.4258 38.8594 79.1133 38.1875 78.5508 37.6641C77.9961 37.1328 77.3086 36.8672 76.4883 36.8672C75.3867 36.8672 74.5312 37.2656 73.9219 38.0625C73.3203 38.8516 73.0195 39.9961 73.0195 41.4961V41.9062C73.0195 43.3672 73.3203 44.4922 73.9219 45.2812C74.5234 46.0703 75.3828 46.4648 76.5 46.4648ZM89.2383 48.2344C87.5195 48.2344 86.1211 47.6719 85.043 46.5469C83.9648 45.4141 83.4258 43.9023 83.4258 42.0117V41.6133C83.4258 40.3555 83.6641 39.2344 84.1406 38.25C84.625 37.2578 85.2969 36.4844 86.1562 35.9297C87.0234 35.3672 87.9609 35.0859 88.9688 35.0859C90.6172 35.0859 91.8984 35.6289 92.8125 36.7148C93.7266 37.8008 94.1836 39.3555 94.1836 41.3789V42.2812H85.5938C85.625 43.5312 85.9883 44.543 86.6836 45.3164C87.3867 46.082 88.2773 46.4648 89.3555 46.4648C90.1211 46.4648 90.7695 46.3086 91.3008 45.9961C91.832 45.6836 92.2969 45.2695 92.6953 44.7539L94.0195 45.7852C92.957 47.418 91.3633 48.2344 89.2383 48.2344ZM88.9688 36.8672C88.0938 36.8672 87.3594 37.1875 86.7656 37.8281C86.1719 38.4609 85.8047 39.3516 85.6641 40.5H92.0156V40.3359C91.9531 39.2344 91.6562 38.3828 91.125 37.7812C90.5938 37.1719 89.875 36.8672 88.9688 36.8672ZM105.902 30.9375L111.48 44.8594L117.059 30.9375H119.977V48H117.727V41.3555L117.938 34.1836L112.336 48H110.613L105.023 34.2188L105.246 41.3555V48H102.996V30.9375H105.902ZM131.438 48C131.312 47.75 131.211 47.3047 131.133 46.6641C130.125 47.7109 128.922 48.2344 127.523 48.2344C126.273 48.2344 125.246 47.8828 124.441 47.1797C123.645 46.4688 123.246 45.5703 123.246 44.4844C123.246 43.1641 123.746 42.1406 124.746 41.4141C125.754 40.6797 127.168 40.3125 128.988 40.3125H131.098V39.3164C131.098 38.5586 130.871 37.957 130.418 37.5117C129.965 37.0586 129.297 36.832 128.414 36.832C127.641 36.832 126.992 37.0273 126.469 37.418C125.945 37.8086 125.684 38.2812 125.684 38.8359H123.504C123.504 38.2031 123.727 37.5938 124.172 37.0078C124.625 36.4141 125.234 35.9453 126 35.6016C126.773 35.2578 127.621 35.0859 128.543 35.0859C130.004 35.0859 131.148 35.4531 131.977 36.1875C132.805 36.9141 133.234 37.918 133.266 39.1992V45.0352C133.266 46.1992 133.414 47.125 133.711 47.8125V48H131.438ZM127.84 46.3477C128.52 46.3477 129.164 46.1719 129.773 45.8203C130.383 45.4688 130.824 45.0117 131.098 44.4492V41.8477H129.398C126.742 41.8477 125.414 42.625 125.414 44.1797C125.414 44.8594 125.641 45.3906 126.094 45.7734C126.547 46.1562 127.129 46.3477 127.84 46.3477ZM139.02 48H136.852V35.3203H139.02V48ZM136.676 31.957C136.676 31.6055 136.781 31.3086 136.992 31.0664C137.211 30.8242 137.531 30.7031 137.953 30.7031C138.375 30.7031 138.695 30.8242 138.914 31.0664C139.133 31.3086 139.242 31.6055 139.242 31.957C139.242 32.3086 139.133 32.6016 138.914 32.8359C138.695 33.0703 138.375 33.1875 137.953 33.1875C137.531 33.1875 137.211 33.0703 136.992 32.8359C136.781 32.6016 136.676 32.3086 136.676 31.957ZM144.551 35.3203L144.621 36.9141C145.59 35.6953 146.855 35.0859 148.418 35.0859C151.098 35.0859 152.449 36.5977 152.473 39.6211V48H150.305V39.6094C150.297 38.6953 150.086 38.0195 149.672 37.582C149.266 37.1445 148.629 36.9258 147.762 36.9258C147.059 36.9258 146.441 37.1133 145.91 37.4883C145.379 37.8633 144.965 38.3555 144.668 38.9648V48H142.5V35.3203H144.551ZM158.684 32.25V35.3203H161.051V36.9961H158.684V44.8594C158.684 45.3672 158.789 45.75 159 46.0078C159.211 46.2578 159.57 46.3828 160.078 46.3828C160.328 46.3828 160.672 46.3359 161.109 46.2422V48C160.539 48.1562 159.984 48.2344 159.445 48.2344C158.477 48.2344 157.746 47.9414 157.254 47.3555C156.762 46.7695 156.516 45.9375 156.516 44.8594V36.9961H154.207V35.3203H156.516V32.25H158.684ZM171.422 48C171.297 47.75 171.195 47.3047 171.117 46.6641C170.109 47.7109 168.906 48.2344 167.508 48.2344C166.258 48.2344 165.23 47.8828 164.426 47.1797C163.629 46.4688 163.23 45.5703 163.23 44.4844C163.23 43.1641 163.73 42.1406 164.73 41.4141C165.738 40.6797 167.152 40.3125 168.973 40.3125H171.082V39.3164C171.082 38.5586 170.855 37.957 170.402 37.5117C169.949 37.0586 169.281 36.832 168.398 36.832C167.625 36.832 166.977 37.0273 166.453 37.418C165.93 37.8086 165.668 38.2812 165.668 38.8359H163.488C163.488 38.2031 163.711 37.5938 164.156 37.0078C164.609 36.4141 165.219 35.9453 165.984 35.6016C166.758 35.2578 167.605 35.0859 168.527 35.0859C169.988 35.0859 171.133 35.4531 171.961 36.1875C172.789 36.9141 173.219 37.918 173.25 39.1992V45.0352C173.25 46.1992 173.398 47.125 173.695 47.8125V48H171.422ZM167.824 46.3477C168.504 46.3477 169.148 46.1719 169.758 45.8203C170.367 45.4688 170.809 45.0117 171.082 44.4492V41.8477H169.383C166.727 41.8477 165.398 42.625 165.398 44.1797C165.398 44.8594 165.625 45.3906 166.078 45.7734C166.531 46.1562 167.113 46.3477 167.824 46.3477ZM179.004 48H176.836V35.3203H179.004V48ZM176.66 31.957C176.66 31.6055 176.766 31.3086 176.977 31.0664C177.195 30.8242 177.516 30.7031 177.938 30.7031C178.359 30.7031 178.68 30.8242 178.898 31.0664C179.117 31.3086 179.227 31.6055 179.227 31.957C179.227 32.3086 179.117 32.6016 178.898 32.8359C178.68 33.0703 178.359 33.1875 177.938 33.1875C177.516 33.1875 177.195 33.0703 176.977 32.8359C176.766 32.6016 176.66 32.3086 176.66 31.957ZM184.535 35.3203L184.605 36.9141C185.574 35.6953 186.84 35.0859 188.402 35.0859C191.082 35.0859 192.434 36.5977 192.457 39.6211V48H190.289V39.6094C190.281 38.6953 190.07 38.0195 189.656 37.582C189.25 37.1445 188.613 36.9258 187.746 36.9258C187.043 36.9258 186.426 37.1133 185.895 37.4883C185.363 37.8633 184.949 38.3555 184.652 38.9648V48H182.484V35.3203H184.535ZM203.555 48C203.43 47.75 203.328 47.3047 203.25 46.6641C202.242 47.7109 201.039 48.2344 199.641 48.2344C198.391 48.2344 197.363 47.8828 196.559 47.1797C195.762 46.4688 195.363 45.5703 195.363 44.4844C195.363 43.1641 195.863 42.1406 196.863 41.4141C197.871 40.6797 199.285 40.3125 201.105 40.3125H203.215V39.3164C203.215 38.5586 202.988 37.957 202.535 37.5117C202.082 37.0586 201.414 36.832 200.531 36.832C199.758 36.832 199.109 37.0273 198.586 37.418C198.062 37.8086 197.801 38.2812 197.801 38.8359H195.621C195.621 38.2031 195.844 37.5938 196.289 37.0078C196.742 36.4141 197.352 35.9453 198.117 35.6016C198.891 35.2578 199.738 35.0859 200.66 35.0859C202.121 35.0859 203.266 35.4531 204.094 36.1875C204.922 36.9141 205.352 37.918 205.383 39.1992V45.0352C205.383 46.1992 205.531 47.125 205.828 47.8125V48H203.555ZM199.957 46.3477C200.637 46.3477 201.281 46.1719 201.891 45.8203C202.5 45.4688 202.941 45.0117 203.215 44.4492V41.8477H201.516C198.859 41.8477 197.531 42.625 197.531 44.1797C197.531 44.8594 197.758 45.3906 198.211 45.7734C198.664 46.1562 199.246 46.3477 199.957 46.3477ZM210.832 35.3203L210.902 36.9141C211.871 35.6953 213.137 35.0859 214.699 35.0859C217.379 35.0859 218.73 36.5977 218.754 39.6211V48H216.586V39.6094C216.578 38.6953 216.367 38.0195 215.953 37.582C215.547 37.1445 214.91 36.9258 214.043 36.9258C213.34 36.9258 212.723 37.1133 212.191 37.4883C211.66 37.8633 211.246 38.3555 210.949 38.9648V48H208.781V35.3203H210.832ZM227.109 46.4648C227.883 46.4648 228.559 46.2305 229.137 45.7617C229.715 45.293 230.035 44.707 230.098 44.0039H232.148C232.109 44.7305 231.859 45.4219 231.398 46.0781C230.938 46.7344 230.32 47.2578 229.547 47.6484C228.781 48.0391 227.969 48.2344 227.109 48.2344C225.383 48.2344 224.008 47.6602 222.984 46.5117C221.969 45.3555 221.461 43.7773 221.461 41.7773V41.4141C221.461 40.1797 221.688 39.082 222.141 38.1211C222.594 37.1602 223.242 36.4141 224.086 35.8828C224.938 35.3516 225.941 35.0859 227.098 35.0859C228.52 35.0859 229.699 35.5117 230.637 36.3633C231.582 37.2148 232.086 38.3203 232.148 39.6797H230.098C230.035 38.8594 229.723 38.1875 229.16 37.6641C228.605 37.1328 227.918 36.8672 227.098 36.8672C225.996 36.8672 225.141 37.2656 224.531 38.0625C223.93 38.8516 223.629 39.9961 223.629 41.4961V41.9062C223.629 43.3672 223.93 44.4922 224.531 45.2812C225.133 46.0703 225.992 46.4648 227.109 46.4648ZM239.848 48.2344C238.129 48.2344 236.73 47.6719 235.652 46.5469C234.574 45.4141 234.035 43.9023 234.035 42.0117V41.6133C234.035 40.3555 234.273 39.2344 234.75 38.25C235.234 37.2578 235.906 36.4844 236.766 35.9297C237.633 35.3672 238.57 35.0859 239.578 35.0859C241.227 35.0859 242.508 35.6289 243.422 36.7148C244.336 37.8008 244.793 39.3555 244.793 41.3789V42.2812H236.203C236.234 43.5312 236.598 44.543 237.293 45.3164C237.996 46.082 238.887 46.4648 239.965 46.4648C240.73 46.4648 241.379 46.3086 241.91 45.9961C242.441 45.6836 242.906 45.2695 243.305 44.7539L244.629 45.7852C243.566 47.418 241.973 48.2344 239.848 48.2344ZM239.578 36.8672C238.703 36.8672 237.969 37.1875 237.375 37.8281C236.781 38.4609 236.414 39.3516 236.273 40.5H242.625V40.3359C242.562 39.2344 242.266 38.3828 241.734 37.7812C241.203 37.1719 240.484 36.8672 239.578 36.8672Z" fill="#1C1B1F"/>
<path d="M27.3018 83.8623L27.4932 85.1748L27.7734 83.9922L29.7422 77.0469H30.8496L32.7705 83.9922L33.0439 85.1953L33.2559 83.8555L34.8008 77.0469H36.1201L33.707 87H32.5107L30.46 79.7471L30.3027 78.9883L30.1455 79.7471L28.0195 87H26.8232L24.417 77.0469H25.7295L27.3018 83.8623ZM39.0088 87H37.7441V79.6035H39.0088V87ZM37.6416 77.6416C37.6416 77.4365 37.7031 77.2633 37.8262 77.1221C37.9538 76.9808 38.1406 76.9102 38.3867 76.9102C38.6328 76.9102 38.8197 76.9808 38.9473 77.1221C39.0749 77.2633 39.1387 77.4365 39.1387 77.6416C39.1387 77.8467 39.0749 78.0176 38.9473 78.1543C38.8197 78.291 38.6328 78.3594 38.3867 78.3594C38.1406 78.3594 37.9538 78.291 37.8262 78.1543C37.7031 78.0176 37.6416 77.8467 37.6416 77.6416ZM43.0049 77.8125V79.6035H44.3857V80.5811H43.0049V85.168C43.0049 85.4642 43.0664 85.6875 43.1895 85.8379C43.3125 85.9837 43.5221 86.0566 43.8184 86.0566C43.9642 86.0566 44.1647 86.0293 44.4199 85.9746V87C44.0872 87.0911 43.7637 87.1367 43.4492 87.1367C42.8841 87.1367 42.458 86.9658 42.1709 86.624C41.8838 86.2822 41.7402 85.7969 41.7402 85.168V80.5811H40.3936V79.6035H41.7402V77.8125H43.0049ZM47.3838 80.499C47.9443 79.8109 48.6735 79.4668 49.5713 79.4668C51.1344 79.4668 51.9229 80.3486 51.9365 82.1123V87H50.6719V82.1055C50.6673 81.5723 50.5443 81.1781 50.3027 80.9229C50.0658 80.6676 49.6943 80.54 49.1885 80.54C48.7783 80.54 48.4183 80.6494 48.1084 80.8682C47.7985 81.0869 47.557 81.374 47.3838 81.7295V87H46.1191V76.5H47.3838V80.499ZM59.1768 87H57.9121V79.6035H59.1768V87ZM57.8096 77.6416C57.8096 77.4365 57.8711 77.2633 57.9941 77.1221C58.1217 76.9808 58.3086 76.9102 58.5547 76.9102C58.8008 76.9102 58.9876 76.9808 59.1152 77.1221C59.2428 77.2633 59.3066 77.4365 59.3066 77.6416C59.3066 77.8467 59.2428 78.0176 59.1152 78.1543C58.9876 78.291 58.8008 78.3594 58.5547 78.3594C58.3086 78.3594 58.1217 78.291 57.9941 78.1543C57.8711 78.0176 57.8096 77.8467 57.8096 77.6416ZM62.6533 79.6035L62.6943 80.5332C63.2594 79.8223 63.9977 79.4668 64.9092 79.4668C66.4723 79.4668 67.2607 80.3486 67.2744 82.1123V87H66.0098V82.1055C66.0052 81.5723 65.8822 81.1781 65.6406 80.9229C65.4036 80.6676 65.0322 80.54 64.5264 80.54C64.1162 80.54 63.7562 80.6494 63.4463 80.8682C63.1364 81.0869 62.8949 81.374 62.7217 81.7295V87H61.457V79.6035H62.6533ZM72.3984 86.1045C72.8496 86.1045 73.2438 85.9678 73.5811 85.6943C73.9183 85.4209 74.1051 85.0791 74.1416 84.6689H75.3379C75.3151 85.0928 75.1693 85.4961 74.9004 85.8789C74.6315 86.2617 74.2715 86.5671 73.8203 86.7949C73.3737 87.0228 72.8997 87.1367 72.3984 87.1367C71.3913 87.1367 70.5892 86.8018 69.9922 86.1318C69.3997 85.4574 69.1035 84.5368 69.1035 83.3701V83.1582C69.1035 82.4382 69.2357 81.7979 69.5 81.2373C69.7643 80.6768 70.1426 80.2415 70.6348 79.9316C71.1315 79.6217 71.7171 79.4668 72.3916 79.4668C73.221 79.4668 73.9092 79.7152 74.4561 80.2119C75.0075 80.7087 75.3014 81.3535 75.3379 82.1465H74.1416C74.1051 81.668 73.9229 81.276 73.5947 80.9707C73.2712 80.6608 72.8701 80.5059 72.3916 80.5059C71.749 80.5059 71.25 80.7383 70.8945 81.2031C70.5436 81.6634 70.3682 82.3311 70.3682 83.2061V83.4453C70.3682 84.2975 70.5436 84.9538 70.8945 85.4141C71.2454 85.8743 71.7467 86.1045 72.3984 86.1045ZM80.585 80.7383C80.3936 80.7064 80.1862 80.6904 79.9629 80.6904C79.1335 80.6904 78.5706 81.0436 78.2744 81.75V87H77.0098V79.6035H78.2402L78.2607 80.458C78.6755 79.7972 79.2633 79.4668 80.0244 79.4668C80.2705 79.4668 80.4574 79.4987 80.585 79.5625V80.7383ZM84.9365 87.1367C83.9339 87.1367 83.1182 86.8086 82.4893 86.1523C81.8604 85.4915 81.5459 84.6097 81.5459 83.5068V83.2744C81.5459 82.5407 81.6849 81.8867 81.9629 81.3125C82.2454 80.7337 82.6374 80.2826 83.1387 79.959C83.6445 79.6309 84.1914 79.4668 84.7793 79.4668C85.7409 79.4668 86.4883 79.7835 87.0215 80.417C87.5547 81.0505 87.8213 81.9574 87.8213 83.1377V83.6641H82.8105C82.8288 84.3932 83.0407 84.9834 83.4463 85.4346C83.8564 85.8812 84.376 86.1045 85.0049 86.1045C85.4515 86.1045 85.8298 86.0133 86.1396 85.8311C86.4495 85.6488 86.7207 85.4072 86.9531 85.1064L87.7256 85.708C87.1058 86.6605 86.1761 87.1367 84.9365 87.1367ZM84.7793 80.5059C84.2689 80.5059 83.8405 80.6927 83.4941 81.0664C83.1478 81.4355 82.9336 81.9551 82.8516 82.625H86.5566V82.5293C86.5202 81.8867 86.347 81.39 86.0371 81.0391C85.7272 80.6836 85.3079 80.5059 84.7793 80.5059ZM94.1074 87C94.0345 86.8542 93.9753 86.5944 93.9297 86.2207C93.3418 86.8314 92.64 87.1367 91.8242 87.1367C91.0951 87.1367 90.4958 86.9316 90.0264 86.5215C89.5615 86.1068 89.3291 85.5827 89.3291 84.9492C89.3291 84.179 89.6208 83.582 90.2041 83.1582C90.792 82.7298 91.6169 82.5156 92.6787 82.5156H93.9092V81.9346C93.9092 81.4925 93.777 81.1416 93.5127 80.8818C93.2484 80.6175 92.8587 80.4854 92.3438 80.4854C91.8926 80.4854 91.5143 80.5993 91.209 80.8271C90.9036 81.055 90.751 81.3307 90.751 81.6543H89.4795C89.4795 81.2852 89.6094 80.9297 89.8691 80.5879C90.1335 80.2415 90.4889 79.9681 90.9355 79.7676C91.3867 79.5671 91.8812 79.4668 92.4189 79.4668C93.2712 79.4668 93.9388 79.681 94.4219 80.1094C94.9049 80.5332 95.1556 81.1188 95.1738 81.8662V85.2705C95.1738 85.9495 95.2604 86.4896 95.4336 86.8906V87H94.1074ZM92.0088 86.0361C92.4053 86.0361 92.7812 85.9336 93.1367 85.7285C93.4922 85.5234 93.7497 85.2568 93.9092 84.9287V83.4111H92.918C91.3685 83.4111 90.5938 83.8646 90.5938 84.7715C90.5938 85.168 90.7259 85.4779 90.9902 85.7012C91.2546 85.9245 91.5941 86.0361 92.0088 86.0361ZM101.713 85.0381C101.713 84.6963 101.583 84.432 101.323 84.2451C101.068 84.0537 100.619 83.8896 99.9766 83.7529C99.3385 83.6162 98.8304 83.4521 98.4521 83.2607C98.0785 83.0693 97.8005 82.8415 97.6182 82.5771C97.4404 82.3128 97.3516 81.9984 97.3516 81.6338C97.3516 81.0277 97.6068 80.515 98.1172 80.0957C98.6322 79.6764 99.2884 79.4668 100.086 79.4668C100.924 79.4668 101.604 79.6833 102.123 80.1162C102.647 80.5492 102.909 81.1029 102.909 81.7773H101.638C101.638 81.431 101.49 81.1325 101.193 80.8818C100.902 80.6312 100.533 80.5059 100.086 80.5059C99.6257 80.5059 99.2656 80.6061 99.0059 80.8066C98.7461 81.0072 98.6162 81.2692 98.6162 81.5928C98.6162 81.8981 98.737 82.1283 98.9785 82.2832C99.2201 82.4382 99.6553 82.5863 100.284 82.7275C100.918 82.8688 101.43 83.0374 101.822 83.2334C102.214 83.4294 102.504 83.6663 102.69 83.9443C102.882 84.2178 102.978 84.5527 102.978 84.9492C102.978 85.61 102.713 86.141 102.185 86.542C101.656 86.9385 100.97 87.1367 100.127 87.1367C99.5345 87.1367 99.0104 87.0319 98.5547 86.8223C98.099 86.6126 97.7412 86.321 97.4814 85.9473C97.2262 85.569 97.0986 85.1611 97.0986 84.7236H98.3633C98.3861 85.1475 98.5547 85.4847 98.8691 85.7354C99.1882 85.9814 99.6074 86.1045 100.127 86.1045C100.605 86.1045 100.988 86.0088 101.275 85.8174C101.567 85.6214 101.713 85.3617 101.713 85.0381ZM106.249 87H104.984V79.6035H106.249V87ZM104.882 77.6416C104.882 77.4365 104.943 77.2633 105.066 77.1221C105.194 76.9808 105.381 76.9102 105.627 76.9102C105.873 76.9102 106.06 76.9808 106.188 77.1221C106.315 77.2633 106.379 77.4365 106.379 77.6416C106.379 77.8467 106.315 78.0176 106.188 78.1543C106.06 78.291 105.873 78.3594 105.627 78.3594C105.381 78.3594 105.194 78.291 105.066 78.1543C104.943 78.0176 104.882 77.8467 104.882 77.6416ZM109.726 79.6035L109.767 80.5332C110.332 79.8223 111.07 79.4668 111.981 79.4668C113.545 79.4668 114.333 80.3486 114.347 82.1123V87H113.082V82.1055C113.077 81.5723 112.954 81.1781 112.713 80.9229C112.476 80.6676 112.104 80.54 111.599 80.54C111.188 80.54 110.828 80.6494 110.519 80.8682C110.209 81.0869 109.967 81.374 109.794 81.7295V87H108.529V79.6035H109.726ZM116.203 83.2402C116.203 82.0872 116.47 81.1712 117.003 80.4922C117.536 79.8086 118.243 79.4668 119.122 79.4668C120.024 79.4668 120.729 79.7858 121.234 80.4238L121.296 79.6035H122.451V86.8223C122.451 87.7793 122.166 88.5335 121.597 89.085C121.032 89.6364 120.271 89.9121 119.313 89.9121C118.78 89.9121 118.258 89.7982 117.748 89.5703C117.238 89.3424 116.848 89.0303 116.579 88.6338L117.235 87.875C117.778 88.5449 118.441 88.8799 119.225 88.8799C119.84 88.8799 120.318 88.7067 120.66 88.3604C121.007 88.014 121.18 87.5264 121.18 86.8975V86.2617C120.674 86.8451 119.983 87.1367 119.108 87.1367C118.243 87.1367 117.541 86.7881 117.003 86.0908C116.47 85.3936 116.203 84.4434 116.203 83.2402ZM117.475 83.3838C117.475 84.2178 117.646 84.874 117.987 85.3525C118.329 85.8265 118.808 86.0635 119.423 86.0635C120.22 86.0635 120.806 85.7012 121.18 84.9766V81.5996C120.792 80.8932 120.211 80.54 119.437 80.54C118.821 80.54 118.34 80.7793 117.994 81.2578C117.648 81.7363 117.475 82.445 117.475 83.3838ZM129.534 79.6035L129.575 80.5332C130.14 79.8223 130.879 79.4668 131.79 79.4668C133.353 79.4668 134.142 80.3486 134.155 82.1123V87H132.891V82.1055C132.886 81.5723 132.763 81.1781 132.521 80.9229C132.285 80.6676 131.913 80.54 131.407 80.54C130.997 80.54 130.637 80.6494 130.327 80.8682C130.017 81.0869 129.776 81.374 129.603 81.7295V87H128.338V79.6035H129.534ZM140.879 86.2686C140.387 86.8473 139.664 87.1367 138.712 87.1367C137.924 87.1367 137.322 86.9089 136.907 86.4531C136.497 85.9928 136.29 85.3138 136.285 84.416V79.6035H137.55V84.3818C137.55 85.5029 138.006 86.0635 138.917 86.0635C139.883 86.0635 140.526 85.7035 140.845 84.9834V79.6035H142.109V87H140.906L140.879 86.2686ZM145.477 79.6035L145.511 80.4238C146.053 79.7858 146.785 79.4668 147.705 79.4668C148.74 79.4668 149.444 79.8633 149.817 80.6562C150.063 80.3008 150.382 80.0137 150.774 79.7949C151.171 79.5762 151.638 79.4668 152.176 79.4668C153.798 79.4668 154.623 80.3258 154.65 82.0439V87H153.386V82.1191C153.386 81.5905 153.265 81.1963 153.023 80.9365C152.782 80.6722 152.376 80.54 151.807 80.54C151.337 80.54 150.948 80.6813 150.638 80.9639C150.328 81.2419 150.148 81.6178 150.098 82.0918V87H148.826V82.1533C148.826 81.0778 148.3 80.54 147.247 80.54C146.418 80.54 145.85 80.8932 145.545 81.5996V87H144.28V79.6035H145.477ZM163.076 83.3838C163.076 84.514 162.816 85.4232 162.297 86.1113C161.777 86.7949 161.08 87.1367 160.205 87.1367C159.271 87.1367 158.549 86.8063 158.038 86.1455L157.977 87H156.814V76.5H158.079V80.417C158.59 79.7835 159.294 79.4668 160.191 79.4668C161.089 79.4668 161.793 79.8063 162.304 80.4854C162.819 81.1644 163.076 82.0941 163.076 83.2744V83.3838ZM161.812 83.2402C161.812 82.3789 161.645 81.7135 161.312 81.2441C160.98 80.7747 160.501 80.54 159.877 80.54C159.043 80.54 158.444 80.9274 158.079 81.7021V84.9014C158.466 85.6761 159.07 86.0635 159.891 86.0635C160.497 86.0635 160.968 85.8288 161.306 85.3594C161.643 84.89 161.812 84.1836 161.812 83.2402ZM167.995 87.1367C166.993 87.1367 166.177 86.8086 165.548 86.1523C164.919 85.4915 164.604 84.6097 164.604 83.5068V83.2744C164.604 82.5407 164.743 81.8867 165.021 81.3125C165.304 80.7337 165.696 80.2826 166.197 79.959C166.703 79.6309 167.25 79.4668 167.838 79.4668C168.799 79.4668 169.547 79.7835 170.08 80.417C170.613 81.0505 170.88 81.9574 170.88 83.1377V83.6641H165.869C165.887 84.3932 166.099 84.9834 166.505 85.4346C166.915 85.8812 167.435 86.1045 168.063 86.1045C168.51 86.1045 168.888 86.0133 169.198 85.8311C169.508 85.6488 169.779 85.4072 170.012 85.1064L170.784 85.708C170.164 86.6605 169.235 87.1367 167.995 87.1367ZM167.838 80.5059C167.327 80.5059 166.899 80.6927 166.553 81.0664C166.206 81.4355 165.992 81.9551 165.91 82.625H169.615V82.5293C169.579 81.8867 169.406 81.39 169.096 81.0391C168.786 80.6836 168.367 80.5059 167.838 80.5059ZM176.175 80.7383C175.983 80.7064 175.776 80.6904 175.553 80.6904C174.723 80.6904 174.16 81.0436 173.864 81.75V87H172.6V79.6035H173.83L173.851 80.458C174.265 79.7972 174.853 79.4668 175.614 79.4668C175.86 79.4668 176.047 79.4987 176.175 79.5625V80.7383ZM180.981 83.2334C180.981 82.5088 181.123 81.8571 181.405 81.2783C181.692 80.6995 182.089 80.2529 182.595 79.9385C183.105 79.624 183.686 79.4668 184.338 79.4668C185.345 79.4668 186.159 79.8154 186.778 80.5127C187.403 81.21 187.715 82.1374 187.715 83.2949V83.3838C187.715 84.1038 187.576 84.751 187.298 85.3252C187.024 85.8949 186.63 86.3392 186.115 86.6582C185.605 86.9772 185.017 87.1367 184.352 87.1367C183.349 87.1367 182.535 86.7881 181.911 86.0908C181.291 85.3936 180.981 84.4707 180.981 83.3223V83.2334ZM182.253 83.3838C182.253 84.2041 182.442 84.8626 182.82 85.3594C183.203 85.8561 183.714 86.1045 184.352 86.1045C184.994 86.1045 185.505 85.8538 185.883 85.3525C186.261 84.8467 186.45 84.1403 186.45 83.2334C186.45 82.4222 186.257 81.766 185.869 81.2646C185.486 80.7588 184.976 80.5059 184.338 80.5059C183.714 80.5059 183.21 80.7542 182.827 81.251C182.444 81.7477 182.253 82.4587 182.253 83.3838ZM190.173 87V80.5811H189.004V79.6035H190.173V78.8447C190.173 78.0518 190.385 77.4388 190.809 77.0059C191.232 76.5729 191.832 76.3564 192.606 76.3564C192.898 76.3564 193.188 76.3952 193.475 76.4727L193.406 77.498C193.192 77.457 192.964 77.4365 192.723 77.4365C192.312 77.4365 191.996 77.5573 191.772 77.7988C191.549 78.0358 191.438 78.3776 191.438 78.8242V79.6035H193.017V80.5811H191.438V87H190.173ZM198.083 83.2402C198.083 82.1055 198.352 81.194 198.89 80.5059C199.427 79.8132 200.132 79.4668 201.002 79.4668C201.868 79.4668 202.554 79.763 203.06 80.3555V76.5H204.324V87H203.162L203.101 86.207C202.595 86.8268 201.891 87.1367 200.988 87.1367C200.132 87.1367 199.432 86.7858 198.89 86.084C198.352 85.3822 198.083 84.4661 198.083 83.3359V83.2402ZM199.348 83.3838C199.348 84.2223 199.521 84.8786 199.867 85.3525C200.214 85.8265 200.692 86.0635 201.303 86.0635C202.105 86.0635 202.69 85.7035 203.06 84.9834V81.5859C202.681 80.8887 202.1 80.54 201.316 80.54C200.697 80.54 200.214 80.7793 199.867 81.2578C199.521 81.7363 199.348 82.445 199.348 83.3838ZM209.612 87.1367C208.61 87.1367 207.794 86.8086 207.165 86.1523C206.536 85.4915 206.222 84.6097 206.222 83.5068V83.2744C206.222 82.5407 206.361 81.8867 206.639 81.3125C206.921 80.7337 207.313 80.2826 207.814 79.959C208.32 79.6309 208.867 79.4668 209.455 79.4668C210.417 79.4668 211.164 79.7835 211.697 80.417C212.23 81.0505 212.497 81.9574 212.497 83.1377V83.6641H207.486C207.505 84.3932 207.716 84.9834 208.122 85.4346C208.532 85.8812 209.052 86.1045 209.681 86.1045C210.127 86.1045 210.506 86.0133 210.815 85.8311C211.125 85.6488 211.396 85.4072 211.629 85.1064L212.401 85.708C211.782 86.6605 210.852 87.1367 209.612 87.1367ZM209.455 80.5059C208.945 80.5059 208.516 80.6927 208.17 81.0664C207.824 81.4355 207.609 81.9551 207.527 82.625H211.232V82.5293C211.196 81.8867 211.023 81.39 210.713 81.0391C210.403 80.6836 209.984 80.5059 209.455 80.5059ZM216.562 85.2842L218.394 79.6035H219.686L217.033 87H216.069L213.39 79.6035H214.682L216.562 85.2842ZM224.126 87.1367C223.123 87.1367 222.308 86.8086 221.679 86.1523C221.05 85.4915 220.735 84.6097 220.735 83.5068V83.2744C220.735 82.5407 220.874 81.8867 221.152 81.3125C221.435 80.7337 221.827 80.2826 222.328 79.959C222.834 79.6309 223.381 79.4668 223.969 79.4668C224.93 79.4668 225.678 79.7835 226.211 80.417C226.744 81.0505 227.011 81.9574 227.011 83.1377V83.6641H222C222.018 84.3932 222.23 84.9834 222.636 85.4346C223.046 85.8812 223.565 86.1045 224.194 86.1045C224.641 86.1045 225.019 86.0133 225.329 85.8311C225.639 85.6488 225.91 85.4072 226.143 85.1064L226.915 85.708C226.295 86.6605 225.366 87.1367 224.126 87.1367ZM223.969 80.5059C223.458 80.5059 223.03 80.6927 222.684 81.0664C222.337 81.4355 222.123 81.9551 222.041 82.625H225.746V82.5293C225.71 81.8867 225.536 81.39 225.227 81.0391C224.917 80.6836 224.497 80.5059 223.969 80.5059ZM230.104 87H228.84V76.5H230.104V87ZM232.05 83.2334C232.05 82.5088 232.191 81.8571 232.474 81.2783C232.761 80.6995 233.157 80.2529 233.663 79.9385C234.174 79.624 234.755 79.4668 235.406 79.4668C236.413 79.4668 237.227 79.8154 237.847 80.5127C238.471 81.21 238.783 82.1374 238.783 83.2949V83.3838C238.783 84.1038 238.644 84.751 238.366 85.3252C238.093 85.8949 237.699 86.3392 237.184 86.6582C236.673 86.9772 236.085 87.1367 235.42 87.1367C234.417 87.1367 233.604 86.7881 232.979 86.0908C232.36 85.3936 232.05 84.4707 232.05 83.3223V83.2334ZM233.321 83.3838C233.321 84.2041 233.51 84.8626 233.889 85.3594C234.271 85.8561 234.782 86.1045 235.42 86.1045C236.062 86.1045 236.573 85.8538 236.951 85.3525C237.329 84.8467 237.519 84.1403 237.519 83.2334C237.519 82.4222 237.325 81.766 236.938 81.2646C236.555 80.7588 236.044 80.5059 235.406 80.5059C234.782 80.5059 234.278 80.7542 233.896 81.251C233.513 81.7477 233.321 82.4587 233.321 83.3838ZM246.867 83.3838C246.867 84.5094 246.61 85.4163 246.095 86.1045C245.58 86.7926 244.882 87.1367 244.003 87.1367C243.105 87.1367 242.399 86.8519 241.884 86.2822V89.8438H240.619V79.6035H241.774L241.836 80.4238C242.351 79.7858 243.066 79.4668 243.982 79.4668C244.871 79.4668 245.573 79.8018 246.088 80.4717C246.607 81.1416 246.867 82.0736 246.867 83.2676V83.3838ZM245.603 83.2402C245.603 82.4062 245.425 81.7477 245.069 81.2646C244.714 80.7816 244.226 80.54 243.606 80.54C242.841 80.54 242.267 80.8796 241.884 81.5586V85.0928C242.262 85.7673 242.841 86.1045 243.62 86.1045C244.226 86.1045 244.707 85.8652 245.062 85.3867C245.423 84.9036 245.603 84.1882 245.603 83.2402ZM251.8 87.1367C250.797 87.1367 249.981 86.8086 249.353 86.1523C248.724 85.4915 248.409 84.6097 248.409 83.5068V83.2744C248.409 82.5407 248.548 81.8867 248.826 81.3125C249.109 80.7337 249.501 80.2826 250.002 79.959C250.508 79.6309 251.055 79.4668 251.643 79.4668C252.604 79.4668 253.352 79.7835 253.885 80.417C254.418 81.0505 254.685 81.9574 254.685 83.1377V83.6641H249.674C249.692 84.3932 249.904 84.9834 250.31 85.4346C250.72 85.8812 251.239 86.1045 251.868 86.1045C252.315 86.1045 252.693 86.0133 253.003 85.8311C253.313 85.6488 253.584 85.4072 253.816 85.1064L254.589 85.708C253.969 86.6605 253.039 87.1367 251.8 87.1367ZM251.643 80.5059C251.132 80.5059 250.704 80.6927 250.357 81.0664C250.011 81.4355 249.797 81.9551 249.715 82.625H253.42V82.5293C253.383 81.8867 253.21 81.39 252.9 81.0391C252.59 80.6836 252.171 80.5059 251.643 80.5059ZM259.979 80.7383C259.788 80.7064 259.581 80.6904 259.357 80.6904C258.528 80.6904 257.965 81.0436 257.669 81.75V87H256.404V79.6035H257.635L257.655 80.458C258.07 79.7972 258.658 79.4668 259.419 79.4668C259.665 79.4668 259.852 79.4987 259.979 79.5625V80.7383ZM265.705 85.0381C265.705 84.6963 265.575 84.432 265.315 84.2451C265.06 84.0537 264.611 83.8896 263.969 83.7529C263.331 83.6162 262.823 83.4521 262.444 83.2607C262.071 83.0693 261.793 82.8415 261.61 82.5771C261.433 82.3128 261.344 81.9984 261.344 81.6338C261.344 81.0277 261.599 80.515 262.109 80.0957C262.624 79.6764 263.281 79.4668 264.078 79.4668C264.917 79.4668 265.596 79.6833 266.115 80.1162C266.639 80.5492 266.901 81.1029 266.901 81.7773H265.63C265.63 81.431 265.482 81.1325 265.186 80.8818C264.894 80.6312 264.525 80.5059 264.078 80.5059C263.618 80.5059 263.258 80.6061 262.998 80.8066C262.738 81.0072 262.608 81.2692 262.608 81.5928C262.608 81.8981 262.729 82.1283 262.971 82.2832C263.212 82.4382 263.647 82.5863 264.276 82.7275C264.91 82.8688 265.423 83.0374 265.814 83.2334C266.206 83.4294 266.496 83.6663 266.683 83.9443C266.874 84.2178 266.97 84.5527 266.97 84.9492C266.97 85.61 266.705 86.141 266.177 86.542C265.648 86.9385 264.962 87.1367 264.119 87.1367C263.527 87.1367 263.003 87.0319 262.547 86.8223C262.091 86.6126 261.733 86.321 261.474 85.9473C261.218 85.569 261.091 85.1611 261.091 84.7236H262.355C262.378 85.1475 262.547 85.4847 262.861 85.7354C263.18 85.9814 263.6 86.1045 264.119 86.1045C264.598 86.1045 264.98 86.0088 265.268 85.8174C265.559 85.6214 265.705 85.3617 265.705 85.0381ZM24.6221 103.233C24.6221 102.509 24.7633 101.857 25.0459 101.278C25.333 100.7 25.7295 100.253 26.2354 99.9385C26.7458 99.624 27.3268 99.4668 27.9785 99.4668C28.9857 99.4668 29.7992 99.8154 30.4189 100.513C31.0433 101.21 31.3555 102.137 31.3555 103.295V103.384C31.3555 104.104 31.2165 104.751 30.9385 105.325C30.665 105.895 30.2708 106.339 29.7559 106.658C29.2454 106.977 28.6576 107.137 27.9922 107.137C26.9896 107.137 26.1761 106.788 25.5518 106.091C24.932 105.394 24.6221 104.471 24.6221 103.322V103.233ZM25.8936 103.384C25.8936 104.204 26.0827 104.863 26.4609 105.359C26.8438 105.856 27.3542 106.104 27.9922 106.104C28.6348 106.104 29.1452 105.854 29.5234 105.353C29.9017 104.847 30.0908 104.14 30.0908 103.233C30.0908 102.422 29.8971 101.766 29.5098 101.265C29.127 100.759 28.6165 100.506 27.9785 100.506C27.3542 100.506 26.8506 100.754 26.4678 101.251C26.085 101.748 25.8936 102.459 25.8936 103.384ZM37.7578 106.269C37.2656 106.847 36.5433 107.137 35.5908 107.137C34.8024 107.137 34.2008 106.909 33.7861 106.453C33.376 105.993 33.1686 105.314 33.1641 104.416V99.6035H34.4287V104.382C34.4287 105.503 34.8844 106.063 35.7959 106.063C36.762 106.063 37.4046 105.703 37.7236 104.983V99.6035H38.9883V107H37.7852L37.7578 106.269ZM44.7412 100.738C44.5498 100.706 44.3424 100.69 44.1191 100.69C43.2897 100.69 42.7269 101.044 42.4307 101.75V107H41.166V99.6035H42.3965L42.417 100.458C42.8317 99.7972 43.4196 99.4668 44.1807 99.4668C44.4268 99.4668 44.6136 99.4987 44.7412 99.5625V100.738ZM49.5479 103.233C49.5479 102.509 49.6891 101.857 49.9717 101.278C50.2588 100.7 50.6553 100.253 51.1611 99.9385C51.6715 99.624 52.2526 99.4668 52.9043 99.4668C53.9115 99.4668 54.7249 99.8154 55.3447 100.513C55.9691 101.21 56.2812 102.137 56.2812 103.295V103.384C56.2812 104.104 56.1423 104.751 55.8643 105.325C55.5908 105.895 55.1966 106.339 54.6816 106.658C54.1712 106.977 53.5833 107.137 52.918 107.137C51.9154 107.137 51.1019 106.788 50.4775 106.091C49.8577 105.394 49.5479 104.471 49.5479 103.322V103.233ZM50.8193 103.384C50.8193 104.204 51.0085 104.863 51.3867 105.359C51.7695 105.856 52.2799 106.104 52.918 106.104C53.5605 106.104 54.071 105.854 54.4492 105.353C54.8275 104.847 55.0166 104.14 55.0166 103.233C55.0166 102.422 54.8229 101.766 54.4355 101.265C54.0527 100.759 53.5423 100.506 52.9043 100.506C52.2799 100.506 51.7764 100.754 51.3936 101.251C51.0107 101.748 50.8193 102.459 50.8193 103.384ZM58.7393 107V100.581H57.5703V99.6035H58.7393V98.8447C58.7393 98.0518 58.9512 97.4388 59.375 97.0059C59.7988 96.5729 60.3981 96.3564 61.1729 96.3564C61.4645 96.3564 61.7539 96.3952 62.041 96.4727L61.9727 97.498C61.7585 97.457 61.5306 97.4365 61.2891 97.4365C60.8789 97.4365 60.5622 97.5573 60.3389 97.7988C60.1156 98.0358 60.0039 98.3776 60.0039 98.8242V99.6035H62.7383V98.9746C62.7383 98.1497 62.973 97.5072 63.4424 97.0469C63.9163 96.5866 64.584 96.3564 65.4453 96.3564C65.9557 96.3564 66.6006 96.4954 67.3799 96.7734L67.168 97.8398C66.5983 97.612 66.0537 97.498 65.5342 97.498C64.9919 97.498 64.5999 97.6188 64.3584 97.8604C64.1214 98.1019 64.0029 98.4688 64.0029 98.9609V99.6035H65.5205V100.581H64.0029V107H62.7383V100.581H60.0039V107H58.7393ZM68.002 107H66.7373V99.6035H68.002V107ZM73.2832 106.104C73.7344 106.104 74.1286 105.968 74.4658 105.694C74.8031 105.421 74.9899 105.079 75.0264 104.669H76.2227C76.1999 105.093 76.054 105.496 75.7852 105.879C75.5163 106.262 75.1562 106.567 74.7051 106.795C74.2585 107.023 73.7845 107.137 73.2832 107.137C72.276 107.137 71.474 106.802 70.877 106.132C70.2845 105.457 69.9883 104.537 69.9883 103.37V103.158C69.9883 102.438 70.1204 101.798 70.3848 101.237C70.6491 100.677 71.0273 100.242 71.5195 99.9316C72.0163 99.6217 72.6019 99.4668 73.2764 99.4668C74.1058 99.4668 74.7939 99.7152 75.3408 100.212C75.8923 100.709 76.1862 101.354 76.2227 102.146H75.0264C74.9899 101.668 74.8076 101.276 74.4795 100.971C74.1559 100.661 73.7549 100.506 73.2764 100.506C72.6338 100.506 72.1348 100.738 71.7793 101.203C71.4284 101.663 71.2529 102.331 71.2529 103.206V103.445C71.2529 104.298 71.4284 104.954 71.7793 105.414C72.1302 105.874 72.6315 106.104 73.2832 106.104ZM79.2686 107H78.0039V99.6035H79.2686V107ZM77.9014 97.6416C77.9014 97.4365 77.9629 97.2633 78.0859 97.1221C78.2135 96.9808 78.4004 96.9102 78.6465 96.9102C78.8926 96.9102 79.0794 96.9808 79.207 97.1221C79.3346 97.2633 79.3984 97.4365 79.3984 97.6416C79.3984 97.8467 79.3346 98.0176 79.207 98.1543C79.0794 98.291 78.8926 98.3594 78.6465 98.3594C78.4004 98.3594 78.2135 98.291 78.0859 98.1543C77.9629 98.0176 77.9014 97.8467 77.9014 97.6416ZM86.1152 107C86.0423 106.854 85.9831 106.594 85.9375 106.221C85.3496 106.831 84.6478 107.137 83.832 107.137C83.1029 107.137 82.5036 106.932 82.0342 106.521C81.5693 106.107 81.3369 105.583 81.3369 104.949C81.3369 104.179 81.6286 103.582 82.2119 103.158C82.7998 102.73 83.6247 102.516 84.6865 102.516H85.917V101.935C85.917 101.493 85.7848 101.142 85.5205 100.882C85.2562 100.618 84.8665 100.485 84.3516 100.485C83.9004 100.485 83.5221 100.599 83.2168 100.827C82.9115 101.055 82.7588 101.331 82.7588 101.654H81.4873C81.4873 101.285 81.6172 100.93 81.877 100.588C82.1413 100.242 82.4967 99.9681 82.9434 99.7676C83.3945 99.5671 83.889 99.4668 84.4268 99.4668C85.279 99.4668 85.9466 99.681 86.4297 100.109C86.9128 100.533 87.1634 101.119 87.1816 101.866V105.271C87.1816 105.95 87.2682 106.49 87.4414 106.891V107H86.1152ZM84.0166 106.036C84.4131 106.036 84.7891 105.934 85.1445 105.729C85.5 105.523 85.7575 105.257 85.917 104.929V103.411H84.9258C83.3763 103.411 82.6016 103.865 82.6016 104.771C82.6016 105.168 82.7337 105.478 82.998 105.701C83.2624 105.924 83.6019 106.036 84.0166 106.036ZM90.7881 107H89.5234V96.5H90.7881V107ZM98.165 107H96.9004V96.5H98.165V107ZM101.819 107H100.555V99.6035H101.819V107ZM100.452 97.6416C100.452 97.4365 100.514 97.2633 100.637 97.1221C100.764 96.9808 100.951 96.9102 101.197 96.9102C101.443 96.9102 101.63 96.9808 101.758 97.1221C101.885 97.2633 101.949 97.4365 101.949 97.6416C101.949 97.8467 101.885 98.0176 101.758 98.1543C101.63 98.291 101.443 98.3594 101.197 98.3594C100.951 98.3594 100.764 98.291 100.637 98.1543C100.514 98.0176 100.452 97.8467 100.452 97.6416ZM108.406 105.038C108.406 104.696 108.276 104.432 108.017 104.245C107.761 104.054 107.312 103.89 106.67 103.753C106.032 103.616 105.524 103.452 105.146 103.261C104.772 103.069 104.494 102.841 104.312 102.577C104.134 102.313 104.045 101.998 104.045 101.634C104.045 101.028 104.3 100.515 104.811 100.096C105.326 99.6764 105.982 99.4668 106.779 99.4668C107.618 99.4668 108.297 99.6833 108.816 100.116C109.34 100.549 109.603 101.103 109.603 101.777H108.331C108.331 101.431 108.183 101.132 107.887 100.882C107.595 100.631 107.226 100.506 106.779 100.506C106.319 100.506 105.959 100.606 105.699 100.807C105.439 101.007 105.31 101.269 105.31 101.593C105.31 101.898 105.43 102.128 105.672 102.283C105.913 102.438 106.349 102.586 106.978 102.728C107.611 102.869 108.124 103.037 108.516 103.233C108.908 103.429 109.197 103.666 109.384 103.944C109.575 104.218 109.671 104.553 109.671 104.949C109.671 105.61 109.407 106.141 108.878 106.542C108.349 106.938 107.663 107.137 106.82 107.137C106.228 107.137 105.704 107.032 105.248 106.822C104.792 106.613 104.435 106.321 104.175 105.947C103.92 105.569 103.792 105.161 103.792 104.724H105.057C105.079 105.147 105.248 105.485 105.562 105.735C105.882 105.981 106.301 106.104 106.82 106.104C107.299 106.104 107.682 106.009 107.969 105.817C108.26 105.621 108.406 105.362 108.406 105.038ZM113.284 97.8125V99.6035H114.665V100.581H113.284V105.168C113.284 105.464 113.346 105.688 113.469 105.838C113.592 105.984 113.801 106.057 114.098 106.057C114.243 106.057 114.444 106.029 114.699 105.975V107C114.367 107.091 114.043 107.137 113.729 107.137C113.163 107.137 112.737 106.966 112.45 106.624C112.163 106.282 112.02 105.797 112.02 105.168V100.581H110.673V99.6035H112.02V97.8125H113.284ZM119.786 103.233C119.786 102.509 119.927 101.857 120.21 101.278C120.497 100.7 120.894 100.253 121.399 99.9385C121.91 99.624 122.491 99.4668 123.143 99.4668C124.15 99.4668 124.963 99.8154 125.583 100.513C126.207 101.21 126.52 102.137 126.52 103.295V103.384C126.52 104.104 126.381 104.751 126.103 105.325C125.829 105.895 125.435 106.339 124.92 106.658C124.41 106.977 123.822 107.137 123.156 107.137C122.154 107.137 121.34 106.788 120.716 106.091C120.096 105.394 119.786 104.471 119.786 103.322V103.233ZM121.058 103.384C121.058 104.204 121.247 104.863 121.625 105.359C122.008 105.856 122.518 106.104 123.156 106.104C123.799 106.104 124.309 105.854 124.688 105.353C125.066 104.847 125.255 104.14 125.255 103.233C125.255 102.422 125.061 101.766 124.674 101.265C124.291 100.759 123.781 100.506 123.143 100.506C122.518 100.506 122.015 100.754 121.632 101.251C121.249 101.748 121.058 102.459 121.058 103.384ZM128.978 107V100.581H127.809V99.6035H128.978V98.8447C128.978 98.0518 129.189 97.4388 129.613 97.0059C130.037 96.5729 130.636 96.3564 131.411 96.3564C131.703 96.3564 131.992 96.3952 132.279 96.4727L132.211 97.498C131.997 97.457 131.769 97.4365 131.527 97.4365C131.117 97.4365 130.8 97.5573 130.577 97.7988C130.354 98.0358 130.242 98.3776 130.242 98.8242V99.6035H131.821V100.581H130.242V107H128.978ZM136.888 103.24C136.888 102.105 137.157 101.194 137.694 100.506C138.232 99.8132 138.936 99.4668 139.807 99.4668C140.673 99.4668 141.358 99.763 141.864 100.355V96.5H143.129V107H141.967L141.905 106.207C141.399 106.827 140.695 107.137 139.793 107.137C138.936 107.137 138.237 106.786 137.694 106.084C137.157 105.382 136.888 104.466 136.888 103.336V103.24ZM138.152 103.384C138.152 104.222 138.326 104.879 138.672 105.353C139.018 105.826 139.497 106.063 140.107 106.063C140.91 106.063 141.495 105.703 141.864 104.983V101.586C141.486 100.889 140.905 100.54 140.121 100.54C139.501 100.54 139.018 100.779 138.672 101.258C138.326 101.736 138.152 102.445 138.152 103.384ZM148.417 107.137C147.414 107.137 146.599 106.809 145.97 106.152C145.341 105.492 145.026 104.61 145.026 103.507V103.274C145.026 102.541 145.165 101.887 145.443 101.312C145.726 100.734 146.118 100.283 146.619 99.959C147.125 99.6309 147.672 99.4668 148.26 99.4668C149.221 99.4668 149.969 99.7835 150.502 100.417C151.035 101.05 151.302 101.957 151.302 103.138V103.664H146.291C146.309 104.393 146.521 104.983 146.927 105.435C147.337 105.881 147.856 106.104 148.485 106.104C148.932 106.104 149.31 106.013 149.62 105.831C149.93 105.649 150.201 105.407 150.434 105.106L151.206 105.708C150.586 106.66 149.657 107.137 148.417 107.137ZM148.26 100.506C147.749 100.506 147.321 100.693 146.975 101.066C146.628 101.436 146.414 101.955 146.332 102.625H150.037V102.529C150.001 101.887 149.827 101.39 149.518 101.039C149.208 100.684 148.788 100.506 148.26 100.506ZM155.366 105.284L157.198 99.6035H158.49L155.838 107H154.874L152.194 99.6035H153.486L155.366 105.284ZM161.331 107H160.066V99.6035H161.331V107ZM159.964 97.6416C159.964 97.4365 160.025 97.2633 160.148 97.1221C160.276 96.9808 160.463 96.9102 160.709 96.9102C160.955 96.9102 161.142 96.9808 161.27 97.1221C161.397 97.2633 161.461 97.4365 161.461 97.6416C161.461 97.8467 161.397 98.0176 161.27 98.1543C161.142 98.291 160.955 98.3594 160.709 98.3594C160.463 98.3594 160.276 98.291 160.148 98.1543C160.025 98.0176 159.964 97.8467 159.964 97.6416ZM166.578 106.104C167.029 106.104 167.424 105.968 167.761 105.694C168.098 105.421 168.285 105.079 168.321 104.669H169.518C169.495 105.093 169.349 105.496 169.08 105.879C168.811 106.262 168.451 106.567 168 106.795C167.553 107.023 167.079 107.137 166.578 107.137C165.571 107.137 164.769 106.802 164.172 106.132C163.579 105.457 163.283 104.537 163.283 103.37V103.158C163.283 102.438 163.415 101.798 163.68 101.237C163.944 100.677 164.322 100.242 164.814 99.9316C165.311 99.6217 165.897 99.4668 166.571 99.4668C167.401 99.4668 168.089 99.7152 168.636 100.212C169.187 100.709 169.481 101.354 169.518 102.146H168.321C168.285 101.668 168.103 101.276 167.774 100.971C167.451 100.661 167.05 100.506 166.571 100.506C165.929 100.506 165.43 100.738 165.074 101.203C164.723 101.663 164.548 102.331 164.548 103.206V103.445C164.548 104.298 164.723 104.954 165.074 105.414C165.425 105.874 165.926 106.104 166.578 106.104ZM174.259 107.137C173.256 107.137 172.44 106.809 171.812 106.152C171.183 105.492 170.868 104.61 170.868 103.507V103.274C170.868 102.541 171.007 101.887 171.285 101.312C171.568 100.734 171.96 100.283 172.461 99.959C172.967 99.6309 173.514 99.4668 174.102 99.4668C175.063 99.4668 175.811 99.7835 176.344 100.417C176.877 101.05 177.144 101.957 177.144 103.138V103.664H172.133C172.151 104.393 172.363 104.983 172.769 105.435C173.179 105.881 173.698 106.104 174.327 106.104C174.774 106.104 175.152 106.013 175.462 105.831C175.772 105.649 176.043 105.407 176.275 105.106L177.048 105.708C176.428 106.66 175.498 107.137 174.259 107.137ZM174.102 100.506C173.591 100.506 173.163 100.693 172.816 101.066C172.47 101.436 172.256 101.955 172.174 102.625H175.879V102.529C175.842 101.887 175.669 101.39 175.359 101.039C175.049 100.684 174.63 100.506 174.102 100.506ZM183.17 105.038C183.17 104.696 183.04 104.432 182.78 104.245C182.525 104.054 182.076 103.89 181.434 103.753C180.796 103.616 180.287 103.452 179.909 103.261C179.535 103.069 179.257 102.841 179.075 102.577C178.897 102.313 178.809 101.998 178.809 101.634C178.809 101.028 179.064 100.515 179.574 100.096C180.089 99.6764 180.745 99.4668 181.543 99.4668C182.382 99.4668 183.061 99.6833 183.58 100.116C184.104 100.549 184.366 101.103 184.366 101.777H183.095C183.095 101.431 182.947 101.132 182.65 100.882C182.359 100.631 181.99 100.506 181.543 100.506C181.083 100.506 180.723 100.606 180.463 100.807C180.203 101.007 180.073 101.269 180.073 101.593C180.073 101.898 180.194 102.128 180.436 102.283C180.677 102.438 181.112 102.586 181.741 102.728C182.375 102.869 182.887 103.037 183.279 103.233C183.671 103.429 183.961 103.666 184.147 103.944C184.339 104.218 184.435 104.553 184.435 104.949C184.435 105.61 184.17 106.141 183.642 106.542C183.113 106.938 182.427 107.137 181.584 107.137C180.992 107.137 180.467 107.032 180.012 106.822C179.556 106.613 179.198 106.321 178.938 105.947C178.683 105.569 178.556 105.161 178.556 104.724H179.82C179.843 105.147 180.012 105.485 180.326 105.735C180.645 105.981 181.064 106.104 181.584 106.104C182.062 106.104 182.445 106.009 182.732 105.817C183.024 105.621 183.17 105.362 183.17 105.038ZM191.429 107H190.164V99.6035H191.429V107ZM190.062 97.6416C190.062 97.4365 190.123 97.2633 190.246 97.1221C190.374 96.9808 190.561 96.9102 190.807 96.9102C191.053 96.9102 191.24 96.9808 191.367 97.1221C191.495 97.2633 191.559 97.4365 191.559 97.6416C191.559 97.8467 191.495 98.0176 191.367 98.1543C191.24 98.291 191.053 98.3594 190.807 98.3594C190.561 98.3594 190.374 98.291 190.246 98.1543C190.123 98.0176 190.062 97.8467 190.062 97.6416ZM198.016 105.038C198.016 104.696 197.886 104.432 197.626 104.245C197.371 104.054 196.922 103.89 196.279 103.753C195.641 103.616 195.133 103.452 194.755 103.261C194.381 103.069 194.103 102.841 193.921 102.577C193.743 102.313 193.654 101.998 193.654 101.634C193.654 101.028 193.91 100.515 194.42 100.096C194.935 99.6764 195.591 99.4668 196.389 99.4668C197.227 99.4668 197.906 99.6833 198.426 100.116C198.95 100.549 199.212 101.103 199.212 101.777H197.94C197.94 101.431 197.792 101.132 197.496 100.882C197.204 100.631 196.835 100.506 196.389 100.506C195.928 100.506 195.568 100.606 195.309 100.807C195.049 101.007 194.919 101.269 194.919 101.593C194.919 101.898 195.04 102.128 195.281 102.283C195.523 102.438 195.958 102.586 196.587 102.728C197.22 102.869 197.733 103.037 198.125 103.233C198.517 103.429 198.806 103.666 198.993 103.944C199.185 104.218 199.28 104.553 199.28 104.949C199.28 105.61 199.016 106.141 198.487 106.542C197.959 106.938 197.273 107.137 196.43 107.137C195.837 107.137 195.313 107.032 194.857 106.822C194.402 106.613 194.044 106.321 193.784 105.947C193.529 105.569 193.401 105.161 193.401 104.724H194.666C194.689 105.147 194.857 105.485 195.172 105.735C195.491 105.981 195.91 106.104 196.43 106.104C196.908 106.104 197.291 106.009 197.578 105.817C197.87 105.621 198.016 105.362 198.016 105.038ZM209.467 107C209.394 106.854 209.335 106.594 209.289 106.221C208.701 106.831 207.999 107.137 207.184 107.137C206.454 107.137 205.855 106.932 205.386 106.521C204.921 106.107 204.688 105.583 204.688 104.949C204.688 104.179 204.98 103.582 205.563 103.158C206.151 102.73 206.976 102.516 208.038 102.516H209.269V101.935C209.269 101.493 209.136 101.142 208.872 100.882C208.608 100.618 208.218 100.485 207.703 100.485C207.252 100.485 206.874 100.599 206.568 100.827C206.263 101.055 206.11 101.331 206.11 101.654H204.839C204.839 101.285 204.969 100.93 205.229 100.588C205.493 100.242 205.848 99.9681 206.295 99.7676C206.746 99.5671 207.241 99.4668 207.778 99.4668C208.631 99.4668 209.298 99.681 209.781 100.109C210.264 100.533 210.515 101.119 210.533 101.866V105.271C210.533 105.95 210.62 106.49 210.793 106.891V107H209.467ZM207.368 106.036C207.765 106.036 208.141 105.934 208.496 105.729C208.852 105.523 209.109 105.257 209.269 104.929V103.411H208.277C206.728 103.411 205.953 103.865 205.953 104.771C205.953 105.168 206.085 105.478 206.35 105.701C206.614 105.924 206.953 106.036 207.368 106.036ZM214.14 107H212.875V96.5H214.14V107ZM220.727 105.038C220.727 104.696 220.597 104.432 220.337 104.245C220.082 104.054 219.633 103.89 218.99 103.753C218.352 103.616 217.844 103.452 217.466 103.261C217.092 103.069 216.814 102.841 216.632 102.577C216.454 102.313 216.365 101.998 216.365 101.634C216.365 101.028 216.62 100.515 217.131 100.096C217.646 99.6764 218.302 99.4668 219.1 99.4668C219.938 99.4668 220.617 99.6833 221.137 100.116C221.661 100.549 221.923 101.103 221.923 101.777H220.651C220.651 101.431 220.503 101.132 220.207 100.882C219.915 100.631 219.546 100.506 219.1 100.506C218.639 100.506 218.279 100.606 218.02 100.807C217.76 101.007 217.63 101.269 217.63 101.593C217.63 101.898 217.751 102.128 217.992 102.283C218.234 102.438 218.669 102.586 219.298 102.728C219.931 102.869 220.444 103.037 220.836 103.233C221.228 103.429 221.517 103.666 221.704 103.944C221.896 104.218 221.991 104.553 221.991 104.949C221.991 105.61 221.727 106.141 221.198 106.542C220.67 106.938 219.984 107.137 219.141 107.137C218.548 107.137 218.024 107.032 217.568 106.822C217.113 106.613 216.755 106.321 216.495 105.947C216.24 105.569 216.112 105.161 216.112 104.724H217.377C217.4 105.147 217.568 105.485 217.883 105.735C218.202 105.981 218.621 106.104 219.141 106.104C219.619 106.104 220.002 106.009 220.289 105.817C220.581 105.621 220.727 105.362 220.727 105.038ZM223.554 103.233C223.554 102.509 223.695 101.857 223.978 101.278C224.265 100.7 224.661 100.253 225.167 99.9385C225.677 99.624 226.258 99.4668 226.91 99.4668C227.917 99.4668 228.731 99.8154 229.351 100.513C229.975 101.21 230.287 102.137 230.287 103.295V103.384C230.287 104.104 230.148 104.751 229.87 105.325C229.597 105.895 229.202 106.339 228.688 106.658C228.177 106.977 227.589 107.137 226.924 107.137C225.921 107.137 225.108 106.788 224.483 106.091C223.864 105.394 223.554 104.471 223.554 103.322V103.233ZM224.825 103.384C224.825 104.204 225.014 104.863 225.393 105.359C225.775 105.856 226.286 106.104 226.924 106.104C227.566 106.104 228.077 105.854 228.455 105.353C228.833 104.847 229.022 104.14 229.022 103.233C229.022 102.422 228.829 101.766 228.441 101.265C228.059 100.759 227.548 100.506 226.91 100.506C226.286 100.506 225.782 100.754 225.399 101.251C225.017 101.748 224.825 102.459 224.825 103.384ZM26.3311 127H25.0664V119.604H26.3311V127ZM24.9639 117.642C24.9639 117.437 25.0254 117.263 25.1484 117.122C25.276 116.981 25.4629 116.91 25.709 116.91C25.9551 116.91 26.1419 116.981 26.2695 117.122C26.3971 117.263 26.4609 117.437 26.4609 117.642C26.4609 117.847 26.3971 118.018 26.2695 118.154C26.1419 118.291 25.9551 118.359 25.709 118.359C25.4629 118.359 25.276 118.291 25.1484 118.154C25.0254 118.018 24.9639 117.847 24.9639 117.642ZM29.8076 119.604L29.8486 120.533C30.4137 119.822 31.152 119.467 32.0635 119.467C33.6266 119.467 34.415 120.349 34.4287 122.112V127H33.1641V122.105C33.1595 121.572 33.0365 121.178 32.7949 120.923C32.5579 120.668 32.1865 120.54 31.6807 120.54C31.2705 120.54 30.9105 120.649 30.6006 120.868C30.2907 121.087 30.0492 121.374 29.876 121.729V127H28.6113V119.604H29.8076ZM39.5527 126.104C40.0039 126.104 40.3981 125.968 40.7354 125.694C41.0726 125.421 41.2594 125.079 41.2959 124.669H42.4922C42.4694 125.093 42.3236 125.496 42.0547 125.879C41.7858 126.262 41.4258 126.567 40.9746 126.795C40.528 127.023 40.054 127.137 39.5527 127.137C38.5456 127.137 37.7435 126.802 37.1465 126.132C36.554 125.457 36.2578 124.537 36.2578 123.37V123.158C36.2578 122.438 36.39 121.798 36.6543 121.237C36.9186 120.677 37.2969 120.242 37.7891 119.932C38.2858 119.622 38.8714 119.467 39.5459 119.467C40.3753 119.467 41.0635 119.715 41.6104 120.212C42.1618 120.709 42.4557 121.354 42.4922 122.146H41.2959C41.2594 121.668 41.0771 121.276 40.749 120.971C40.4255 120.661 40.0244 120.506 39.5459 120.506C38.9033 120.506 38.4043 120.738 38.0488 121.203C37.6979 121.663 37.5225 122.331 37.5225 123.206V123.445C37.5225 124.298 37.6979 124.954 38.0488 125.414C38.3997 125.874 38.901 126.104 39.5527 126.104ZM47.7393 120.738C47.5479 120.706 47.3405 120.69 47.1172 120.69C46.2878 120.69 45.7249 121.044 45.4287 121.75V127H44.1641V119.604H45.3945L45.415 120.458C45.8298 119.797 46.4176 119.467 47.1787 119.467C47.4248 119.467 47.6117 119.499 47.7393 119.562V120.738ZM52.0908 127.137C51.0882 127.137 50.2725 126.809 49.6436 126.152C49.0146 125.492 48.7002 124.61 48.7002 123.507V123.274C48.7002 122.541 48.8392 121.887 49.1172 121.312C49.3997 120.734 49.7917 120.283 50.293 119.959C50.7988 119.631 51.3457 119.467 51.9336 119.467C52.8952 119.467 53.6426 119.784 54.1758 120.417C54.709 121.05 54.9756 121.957 54.9756 123.138V123.664H49.9648C49.9831 124.393 50.195 124.983 50.6006 125.435C51.0107 125.881 51.5303 126.104 52.1592 126.104C52.6058 126.104 52.984 126.013 53.2939 125.831C53.6038 125.649 53.875 125.407 54.1074 125.106L54.8799 125.708C54.2601 126.66 53.3304 127.137 52.0908 127.137ZM51.9336 120.506C51.4232 120.506 50.9948 120.693 50.6484 121.066C50.3021 121.436 50.0879 121.955 50.0059 122.625H53.7109V122.529C53.6745 121.887 53.5013 121.39 53.1914 121.039C52.8815 120.684 52.4622 120.506 51.9336 120.506ZM61.2617 127C61.1888 126.854 61.1296 126.594 61.084 126.221C60.4961 126.831 59.7943 127.137 58.9785 127.137C58.2493 127.137 57.6501 126.932 57.1807 126.521C56.7158 126.107 56.4834 125.583 56.4834 124.949C56.4834 124.179 56.7751 123.582 57.3584 123.158C57.9463 122.73 58.7712 122.516 59.833 122.516H61.0635V121.935C61.0635 121.493 60.9313 121.142 60.667 120.882C60.4027 120.618 60.013 120.485 59.498 120.485C59.0469 120.485 58.6686 120.599 58.3633 120.827C58.0579 121.055 57.9053 121.331 57.9053 121.654H56.6338C56.6338 121.285 56.7637 120.93 57.0234 120.588C57.2878 120.242 57.6432 119.968 58.0898 119.768C58.541 119.567 59.0355 119.467 59.5732 119.467C60.4255 119.467 61.0931 119.681 61.5762 120.109C62.0592 120.533 62.3099 121.119 62.3281 121.866V125.271C62.3281 125.95 62.4147 126.49 62.5879 126.891V127H61.2617ZM59.1631 126.036C59.5596 126.036 59.9355 125.934 60.291 125.729C60.6465 125.523 60.904 125.257 61.0635 124.929V123.411H60.0723C58.5228 123.411 57.748 123.865 57.748 124.771C57.748 125.168 57.8802 125.478 58.1445 125.701C58.4089 125.924 58.7484 126.036 59.1631 126.036ZM68.8672 125.038C68.8672 124.696 68.7373 124.432 68.4775 124.245C68.2223 124.054 67.7734 123.89 67.1309 123.753C66.4928 123.616 65.9847 123.452 65.6064 123.261C65.2327 123.069 64.9548 122.841 64.7725 122.577C64.5947 122.313 64.5059 121.998 64.5059 121.634C64.5059 121.028 64.7611 120.515 65.2715 120.096C65.7865 119.676 66.4427 119.467 67.2402 119.467C68.0788 119.467 68.7578 119.683 69.2773 120.116C69.8014 120.549 70.0635 121.103 70.0635 121.777H68.792C68.792 121.431 68.6439 121.132 68.3477 120.882C68.056 120.631 67.6868 120.506 67.2402 120.506C66.7799 120.506 66.4199 120.606 66.1602 120.807C65.9004 121.007 65.7705 121.269 65.7705 121.593C65.7705 121.898 65.8913 122.128 66.1328 122.283C66.3743 122.438 66.8096 122.586 67.4385 122.728C68.0719 122.869 68.5846 123.037 68.9766 123.233C69.3685 123.429 69.6579 123.666 69.8447 123.944C70.0361 124.218 70.1318 124.553 70.1318 124.949C70.1318 125.61 69.8675 126.141 69.3389 126.542C68.8102 126.938 68.1243 127.137 67.2812 127.137C66.6888 127.137 66.1647 127.032 65.709 126.822C65.2533 126.613 64.8955 126.321 64.6357 125.947C64.3805 125.569 64.2529 125.161 64.2529 124.724H65.5176C65.5404 125.147 65.709 125.485 66.0234 125.735C66.3424 125.981 66.7617 126.104 67.2812 126.104C67.7598 126.104 68.1426 126.009 68.4297 125.817C68.7214 125.621 68.8672 125.362 68.8672 125.038ZM73.4033 127H72.1387V119.604H73.4033V127ZM72.0361 117.642C72.0361 117.437 72.0977 117.263 72.2207 117.122C72.3483 116.981 72.5352 116.91 72.7812 116.91C73.0273 116.91 73.2142 116.981 73.3418 117.122C73.4694 117.263 73.5332 117.437 73.5332 117.642C73.5332 117.847 73.4694 118.018 73.3418 118.154C73.2142 118.291 73.0273 118.359 72.7812 118.359C72.5352 118.359 72.3483 118.291 72.2207 118.154C72.0977 118.018 72.0361 117.847 72.0361 117.642ZM76.8799 119.604L76.9209 120.533C77.486 119.822 78.2243 119.467 79.1357 119.467C80.6989 119.467 81.4873 120.349 81.501 122.112V127H80.2363V122.105C80.2318 121.572 80.1087 121.178 79.8672 120.923C79.6302 120.668 79.2588 120.54 78.7529 120.54C78.3428 120.54 77.9827 120.649 77.6729 120.868C77.363 121.087 77.1214 121.374 76.9482 121.729V127H75.6836V119.604H76.8799ZM83.3574 123.24C83.3574 122.087 83.624 121.171 84.1572 120.492C84.6904 119.809 85.3968 119.467 86.2764 119.467C87.1787 119.467 87.8828 119.786 88.3887 120.424L88.4502 119.604H89.6055V126.822C89.6055 127.779 89.3206 128.534 88.751 129.085C88.1859 129.636 87.4248 129.912 86.4678 129.912C85.9346 129.912 85.4128 129.798 84.9023 129.57C84.3919 129.342 84.0023 129.03 83.7334 128.634L84.3896 127.875C84.932 128.545 85.5951 128.88 86.3789 128.88C86.9941 128.88 87.4727 128.707 87.8145 128.36C88.1608 128.014 88.334 127.526 88.334 126.897V126.262C87.8281 126.845 87.1377 127.137 86.2627 127.137C85.3968 127.137 84.695 126.788 84.1572 126.091C83.624 125.394 83.3574 124.443 83.3574 123.24ZM84.6289 123.384C84.6289 124.218 84.7998 124.874 85.1416 125.353C85.4834 125.826 85.9619 126.063 86.5771 126.063C87.3747 126.063 87.9603 125.701 88.334 124.977V121.6C87.9466 120.893 87.3656 120.54 86.5908 120.54C85.9756 120.54 85.4948 120.779 85.1484 121.258C84.8021 121.736 84.6289 122.445 84.6289 123.384ZM91.7969 126.337C91.7969 126.118 91.8607 125.936 91.9883 125.79C92.1204 125.644 92.3164 125.571 92.5762 125.571C92.8359 125.571 93.0319 125.644 93.1641 125.79C93.3008 125.936 93.3691 126.118 93.3691 126.337C93.3691 126.547 93.3008 126.722 93.1641 126.863C93.0319 127.005 92.8359 127.075 92.5762 127.075C92.3164 127.075 92.1204 127.005 91.9883 126.863C91.8607 126.722 91.7969 126.547 91.7969 126.337ZM102.161 122.372L100.944 123.637V127H99.6318V117.047H100.944V121.969L105.367 117.047H106.953L103.036 121.442L107.261 127H105.688L102.161 122.372ZM111.353 127.137C110.35 127.137 109.534 126.809 108.905 126.152C108.276 125.492 107.962 124.61 107.962 123.507V123.274C107.962 122.541 108.101 121.887 108.379 121.312C108.661 120.734 109.053 120.283 109.555 119.959C110.061 119.631 110.607 119.467 111.195 119.467C112.157 119.467 112.904 119.784 113.438 120.417C113.971 121.05 114.237 121.957 114.237 123.138V123.664H109.227C109.245 124.393 109.457 124.983 109.862 125.435C110.272 125.881 110.792 126.104 111.421 126.104C111.868 126.104 112.246 126.013 112.556 125.831C112.866 125.649 113.137 125.407 113.369 125.106L114.142 125.708C113.522 126.66 112.592 127.137 111.353 127.137ZM111.195 120.506C110.685 120.506 110.257 120.693 109.91 121.066C109.564 121.436 109.35 121.955 109.268 122.625H112.973V122.529C112.936 121.887 112.763 121.39 112.453 121.039C112.143 120.684 111.724 120.506 111.195 120.506ZM119.026 127.137C118.024 127.137 117.208 126.809 116.579 126.152C115.95 125.492 115.636 124.61 115.636 123.507V123.274C115.636 122.541 115.775 121.887 116.053 121.312C116.335 120.734 116.727 120.283 117.229 119.959C117.734 119.631 118.281 119.467 118.869 119.467C119.831 119.467 120.578 119.784 121.111 120.417C121.645 121.05 121.911 121.957 121.911 123.138V123.664H116.9C116.919 124.393 117.131 124.983 117.536 125.435C117.946 125.881 118.466 126.104 119.095 126.104C119.541 126.104 119.92 126.013 120.229 125.831C120.539 125.649 120.811 125.407 121.043 125.106L121.815 125.708C121.196 126.66 120.266 127.137 119.026 127.137ZM118.869 120.506C118.359 120.506 117.93 120.693 117.584 121.066C117.238 121.436 117.023 121.955 116.941 122.625H120.646V122.529C120.61 121.887 120.437 121.39 120.127 121.039C119.817 120.684 119.398 120.506 118.869 120.506ZM129.879 123.384C129.879 124.509 129.621 125.416 129.106 126.104C128.591 126.793 127.894 127.137 127.015 127.137C126.117 127.137 125.41 126.852 124.896 126.282V129.844H123.631V119.604H124.786L124.848 120.424C125.363 119.786 126.078 119.467 126.994 119.467C127.883 119.467 128.585 119.802 129.1 120.472C129.619 121.142 129.879 122.074 129.879 123.268V123.384ZM128.614 123.24C128.614 122.406 128.437 121.748 128.081 121.265C127.726 120.782 127.238 120.54 126.618 120.54C125.853 120.54 125.278 120.88 124.896 121.559V125.093C125.274 125.767 125.853 126.104 126.632 126.104C127.238 126.104 127.719 125.865 128.074 125.387C128.434 124.904 128.614 124.188 128.614 123.24ZM138.432 126.104C138.883 126.104 139.277 125.968 139.614 125.694C139.951 125.421 140.138 125.079 140.175 124.669H141.371C141.348 125.093 141.202 125.496 140.934 125.879C140.665 126.262 140.305 126.567 139.854 126.795C139.407 127.023 138.933 127.137 138.432 127.137C137.424 127.137 136.622 126.802 136.025 126.132C135.433 125.457 135.137 124.537 135.137 123.37V123.158C135.137 122.438 135.269 121.798 135.533 121.237C135.798 120.677 136.176 120.242 136.668 119.932C137.165 119.622 137.75 119.467 138.425 119.467C139.254 119.467 139.942 119.715 140.489 120.212C141.041 120.709 141.335 121.354 141.371 122.146H140.175C140.138 121.668 139.956 121.276 139.628 120.971C139.304 120.661 138.903 120.506 138.425 120.506C137.782 120.506 137.283 120.738 136.928 121.203C136.577 121.663 136.401 122.331 136.401 123.206V123.445C136.401 124.298 136.577 124.954 136.928 125.414C137.279 125.874 137.78 126.104 138.432 126.104ZM144.308 120.499C144.868 119.811 145.597 119.467 146.495 119.467C148.058 119.467 148.847 120.349 148.86 122.112V127H147.596V122.105C147.591 121.572 147.468 121.178 147.227 120.923C146.99 120.668 146.618 120.54 146.112 120.54C145.702 120.54 145.342 120.649 145.032 120.868C144.722 121.087 144.481 121.374 144.308 121.729V127H143.043V116.5H144.308V120.499ZM154.073 127.137C153.071 127.137 152.255 126.809 151.626 126.152C150.997 125.492 150.683 124.61 150.683 123.507V123.274C150.683 122.541 150.822 121.887 151.1 121.312C151.382 120.734 151.774 120.283 152.275 119.959C152.781 119.631 153.328 119.467 153.916 119.467C154.878 119.467 155.625 119.784 156.158 120.417C156.691 121.05 156.958 121.957 156.958 123.138V123.664H151.947C151.965 124.393 152.177 124.983 152.583 125.435C152.993 125.881 153.513 126.104 154.142 126.104C154.588 126.104 154.966 126.013 155.276 125.831C155.586 125.649 155.857 125.407 156.09 125.106L156.862 125.708C156.243 126.66 155.313 127.137 154.073 127.137ZM153.916 120.506C153.406 120.506 152.977 120.693 152.631 121.066C152.285 121.436 152.07 121.955 151.988 122.625H155.693V122.529C155.657 121.887 155.484 121.39 155.174 121.039C154.864 120.684 154.445 120.506 153.916 120.506ZM161.645 126.104C162.096 126.104 162.49 125.968 162.827 125.694C163.164 125.421 163.351 125.079 163.388 124.669H164.584C164.561 125.093 164.415 125.496 164.146 125.879C163.878 126.262 163.518 126.567 163.066 126.795C162.62 127.023 162.146 127.137 161.645 127.137C160.637 127.137 159.835 126.802 159.238 126.132C158.646 125.457 158.35 124.537 158.35 123.37V123.158C158.35 122.438 158.482 121.798 158.746 121.237C159.01 120.677 159.389 120.242 159.881 119.932C160.378 119.622 160.963 119.467 161.638 119.467C162.467 119.467 163.155 119.715 163.702 120.212C164.254 120.709 164.548 121.354 164.584 122.146H163.388C163.351 121.668 163.169 121.276 162.841 120.971C162.517 120.661 162.116 120.506 161.638 120.506C160.995 120.506 160.496 120.738 160.141 121.203C159.79 121.663 159.614 122.331 159.614 123.206V123.445C159.614 124.298 159.79 124.954 160.141 125.414C160.492 125.874 160.993 126.104 161.645 126.104ZM168.32 123.575L167.527 124.402V127H166.263V116.5H167.527V122.851L168.204 122.037L170.508 119.604H172.046L169.168 122.693L172.381 127H170.897L168.32 123.575ZM174.976 127H173.711V119.604H174.976V127ZM173.608 117.642C173.608 117.437 173.67 117.263 173.793 117.122C173.921 116.981 174.107 116.91 174.354 116.91C174.6 116.91 174.786 116.981 174.914 117.122C175.042 117.263 175.105 117.437 175.105 117.642C175.105 117.847 175.042 118.018 174.914 118.154C174.786 118.291 174.6 118.359 174.354 118.359C174.107 118.359 173.921 118.291 173.793 118.154C173.67 118.018 173.608 117.847 173.608 117.642ZM178.452 119.604L178.493 120.533C179.058 119.822 179.797 119.467 180.708 119.467C182.271 119.467 183.06 120.349 183.073 122.112V127H181.809V122.105C181.804 121.572 181.681 121.178 181.439 120.923C181.202 120.668 180.831 120.54 180.325 120.54C179.915 120.54 179.555 120.649 179.245 120.868C178.935 121.087 178.694 121.374 178.521 121.729V127H177.256V119.604H178.452ZM184.93 123.24C184.93 122.087 185.196 121.171 185.729 120.492C186.263 119.809 186.969 119.467 187.849 119.467C188.751 119.467 189.455 119.786 189.961 120.424L190.022 119.604H191.178V126.822C191.178 127.779 190.893 128.534 190.323 129.085C189.758 129.636 188.997 129.912 188.04 129.912C187.507 129.912 186.985 129.798 186.475 129.57C185.964 129.342 185.575 129.03 185.306 128.634L185.962 127.875C186.504 128.545 187.167 128.88 187.951 128.88C188.566 128.88 189.045 128.707 189.387 128.36C189.733 128.014 189.906 127.526 189.906 126.897V126.262C189.4 126.845 188.71 127.137 187.835 127.137C186.969 127.137 186.267 126.788 185.729 126.091C185.196 125.394 184.93 124.443 184.93 123.24ZM186.201 123.384C186.201 124.218 186.372 124.874 186.714 125.353C187.056 125.826 187.534 126.063 188.149 126.063C188.947 126.063 189.533 125.701 189.906 124.977V121.6C189.519 120.893 188.938 120.54 188.163 120.54C187.548 120.54 187.067 120.779 186.721 121.258C186.374 121.736 186.201 122.445 186.201 123.384ZM198.78 117.812V119.604H200.161V120.581H198.78V125.168C198.78 125.464 198.842 125.688 198.965 125.838C199.088 125.984 199.298 126.057 199.594 126.057C199.74 126.057 199.94 126.029 200.195 125.975V127C199.863 127.091 199.539 127.137 199.225 127.137C198.66 127.137 198.233 126.966 197.946 126.624C197.659 126.282 197.516 125.797 197.516 125.168V120.581H196.169V119.604H197.516V117.812H198.78ZM203.159 120.499C203.72 119.811 204.449 119.467 205.347 119.467C206.91 119.467 207.698 120.349 207.712 122.112V127H206.447V122.105C206.443 121.572 206.32 121.178 206.078 120.923C205.841 120.668 205.47 120.54 204.964 120.54C204.554 120.54 204.194 120.649 203.884 120.868C203.574 121.087 203.332 121.374 203.159 121.729V127H201.895V116.5H203.159V120.499ZM212.925 127.137C211.922 127.137 211.106 126.809 210.478 126.152C209.849 125.492 209.534 124.61 209.534 123.507V123.274C209.534 122.541 209.673 121.887 209.951 121.312C210.234 120.734 210.626 120.283 211.127 119.959C211.633 119.631 212.18 119.467 212.768 119.467C213.729 119.467 214.477 119.784 215.01 120.417C215.543 121.05 215.81 121.957 215.81 123.138V123.664H210.799C210.817 124.393 211.029 124.983 211.435 125.435C211.845 125.881 212.364 126.104 212.993 126.104C213.44 126.104 213.818 126.013 214.128 125.831C214.438 125.649 214.709 125.407 214.941 125.106L215.714 125.708C215.094 126.66 214.164 127.137 212.925 127.137ZM212.768 120.506C212.257 120.506 211.829 120.693 211.482 121.066C211.136 121.436 210.922 121.955 210.84 122.625H214.545V122.529C214.508 121.887 214.335 121.39 214.025 121.039C213.715 120.684 213.296 120.506 212.768 120.506ZM222.626 127H221.361V116.5H222.626V127ZM226.28 127H225.016V119.604H226.28V127ZM224.913 117.642C224.913 117.437 224.975 117.263 225.098 117.122C225.225 116.981 225.412 116.91 225.658 116.91C225.904 116.91 226.091 116.981 226.219 117.122C226.346 117.263 226.41 117.437 226.41 117.642C226.41 117.847 226.346 118.018 226.219 118.154C226.091 118.291 225.904 118.359 225.658 118.359C225.412 118.359 225.225 118.291 225.098 118.154C224.975 118.018 224.913 117.847 224.913 117.642ZM232.867 125.038C232.867 124.696 232.737 124.432 232.478 124.245C232.222 124.054 231.773 123.89 231.131 123.753C230.493 123.616 229.985 123.452 229.606 123.261C229.233 123.069 228.955 122.841 228.772 122.577C228.595 122.313 228.506 121.998 228.506 121.634C228.506 121.028 228.761 120.515 229.271 120.096C229.786 119.676 230.443 119.467 231.24 119.467C232.079 119.467 232.758 119.683 233.277 120.116C233.801 120.549 234.063 121.103 234.063 121.777H232.792C232.792 121.431 232.644 121.132 232.348 120.882C232.056 120.631 231.687 120.506 231.24 120.506C230.78 120.506 230.42 120.606 230.16 120.807C229.9 121.007 229.771 121.269 229.771 121.593C229.771 121.898 229.891 122.128 230.133 122.283C230.374 122.438 230.81 122.586 231.438 122.728C232.072 122.869 232.585 123.037 232.977 123.233C233.368 123.429 233.658 123.666 233.845 123.944C234.036 124.218 234.132 124.553 234.132 124.949C234.132 125.61 233.868 126.141 233.339 126.542C232.81 126.938 232.124 127.137 231.281 127.137C230.689 127.137 230.165 127.032 229.709 126.822C229.253 126.613 228.896 126.321 228.636 125.947C228.381 125.569 228.253 125.161 228.253 124.724H229.518C229.54 125.147 229.709 125.485 230.023 125.735C230.342 125.981 230.762 126.104 231.281 126.104C231.76 126.104 232.143 126.009 232.43 125.817C232.721 125.621 232.867 125.362 232.867 125.038ZM237.745 117.812V119.604H239.126V120.581H237.745V125.168C237.745 125.464 237.807 125.688 237.93 125.838C238.053 125.984 238.262 126.057 238.559 126.057C238.704 126.057 238.905 126.029 239.16 125.975V127C238.827 127.091 238.504 127.137 238.189 127.137C237.624 127.137 237.198 126.966 236.911 126.624C236.624 126.282 236.48 125.797 236.48 125.168V120.581H235.134V119.604H236.48V117.812H237.745ZM246.298 117.812V119.604H247.679V120.581H246.298V125.168C246.298 125.464 246.359 125.688 246.482 125.838C246.605 125.984 246.815 126.057 247.111 126.057C247.257 126.057 247.458 126.029 247.713 125.975V127C247.38 127.091 247.057 127.137 246.742 127.137C246.177 127.137 245.751 126.966 245.464 126.624C245.177 126.282 245.033 125.797 245.033 125.168V120.581H243.687V119.604H245.033V117.812H246.298ZM248.94 123.233C248.94 122.509 249.082 121.857 249.364 121.278C249.651 120.7 250.048 120.253 250.554 119.938C251.064 119.624 251.645 119.467 252.297 119.467C253.304 119.467 254.118 119.815 254.737 120.513C255.362 121.21 255.674 122.137 255.674 123.295V123.384C255.674 124.104 255.535 124.751 255.257 125.325C254.983 125.895 254.589 126.339 254.074 126.658C253.564 126.977 252.976 127.137 252.311 127.137C251.308 127.137 250.494 126.788 249.87 126.091C249.25 125.394 248.94 124.471 248.94 123.322V123.233ZM250.212 123.384C250.212 124.204 250.401 124.863 250.779 125.359C251.162 125.856 251.673 126.104 252.311 126.104C252.953 126.104 253.464 125.854 253.842 125.353C254.22 124.847 254.409 124.14 254.409 123.233C254.409 122.422 254.215 121.766 253.828 121.265C253.445 120.759 252.935 120.506 252.297 120.506C251.673 120.506 251.169 120.754 250.786 121.251C250.403 121.748 250.212 122.459 250.212 123.384ZM25.3809 147V140.581H24.2119V139.604H25.3809V138.975C25.3809 138.15 25.6156 137.507 26.085 137.047C26.5589 136.587 27.2266 136.356 28.0879 136.356C28.5983 136.356 29.2432 136.495 30.0225 136.773L29.8105 137.84C29.2409 137.612 28.6986 137.498 28.1836 137.498C27.6413 137.498 27.2493 137.621 27.0078 137.867C26.7708 138.109 26.6523 138.473 26.6523 138.961V139.604H28.1631V140.581H26.6523V147H25.3809ZM30.6514 147H29.3799V139.604H30.6514V147ZM34.1553 139.604L34.1963 140.533C34.7614 139.822 35.4997 139.467 36.4111 139.467C37.9743 139.467 38.7627 140.349 38.7764 142.112V147H37.5117V142.105C37.5072 141.572 37.3841 141.178 37.1426 140.923C36.9056 140.668 36.5342 140.54 36.0283 140.54C35.6182 140.54 35.2581 140.649 34.9482 140.868C34.6383 141.087 34.3968 141.374 34.2236 141.729V147H32.959V139.604H34.1553ZM40.626 143.24C40.626 142.105 40.8949 141.194 41.4326 140.506C41.9704 139.813 42.6745 139.467 43.5449 139.467C44.4108 139.467 45.0967 139.763 45.6025 140.355V136.5H46.8672V147H45.7051L45.6436 146.207C45.1377 146.827 44.4336 147.137 43.5312 147.137C42.6745 147.137 41.9749 146.786 41.4326 146.084C40.8949 145.382 40.626 144.466 40.626 143.336V143.24ZM41.8906 143.384C41.8906 144.222 42.0638 144.879 42.4102 145.353C42.7565 145.826 43.235 146.063 43.8457 146.063C44.6478 146.063 45.2334 145.703 45.6025 144.983V141.586C45.2243 140.889 44.6432 140.54 43.8594 140.54C43.2396 140.54 42.7565 140.779 42.4102 141.258C42.0638 141.736 41.8906 142.445 41.8906 143.384ZM55.2285 145.147L56.9512 139.604H58.3047L55.3311 148.142C54.8708 149.372 54.1393 149.987 53.1367 149.987L52.8975 149.967L52.4258 149.878V148.853L52.7676 148.88C53.196 148.88 53.5286 148.793 53.7656 148.62C54.0072 148.447 54.2054 148.13 54.3604 147.67L54.6406 146.918L52.002 139.604H53.3828L55.2285 145.147ZM59.2451 143.233C59.2451 142.509 59.3864 141.857 59.6689 141.278C59.9561 140.7 60.3525 140.253 60.8584 139.938C61.3688 139.624 61.9499 139.467 62.6016 139.467C63.6087 139.467 64.4222 139.815 65.042 140.513C65.6663 141.21 65.9785 142.137 65.9785 143.295V143.384C65.9785 144.104 65.8395 144.751 65.5615 145.325C65.2881 145.895 64.8939 146.339 64.3789 146.658C63.8685 146.977 63.2806 147.137 62.6152 147.137C61.6126 147.137 60.7992 146.788 60.1748 146.091C59.555 145.394 59.2451 144.471 59.2451 143.322V143.233ZM60.5166 143.384C60.5166 144.204 60.7057 144.863 61.084 145.359C61.4668 145.856 61.9772 146.104 62.6152 146.104C63.2578 146.104 63.7682 145.854 64.1465 145.353C64.5247 144.847 64.7139 144.14 64.7139 143.233C64.7139 142.422 64.5202 141.766 64.1328 141.265C63.75 140.759 63.2396 140.506 62.6016 140.506C61.9772 140.506 61.4736 140.754 61.0908 141.251C60.708 141.748 60.5166 142.459 60.5166 143.384ZM72.3809 146.269C71.8887 146.847 71.1663 147.137 70.2139 147.137C69.4255 147.137 68.8239 146.909 68.4092 146.453C67.999 145.993 67.7917 145.314 67.7871 144.416V139.604H69.0518V144.382C69.0518 145.503 69.5075 146.063 70.4189 146.063C71.3851 146.063 72.0277 145.703 72.3467 144.983V139.604H73.6113V147H72.4082L72.3809 146.269ZM79.3643 140.738C79.1729 140.706 78.9655 140.69 78.7422 140.69C77.9128 140.69 77.3499 141.044 77.0537 141.75V147H75.7891V139.604H77.0195L77.04 140.458C77.4548 139.797 78.0426 139.467 78.8037 139.467C79.0498 139.467 79.2367 139.499 79.3643 139.562V140.738ZM85.0898 145.038C85.0898 144.696 84.96 144.432 84.7002 144.245C84.445 144.054 83.9961 143.89 83.3535 143.753C82.7155 143.616 82.2074 143.452 81.8291 143.261C81.4554 143.069 81.1774 142.841 80.9951 142.577C80.8174 142.313 80.7285 141.998 80.7285 141.634C80.7285 141.028 80.9837 140.515 81.4941 140.096C82.0091 139.676 82.6654 139.467 83.4629 139.467C84.3014 139.467 84.9805 139.683 85.5 140.116C86.0241 140.549 86.2861 141.103 86.2861 141.777H85.0146C85.0146 141.431 84.8665 141.132 84.5703 140.882C84.2786 140.631 83.9095 140.506 83.4629 140.506C83.0026 140.506 82.6426 140.606 82.3828 140.807C82.123 141.007 81.9932 141.269 81.9932 141.593C81.9932 141.898 82.1139 142.128 82.3555 142.283C82.597 142.438 83.0322 142.586 83.6611 142.728C84.2946 142.869 84.8073 143.037 85.1992 143.233C85.5911 143.429 85.8805 143.666 86.0674 143.944C86.2588 144.218 86.3545 144.553 86.3545 144.949C86.3545 145.61 86.0902 146.141 85.5615 146.542C85.0329 146.938 84.347 147.137 83.5039 147.137C82.9115 147.137 82.3874 147.032 81.9316 146.822C81.4759 146.613 81.1182 146.321 80.8584 145.947C80.6032 145.569 80.4756 145.161 80.4756 144.724H81.7402C81.763 145.147 81.9316 145.485 82.2461 145.735C82.5651 145.981 82.9844 146.104 83.5039 146.104C83.9824 146.104 84.3652 146.009 84.6523 145.817C84.944 145.621 85.0898 145.362 85.0898 145.038ZM88.2793 146.337C88.2793 146.118 88.3431 145.936 88.4707 145.79C88.6029 145.644 88.7988 145.571 89.0586 145.571C89.3184 145.571 89.5143 145.644 89.6465 145.79C89.7832 145.936 89.8516 146.118 89.8516 146.337C89.8516 146.547 89.7832 146.722 89.6465 146.863C89.5143 147.005 89.3184 147.075 89.0586 147.075C88.7988 147.075 88.6029 147.005 88.4707 146.863C88.3431 146.722 88.2793 146.547 88.2793 146.337Z" fill="#49454F"/>
</g>
<defs>
<clipPath id="clip0_50995_3212">
<path d="M0 28C0 12.536 12.536 0 28 0H280C295.464 0 308 12.536 308 28V165C308 180.464 295.464 193 280 193H28C12.536 193 0 180.464 0 165V28Z" fill="white"/>
</clipPath>
</defs>
</svg>
