<svg width="290" height="222" viewBox="0 0 290 222" fill="none" xmlns="http://www.w3.org/2000/svg">
<g clip-path="url(#clip0_50995_3212)">
<path d="M0 28C0 12.536 12.536 0 28 0H262C277.464 0 290 12.536 290 28V194C290 209.464 277.464 222 262 222H28C12.536 222 0 209.464 0 194V28Z" fill="#FFFBFE"/>
<path d="M0 28C0 12.536 12.536 0 28 0H262C277.464 0 290 12.536 290 28V194C290 209.464 277.464 222 262 222H28C12.536 222 0 209.464 0 194V28Z" fill="#6750A4" fill-opacity="0.11"/>
<path fill-rule="evenodd" clip-rule="evenodd" d="M137 47V29C137 27.9 137.9 27.01 139 27.01L149 27C150.1 27 151 27.9 151 29V33H149V32H139V44H149V43H151V47C151 48.1 150.1 49 149 49H139C137.9 49 137 48.1 137 47ZM149 47V46H139V47H149ZM139 29H149V30H139V29ZM154.2 35.55L152.8 34.15L147.75 39.2L145.4 36.85L144 38.25L147.75 42L154.2 35.55Z" fill="#625B71"/>
<path d="M65.2773 86.0977H61.2695V93H59.0078V75.9375H64.6562C66.5781 75.9375 68.0547 76.375 69.0859 77.25C70.125 78.125 70.6445 79.3984 70.6445 81.0703C70.6445 82.1328 70.3555 83.0586 69.7773 83.8477C69.207 84.6367 68.4102 85.2266 67.3867 85.6172L71.3945 92.8594V93H68.9805L65.2773 86.0977ZM61.2695 84.2578H64.7266C65.8438 84.2578 66.7305 83.9688 67.3867 83.3906C68.0508 82.8125 68.3828 82.0391 68.3828 81.0703C68.3828 80.0156 68.0664 79.207 67.4336 78.6445C66.8086 78.082 65.9023 77.7969 64.7148 77.7891H61.2695V84.2578ZM72.8945 86.543C72.8945 85.3008 73.1367 84.1836 73.6211 83.1914C74.1133 82.1992 74.793 81.4336 75.6602 80.8945C76.5352 80.3555 77.5312 80.0859 78.6484 80.0859C80.375 80.0859 81.7695 80.6836 82.832 81.8789C83.9023 83.0742 84.4375 84.6641 84.4375 86.6484V86.8008C84.4375 88.0352 84.1992 89.1445 83.7227 90.1289C83.2539 91.1055 82.5781 91.8672 81.6953 92.4141C80.8203 92.9609 79.8125 93.2344 78.6719 93.2344C76.9531 93.2344 75.5586 92.6367 74.4883 91.4414C73.4258 90.2461 72.8945 88.6641 72.8945 86.6953V86.543ZM75.0742 86.8008C75.0742 88.207 75.3984 89.3359 76.0469 90.1875C76.7031 91.0391 77.5781 91.4648 78.6719 91.4648C79.7734 91.4648 80.6484 91.0352 81.2969 90.1758C81.9453 89.3086 82.2695 88.0977 82.2695 86.543C82.2695 85.1523 81.9375 84.0273 81.2734 83.168C80.6172 82.3008 79.7422 81.8672 78.6484 81.8672C77.5781 81.8672 76.7148 82.293 76.0586 83.1445C75.4023 83.9961 75.0742 85.2148 75.0742 86.8008ZM94.9844 91.7461C94.1406 92.7383 92.9023 93.2344 91.2695 93.2344C89.918 93.2344 88.8867 92.8438 88.1758 92.0625C87.4727 91.2734 87.1172 90.1094 87.1094 88.5703V80.3203H89.2773V88.5117C89.2773 90.4336 90.0586 91.3945 91.6211 91.3945C93.2773 91.3945 94.3789 90.7773 94.9258 89.543V80.3203H97.0938V93H95.0312L94.9844 91.7461ZM103.34 77.25V80.3203H105.707V81.9961H103.34V89.8594C103.34 90.3672 103.445 90.75 103.656 91.0078C103.867 91.2578 104.227 91.3828 104.734 91.3828C104.984 91.3828 105.328 91.3359 105.766 91.2422V93C105.195 93.1562 104.641 93.2344 104.102 93.2344C103.133 93.2344 102.402 92.9414 101.91 92.3555C101.418 91.7695 101.172 90.9375 101.172 89.8594V81.9961H98.8633V80.3203H101.172V77.25H103.34ZM110.605 93H108.438V80.3203H110.605V93ZM108.262 76.957C108.262 76.6055 108.367 76.3086 108.578 76.0664C108.797 75.8242 109.117 75.7031 109.539 75.7031C109.961 75.7031 110.281 75.8242 110.5 76.0664C110.719 76.3086 110.828 76.6055 110.828 76.957C110.828 77.3086 110.719 77.6016 110.5 77.8359C110.281 78.0703 109.961 78.1875 109.539 78.1875C109.117 78.1875 108.797 78.0703 108.578 77.8359C108.367 77.6016 108.262 77.3086 108.262 76.957ZM116.137 80.3203L116.207 81.9141C117.176 80.6953 118.441 80.0859 120.004 80.0859C122.684 80.0859 124.035 81.5977 124.059 84.6211V93H121.891V84.6094C121.883 83.6953 121.672 83.0195 121.258 82.582C120.852 82.1445 120.215 81.9258 119.348 81.9258C118.645 81.9258 118.027 82.1133 117.496 82.4883C116.965 82.8633 116.551 83.3555 116.254 83.9648V93H114.086V80.3203H116.137ZM132.59 93.2344C130.871 93.2344 129.473 92.6719 128.395 91.5469C127.316 90.4141 126.777 88.9023 126.777 87.0117V86.6133C126.777 85.3555 127.016 84.2344 127.492 83.25C127.977 82.2578 128.648 81.4844 129.508 80.9297C130.375 80.3672 131.312 80.0859 132.32 80.0859C133.969 80.0859 135.25 80.6289 136.164 81.7148C137.078 82.8008 137.535 84.3555 137.535 86.3789V87.2812H128.945C128.977 88.5312 129.34 89.543 130.035 90.3164C130.738 91.082 131.629 91.4648 132.707 91.4648C133.473 91.4648 134.121 91.3086 134.652 90.9961C135.184 90.6836 135.648 90.2695 136.047 89.7539L137.371 90.7852C136.309 92.418 134.715 93.2344 132.59 93.2344ZM132.32 81.8672C131.445 81.8672 130.711 82.1875 130.117 82.8281C129.523 83.4609 129.156 84.3516 129.016 85.5H135.367V85.3359C135.305 84.2344 135.008 83.3828 134.477 82.7812C133.945 82.1719 133.227 81.8672 132.32 81.8672ZM158.359 75.9375V87.5391C158.352 89.1484 157.844 90.4648 156.836 91.4883C155.836 92.5117 154.477 93.0859 152.758 93.2109L152.16 93.2344C150.293 93.2344 148.805 92.7305 147.695 91.7227C146.586 90.7148 146.023 89.3281 146.008 87.5625V75.9375H148.234V87.4922C148.234 88.7266 148.574 89.6875 149.254 90.375C149.934 91.0547 150.902 91.3945 152.16 91.3945C153.434 91.3945 154.406 91.0547 155.078 90.375C155.758 89.6953 156.098 88.7383 156.098 87.5039V75.9375H158.359ZM172.281 86.8008C172.281 88.7305 171.84 90.2852 170.957 91.4648C170.074 92.6445 168.879 93.2344 167.371 93.2344C165.832 93.2344 164.621 92.7461 163.738 91.7695V97.875H161.57V80.3203H163.551L163.656 81.7266C164.539 80.6328 165.766 80.0859 167.336 80.0859C168.859 80.0859 170.062 80.6602 170.945 81.8086C171.836 82.957 172.281 84.5547 172.281 86.6016V86.8008ZM170.113 86.5547C170.113 85.125 169.809 83.9961 169.199 83.168C168.59 82.3398 167.754 81.9258 166.691 81.9258C165.379 81.9258 164.395 82.5078 163.738 83.6719V89.7305C164.387 90.8867 165.379 91.4648 166.715 91.4648C167.754 91.4648 168.578 91.0547 169.188 90.2344C169.805 89.4062 170.113 88.1797 170.113 86.5547ZM174.52 86.5547C174.52 84.6094 174.98 83.0469 175.902 81.8672C176.824 80.6797 178.031 80.0859 179.523 80.0859C181.008 80.0859 182.184 80.5938 183.051 81.6094V75H185.219V93H183.227L183.121 91.6406C182.254 92.7031 181.047 93.2344 179.5 93.2344C178.031 93.2344 176.832 92.6328 175.902 91.4297C174.98 90.2266 174.52 88.6562 174.52 86.7188V86.5547ZM176.688 86.8008C176.688 88.2383 176.984 89.3633 177.578 90.1758C178.172 90.9883 178.992 91.3945 180.039 91.3945C181.414 91.3945 182.418 90.7773 183.051 89.543V83.7188C182.402 82.5234 181.406 81.9258 180.062 81.9258C179 81.9258 178.172 82.3359 177.578 83.1562C176.984 83.9766 176.688 85.1914 176.688 86.8008ZM196.422 93C196.297 92.75 196.195 92.3047 196.117 91.6641C195.109 92.7109 193.906 93.2344 192.508 93.2344C191.258 93.2344 190.23 92.8828 189.426 92.1797C188.629 91.4688 188.23 90.5703 188.23 89.4844C188.23 88.1641 188.73 87.1406 189.73 86.4141C190.738 85.6797 192.152 85.3125 193.973 85.3125H196.082V84.3164C196.082 83.5586 195.855 82.957 195.402 82.5117C194.949 82.0586 194.281 81.832 193.398 81.832C192.625 81.832 191.977 82.0273 191.453 82.418C190.93 82.8086 190.668 83.2812 190.668 83.8359H188.488C188.488 83.2031 188.711 82.5938 189.156 82.0078C189.609 81.4141 190.219 80.9453 190.984 80.6016C191.758 80.2578 192.605 80.0859 193.527 80.0859C194.988 80.0859 196.133 80.4531 196.961 81.1875C197.789 81.9141 198.219 82.918 198.25 84.1992V90.0352C198.25 91.1992 198.398 92.125 198.695 92.8125V93H196.422ZM192.824 91.3477C193.504 91.3477 194.148 91.1719 194.758 90.8203C195.367 90.4688 195.809 90.0117 196.082 89.4492V86.8477H194.383C191.727 86.8477 190.398 87.625 190.398 89.1797C190.398 89.8594 190.625 90.3906 191.078 90.7734C191.531 91.1562 192.113 91.3477 192.824 91.3477ZM204.59 77.25V80.3203H206.957V81.9961H204.59V89.8594C204.59 90.3672 204.695 90.75 204.906 91.0078C205.117 91.2578 205.477 91.3828 205.984 91.3828C206.234 91.3828 206.578 91.3359 207.016 91.2422V93C206.445 93.1562 205.891 93.2344 205.352 93.2344C204.383 93.2344 203.652 92.9414 203.16 92.3555C202.668 91.7695 202.422 90.9375 202.422 89.8594V81.9961H200.113V80.3203H202.422V77.25H204.59ZM214.762 93.2344C213.043 93.2344 211.645 92.6719 210.566 91.5469C209.488 90.4141 208.949 88.9023 208.949 87.0117V86.6133C208.949 85.3555 209.188 84.2344 209.664 83.25C210.148 82.2578 210.82 81.4844 211.68 80.9297C212.547 80.3672 213.484 80.0859 214.492 80.0859C216.141 80.0859 217.422 80.6289 218.336 81.7148C219.25 82.8008 219.707 84.3555 219.707 86.3789V87.2812H211.117C211.148 88.5312 211.512 89.543 212.207 90.3164C212.91 91.082 213.801 91.4648 214.879 91.4648C215.645 91.4648 216.293 91.3086 216.824 90.9961C217.355 90.6836 217.82 90.2695 218.219 89.7539L219.543 90.7852C218.48 92.418 216.887 93.2344 214.762 93.2344ZM214.492 81.8672C213.617 81.8672 212.883 82.1875 212.289 82.8281C211.695 83.4609 211.328 84.3516 211.188 85.5H217.539V85.3359C217.477 84.2344 217.18 83.3828 216.648 82.7812C216.117 82.1719 215.398 81.8672 214.492 81.8672ZM229.609 89.6367C229.609 89.0508 229.387 88.5977 228.941 88.2773C228.504 87.9492 227.734 87.668 226.633 87.4336C225.539 87.1992 224.668 86.918 224.02 86.5898C223.379 86.2617 222.902 85.8711 222.59 85.418C222.285 84.9648 222.133 84.4258 222.133 83.8008C222.133 82.7617 222.57 81.8828 223.445 81.1641C224.328 80.4453 225.453 80.0859 226.82 80.0859C228.258 80.0859 229.422 80.457 230.312 81.1992C231.211 81.9414 231.66 82.8906 231.66 84.0469H229.48C229.48 83.4531 229.227 82.9414 228.719 82.5117C228.219 82.082 227.586 81.8672 226.82 81.8672C226.031 81.8672 225.414 82.0391 224.969 82.3828C224.523 82.7266 224.301 83.1758 224.301 83.7305C224.301 84.2539 224.508 84.6484 224.922 84.9141C225.336 85.1797 226.082 85.4336 227.16 85.6758C228.246 85.918 229.125 86.207 229.797 86.543C230.469 86.8789 230.965 87.2852 231.285 87.7617C231.613 88.2305 231.777 88.8047 231.777 89.4844C231.777 90.6172 231.324 91.5273 230.418 92.2148C229.512 92.8945 228.336 93.2344 226.891 93.2344C225.875 93.2344 224.977 93.0547 224.195 92.6953C223.414 92.3359 222.801 91.8359 222.355 91.1953C221.918 90.5469 221.699 89.8477 221.699 89.0977H223.867C223.906 89.8242 224.195 90.4023 224.734 90.832C225.281 91.2539 226 91.4648 226.891 91.4648C227.711 91.4648 228.367 91.3008 228.859 90.9727C229.359 90.6367 229.609 90.1914 229.609 89.6367Z" fill="#1C1B1F"/>
<path d="M30.877 127.933H26.9395V132H24.8887V122.047H31.3691V123.708H26.9395V126.278H30.877V127.933ZM36.958 131.248C36.4704 131.84 35.7959 132.137 34.9346 132.137C34.1416 132.137 33.5355 131.909 33.1162 131.453C32.7015 130.997 32.4896 130.33 32.4805 129.45V124.604H34.4561V129.382C34.4561 130.152 34.807 130.537 35.5088 130.537C36.1787 130.537 36.639 130.305 36.8896 129.84V124.604H38.8721V132H37.0127L36.958 131.248ZM44.6182 129.956C44.6182 129.715 44.4974 129.525 44.2559 129.389C44.0189 129.247 43.6361 129.122 43.1074 129.013C41.3483 128.644 40.4688 127.896 40.4688 126.771C40.4688 126.114 40.7399 125.567 41.2822 125.13C41.8291 124.688 42.5423 124.467 43.4219 124.467C44.3607 124.467 45.1104 124.688 45.6709 125.13C46.236 125.572 46.5186 126.146 46.5186 126.853H44.543C44.543 126.57 44.4518 126.338 44.2695 126.155C44.0872 125.968 43.8024 125.875 43.415 125.875C43.0824 125.875 42.8249 125.95 42.6426 126.101C42.4603 126.251 42.3691 126.442 42.3691 126.675C42.3691 126.894 42.4717 127.071 42.6768 127.208C42.8864 127.34 43.2373 127.456 43.7295 127.557C44.2217 127.652 44.6364 127.762 44.9736 127.885C46.0173 128.268 46.5391 128.931 46.5391 129.874C46.5391 130.549 46.2497 131.095 45.6709 131.515C45.0921 131.929 44.3447 132.137 43.4287 132.137C42.8089 132.137 42.2575 132.027 41.7744 131.809C41.2959 131.585 40.9199 131.282 40.6465 130.899C40.373 130.512 40.2363 130.095 40.2363 129.648H42.1094C42.1276 129.999 42.2575 130.268 42.499 130.455C42.7406 130.642 43.0641 130.735 43.4697 130.735C43.848 130.735 44.1328 130.665 44.3242 130.523C44.5202 130.378 44.6182 130.188 44.6182 129.956ZM50.1523 132H48.1699V124.604H50.1523V132ZM48.0537 122.689C48.0537 122.393 48.1517 122.149 48.3477 121.958C48.5482 121.767 48.8193 121.671 49.1611 121.671C49.4984 121.671 49.7673 121.767 49.9678 121.958C50.1683 122.149 50.2686 122.393 50.2686 122.689C50.2686 122.99 50.166 123.236 49.9609 123.428C49.7604 123.619 49.4938 123.715 49.1611 123.715C48.8285 123.715 48.5596 123.619 48.3545 123.428C48.154 123.236 48.0537 122.99 48.0537 122.689ZM51.7285 128.233C51.7285 127.5 51.8698 126.846 52.1523 126.271C52.4349 125.697 52.8405 125.253 53.3691 124.938C53.9023 124.624 54.5199 124.467 55.2217 124.467C56.2197 124.467 57.0332 124.772 57.6621 125.383C58.2956 125.993 58.6488 126.823 58.7217 127.871L58.7354 128.377C58.7354 129.512 58.4186 130.423 57.7852 131.111C57.1517 131.795 56.3018 132.137 55.2354 132.137C54.1689 132.137 53.3167 131.795 52.6787 131.111C52.0452 130.428 51.7285 129.498 51.7285 128.322V128.233ZM53.7041 128.377C53.7041 129.079 53.8363 129.617 54.1006 129.99C54.3649 130.359 54.7432 130.544 55.2354 130.544C55.7139 130.544 56.0876 130.362 56.3564 129.997C56.6253 129.628 56.7598 129.04 56.7598 128.233C56.7598 127.545 56.6253 127.012 56.3564 126.634C56.0876 126.256 55.7093 126.066 55.2217 126.066C54.7386 126.066 54.3649 126.256 54.1006 126.634C53.8363 127.007 53.7041 127.589 53.7041 128.377ZM62.0205 124.604L62.082 125.458C62.6107 124.797 63.3193 124.467 64.208 124.467C64.9919 124.467 65.5752 124.697 65.958 125.157C66.3408 125.618 66.5368 126.306 66.5459 127.222V132H64.5703V127.27C64.5703 126.85 64.4792 126.547 64.2969 126.36C64.1146 126.169 63.8115 126.073 63.3877 126.073C62.8317 126.073 62.4147 126.31 62.1367 126.784V132H60.1611V124.604H62.0205ZM76.6055 127.249C76.6055 128.229 76.4323 129.088 76.0859 129.826C75.7396 130.564 75.2428 131.134 74.5957 131.535C73.9531 131.936 73.2148 132.137 72.3809 132.137C71.556 132.137 70.82 131.938 70.1729 131.542C69.5257 131.146 69.0244 130.58 68.6689 129.847C68.3135 129.108 68.1335 128.261 68.1289 127.304V126.812C68.1289 125.832 68.3044 124.97 68.6553 124.228C69.0107 123.48 69.5098 122.908 70.1523 122.512C70.7995 122.111 71.5378 121.91 72.3672 121.91C73.1966 121.91 73.9326 122.111 74.5752 122.512C75.2223 122.908 75.7214 123.48 76.0723 124.228C76.4277 124.97 76.6055 125.829 76.6055 126.805V127.249ZM74.5273 126.798C74.5273 125.754 74.3405 124.961 73.9668 124.419C73.5931 123.877 73.0599 123.605 72.3672 123.605C71.679 123.605 71.1481 123.874 70.7744 124.412C70.4007 124.945 70.2116 125.729 70.207 126.764V127.249C70.207 128.265 70.3939 129.054 70.7676 129.614C71.1413 130.175 71.679 130.455 72.3809 130.455C73.069 130.455 73.5977 130.186 73.9668 129.648C74.3359 129.106 74.5228 128.318 74.5273 127.283V126.798ZM83.5068 129.389C83.5068 129.001 83.3701 128.705 83.0967 128.5C82.8232 128.29 82.3311 128.072 81.6201 127.844C80.9092 127.611 80.3464 127.383 79.9316 127.16C78.8014 126.549 78.2363 125.727 78.2363 124.692C78.2363 124.155 78.3867 123.676 78.6875 123.257C78.9928 122.833 79.4281 122.503 79.9932 122.266C80.5628 122.029 81.2008 121.91 81.9072 121.91C82.6182 121.91 83.2516 122.04 83.8076 122.3C84.3636 122.555 84.7943 122.917 85.0996 123.387C85.4095 123.856 85.5645 124.389 85.5645 124.986H83.5137C83.5137 124.531 83.3701 124.177 83.083 123.927C82.7959 123.672 82.3926 123.544 81.873 123.544C81.3717 123.544 80.9821 123.651 80.7041 123.865C80.4261 124.075 80.2871 124.353 80.2871 124.699C80.2871 125.023 80.4489 125.294 80.7725 125.513C81.1006 125.731 81.5814 125.937 82.2148 126.128C83.3815 126.479 84.2314 126.914 84.7646 127.434C85.2979 127.953 85.5645 128.6 85.5645 129.375C85.5645 130.236 85.2386 130.913 84.5869 131.405C83.9352 131.893 83.0579 132.137 81.9551 132.137C81.1895 132.137 80.4922 131.998 79.8633 131.72C79.2344 131.437 78.7536 131.052 78.4209 130.564C78.0928 130.077 77.9287 129.512 77.9287 128.869H79.9863C79.9863 129.967 80.6426 130.517 81.9551 130.517C82.4427 130.517 82.8232 130.419 83.0967 130.223C83.3701 130.022 83.5068 129.744 83.5068 129.389ZM93.502 129.033L92.791 129.744V132H90.8154V121.5H92.791V127.317L93.1738 126.825L95.0674 124.604H97.4395L94.7666 127.687L97.6719 132H95.4023L93.502 129.033ZM101.812 132.137C100.727 132.137 99.8428 131.804 99.1592 131.139C98.4801 130.473 98.1406 129.587 98.1406 128.479V128.288C98.1406 127.545 98.2842 126.882 98.5713 126.299C98.8584 125.711 99.264 125.26 99.7881 124.945C100.317 124.626 100.918 124.467 101.593 124.467C102.604 124.467 103.4 124.786 103.979 125.424C104.562 126.062 104.854 126.966 104.854 128.138V128.944H100.144C100.207 129.427 100.399 129.815 100.718 130.106C101.041 130.398 101.449 130.544 101.941 130.544C102.702 130.544 103.297 130.268 103.726 129.717L104.696 130.804C104.4 131.223 103.999 131.551 103.493 131.788C102.987 132.021 102.427 132.137 101.812 132.137ZM101.586 126.066C101.194 126.066 100.875 126.199 100.629 126.463C100.387 126.727 100.232 127.105 100.164 127.598H102.912V127.44C102.903 127.003 102.785 126.666 102.557 126.429C102.329 126.187 102.005 126.066 101.586 126.066ZM109.636 132.137C108.551 132.137 107.667 131.804 106.983 131.139C106.304 130.473 105.965 129.587 105.965 128.479V128.288C105.965 127.545 106.108 126.882 106.396 126.299C106.683 125.711 107.088 125.26 107.612 124.945C108.141 124.626 108.743 124.467 109.417 124.467C110.429 124.467 111.224 124.786 111.803 125.424C112.386 126.062 112.678 126.966 112.678 128.138V128.944H107.968C108.032 129.427 108.223 129.815 108.542 130.106C108.866 130.398 109.273 130.544 109.766 130.544C110.527 130.544 111.121 130.268 111.55 129.717L112.521 130.804C112.224 131.223 111.823 131.551 111.317 131.788C110.812 132.021 110.251 132.137 109.636 132.137ZM109.41 126.066C109.018 126.066 108.699 126.199 108.453 126.463C108.212 126.727 108.057 127.105 107.988 127.598H110.736V127.44C110.727 127.003 110.609 126.666 110.381 126.429C110.153 126.187 109.829 126.066 109.41 126.066ZM120.714 128.37C120.714 129.509 120.454 130.423 119.935 131.111C119.42 131.795 118.722 132.137 117.843 132.137C117.095 132.137 116.492 131.877 116.031 131.357V134.844H114.056V124.604H115.888L115.956 125.328C116.435 124.754 117.059 124.467 117.829 124.467C118.741 124.467 119.449 124.804 119.955 125.479C120.461 126.153 120.714 127.083 120.714 128.268V128.37ZM118.738 128.227C118.738 127.538 118.615 127.007 118.369 126.634C118.128 126.26 117.774 126.073 117.31 126.073C116.69 126.073 116.264 126.31 116.031 126.784V129.812C116.273 130.3 116.703 130.544 117.323 130.544C118.267 130.544 118.738 129.771 118.738 128.227ZM126.2 129.956C126.2 129.715 126.079 129.525 125.838 129.389C125.601 129.247 125.218 129.122 124.689 129.013C122.93 128.644 122.051 127.896 122.051 126.771C122.051 126.114 122.322 125.567 122.864 125.13C123.411 124.688 124.124 124.467 125.004 124.467C125.943 124.467 126.692 124.688 127.253 125.13C127.818 125.572 128.101 126.146 128.101 126.853H126.125C126.125 126.57 126.034 126.338 125.852 126.155C125.669 125.968 125.384 125.875 124.997 125.875C124.664 125.875 124.407 125.95 124.225 126.101C124.042 126.251 123.951 126.442 123.951 126.675C123.951 126.894 124.054 127.071 124.259 127.208C124.468 127.34 124.819 127.456 125.312 127.557C125.804 127.652 126.218 127.762 126.556 127.885C127.599 128.268 128.121 128.931 128.121 129.874C128.121 130.549 127.832 131.095 127.253 131.515C126.674 131.929 125.927 132.137 125.011 132.137C124.391 132.137 123.84 132.027 123.356 131.809C122.878 131.585 122.502 131.282 122.229 130.899C121.955 130.512 121.818 130.095 121.818 129.648H123.691C123.71 129.999 123.84 130.268 124.081 130.455C124.323 130.642 124.646 130.735 125.052 130.735C125.43 130.735 125.715 130.665 125.906 130.523C126.102 130.378 126.2 130.188 126.2 129.956ZM136.147 129.204L137.515 124.604H139.634L136.66 133.148L136.496 133.538C136.054 134.504 135.325 134.987 134.309 134.987C134.021 134.987 133.73 134.944 133.434 134.857V133.36L133.734 133.367C134.108 133.367 134.386 133.31 134.568 133.196C134.755 133.082 134.901 132.893 135.006 132.629L135.238 132.021L132.647 124.604H134.773L136.147 129.204ZM140.246 128.233C140.246 127.5 140.387 126.846 140.67 126.271C140.952 125.697 141.358 125.253 141.887 124.938C142.42 124.624 143.037 124.467 143.739 124.467C144.737 124.467 145.551 124.772 146.18 125.383C146.813 125.993 147.166 126.823 147.239 127.871L147.253 128.377C147.253 129.512 146.936 130.423 146.303 131.111C145.669 131.795 144.819 132.137 143.753 132.137C142.687 132.137 141.834 131.795 141.196 131.111C140.563 130.428 140.246 129.498 140.246 128.322V128.233ZM142.222 128.377C142.222 129.079 142.354 129.617 142.618 129.99C142.882 130.359 143.261 130.544 143.753 130.544C144.231 130.544 144.605 130.362 144.874 129.997C145.143 129.628 145.277 129.04 145.277 128.233C145.277 127.545 145.143 127.012 144.874 126.634C144.605 126.256 144.227 126.066 143.739 126.066C143.256 126.066 142.882 126.256 142.618 126.634C142.354 127.007 142.222 127.589 142.222 128.377ZM153.149 131.248C152.662 131.84 151.987 132.137 151.126 132.137C150.333 132.137 149.727 131.909 149.308 131.453C148.893 130.997 148.681 130.33 148.672 129.45V124.604H150.647V129.382C150.647 130.152 150.998 130.537 151.7 130.537C152.37 130.537 152.83 130.305 153.081 129.84V124.604H155.063V132H153.204L153.149 131.248ZM164.97 131.248C164.482 131.84 163.808 132.137 162.946 132.137C162.153 132.137 161.547 131.909 161.128 131.453C160.713 130.997 160.501 130.33 160.492 129.45V124.604H162.468V129.382C162.468 130.152 162.819 130.537 163.521 130.537C164.19 130.537 164.651 130.305 164.901 129.84V124.604H166.884V132H165.024L164.97 131.248ZM175.282 128.37C175.282 129.509 175.022 130.423 174.503 131.111C173.988 131.795 173.291 132.137 172.411 132.137C171.664 132.137 171.06 131.877 170.6 131.357V134.844H168.624V124.604H170.456L170.524 125.328C171.003 124.754 171.627 124.467 172.397 124.467C173.309 124.467 174.018 124.804 174.523 125.479C175.029 126.153 175.282 127.083 175.282 128.268V128.37ZM173.307 128.227C173.307 127.538 173.184 127.007 172.938 126.634C172.696 126.26 172.343 126.073 171.878 126.073C171.258 126.073 170.832 126.31 170.6 126.784V129.812C170.841 130.3 171.272 130.544 171.892 130.544C172.835 130.544 173.307 129.771 173.307 128.227ZM176.455 128.247C176.455 127.094 176.713 126.176 177.228 125.492C177.747 124.809 178.456 124.467 179.354 124.467C180.074 124.467 180.668 124.736 181.138 125.273V121.5H183.12V132H181.336L181.24 131.214C180.748 131.829 180.115 132.137 179.34 132.137C178.469 132.137 177.77 131.795 177.241 131.111C176.717 130.423 176.455 129.468 176.455 128.247ZM178.431 128.391C178.431 129.083 178.551 129.614 178.793 129.983C179.035 130.353 179.385 130.537 179.846 130.537C180.456 130.537 180.887 130.28 181.138 129.765V126.846C180.892 126.331 180.465 126.073 179.859 126.073C178.907 126.073 178.431 126.846 178.431 128.391ZM189.188 132C189.096 131.822 189.03 131.601 188.989 131.337C188.511 131.87 187.889 132.137 187.123 132.137C186.398 132.137 185.797 131.927 185.318 131.508C184.844 131.089 184.607 130.56 184.607 129.922C184.607 129.138 184.897 128.536 185.476 128.117C186.059 127.698 186.9 127.486 187.998 127.481H188.907V127.058C188.907 126.716 188.818 126.442 188.641 126.237C188.467 126.032 188.192 125.93 187.813 125.93C187.481 125.93 187.219 126.009 187.027 126.169C186.84 126.328 186.747 126.547 186.747 126.825H184.771C184.771 126.397 184.904 126 185.168 125.636C185.432 125.271 185.806 124.986 186.289 124.781C186.772 124.572 187.314 124.467 187.916 124.467C188.827 124.467 189.55 124.697 190.083 125.157C190.621 125.613 190.89 126.256 190.89 127.085V130.291C190.894 130.993 190.992 131.524 191.184 131.884V132H189.188ZM187.554 130.626C187.845 130.626 188.114 130.562 188.36 130.435C188.606 130.302 188.789 130.127 188.907 129.908V128.637H188.169C187.18 128.637 186.654 128.979 186.59 129.662L186.583 129.778C186.583 130.024 186.67 130.227 186.843 130.387C187.016 130.546 187.253 130.626 187.554 130.626ZM195.022 122.785V124.604H196.287V126.053H195.022V129.744C195.022 130.018 195.075 130.214 195.18 130.332C195.285 130.451 195.485 130.51 195.781 130.51C196 130.51 196.194 130.494 196.362 130.462V131.959C195.975 132.077 195.576 132.137 195.166 132.137C193.781 132.137 193.074 131.437 193.047 130.038V126.053H191.967V124.604H193.047V122.785H195.022ZM201.042 132.137C199.957 132.137 199.073 131.804 198.39 131.139C197.711 130.473 197.371 129.587 197.371 128.479V128.288C197.371 127.545 197.515 126.882 197.802 126.299C198.089 125.711 198.494 125.26 199.019 124.945C199.547 124.626 200.149 124.467 200.823 124.467C201.835 124.467 202.63 124.786 203.209 125.424C203.792 126.062 204.084 126.966 204.084 128.138V128.944H199.374C199.438 129.427 199.629 129.815 199.948 130.106C200.272 130.398 200.68 130.544 201.172 130.544C201.933 130.544 202.528 130.268 202.956 129.717L203.927 130.804C203.631 131.223 203.229 131.551 202.724 131.788C202.218 132.021 201.657 132.137 201.042 132.137ZM200.816 126.066C200.424 126.066 200.105 126.199 199.859 126.463C199.618 126.727 199.463 127.105 199.395 127.598H202.143V127.44C202.133 127.003 202.015 126.666 201.787 126.429C201.559 126.187 201.236 126.066 200.816 126.066ZM205.154 128.247C205.154 127.094 205.412 126.176 205.927 125.492C206.446 124.809 207.155 124.467 208.053 124.467C208.773 124.467 209.368 124.736 209.837 125.273V121.5H211.819V132H210.035L209.939 131.214C209.447 131.829 208.814 132.137 208.039 132.137C207.169 132.137 206.469 131.795 205.94 131.111C205.416 130.423 205.154 129.468 205.154 128.247ZM207.13 128.391C207.13 129.083 207.251 129.614 207.492 129.983C207.734 130.353 208.085 130.537 208.545 130.537C209.156 130.537 209.586 130.28 209.837 129.765V126.846C209.591 126.331 209.165 126.073 208.559 126.073C207.606 126.073 207.13 126.846 207.13 128.391ZM223.77 129.313L224.74 124.604H226.647L224.761 132H223.106L221.705 127.345L220.304 132H218.656L216.77 124.604H218.677L219.641 129.307L220.994 124.604H222.423L223.77 129.313ZM229.967 132H227.984V124.604H229.967V132ZM227.868 122.689C227.868 122.393 227.966 122.149 228.162 121.958C228.363 121.767 228.634 121.671 228.976 121.671C229.313 121.671 229.582 121.767 229.782 121.958C229.983 122.149 230.083 122.393 230.083 122.689C230.083 122.99 229.98 123.236 229.775 123.428C229.575 123.619 229.308 123.715 228.976 123.715C228.643 123.715 228.374 123.619 228.169 123.428C227.968 123.236 227.868 122.99 227.868 122.689ZM234.216 122.785V124.604H235.48V126.053H234.216V129.744C234.216 130.018 234.268 130.214 234.373 130.332C234.478 130.451 234.678 130.51 234.975 130.51C235.193 130.51 235.387 130.494 235.556 130.462V131.959C235.168 132.077 234.77 132.137 234.359 132.137C232.974 132.137 232.268 131.437 232.24 130.038V126.053H231.16V124.604H232.24V122.785H234.216ZM238.759 125.41C239.283 124.781 239.941 124.467 240.734 124.467C242.339 124.467 243.152 125.399 243.175 127.263V132H241.199V127.317C241.199 126.894 241.108 126.581 240.926 126.381C240.743 126.176 240.44 126.073 240.017 126.073C239.438 126.073 239.019 126.297 238.759 126.743V132H236.783V121.5H238.759V125.41ZM28.915 146.456C28.6462 146.42 28.4092 146.401 28.2041 146.401C27.4567 146.401 26.9668 146.654 26.7344 147.16V152H24.7588V144.604H26.625L26.6797 145.485C27.0762 144.806 27.6253 144.467 28.3271 144.467C28.5459 144.467 28.751 144.496 28.9424 144.556L28.915 146.456ZM29.5684 148.233C29.5684 147.5 29.7096 146.846 29.9922 146.271C30.2747 145.697 30.6803 145.253 31.209 144.938C31.7422 144.624 32.3597 144.467 33.0615 144.467C34.0596 144.467 34.873 144.772 35.502 145.383C36.1354 145.993 36.4886 146.823 36.5615 147.871L36.5752 148.377C36.5752 149.512 36.2585 150.423 35.625 151.111C34.9915 151.795 34.1416 152.137 33.0752 152.137C32.0088 152.137 31.1566 151.795 30.5186 151.111C29.8851 150.428 29.5684 149.498 29.5684 148.322V148.233ZM31.5439 148.377C31.5439 149.079 31.6761 149.617 31.9404 149.99C32.2048 150.359 32.583 150.544 33.0752 150.544C33.5537 150.544 33.9274 150.362 34.1963 149.997C34.4652 149.628 34.5996 149.04 34.5996 148.233C34.5996 147.545 34.4652 147.012 34.1963 146.634C33.9274 146.256 33.5492 146.066 33.0615 146.066C32.5785 146.066 32.2048 146.256 31.9404 146.634C31.6761 147.007 31.5439 147.589 31.5439 148.377ZM42.4717 151.248C41.984 151.84 41.3096 152.137 40.4482 152.137C39.6553 152.137 39.0492 151.909 38.6299 151.453C38.2152 150.997 38.0033 150.33 37.9941 149.45V144.604H39.9697V149.382C39.9697 150.152 40.3206 150.537 41.0225 150.537C41.6924 150.537 42.1527 150.305 42.4033 149.84V144.604H44.3857V152H42.5264L42.4717 151.248ZM48.4912 142.785V144.604H49.7559V146.053H48.4912V149.744C48.4912 150.018 48.5436 150.214 48.6484 150.332C48.7533 150.451 48.9538 150.51 49.25 150.51C49.4688 150.51 49.6624 150.494 49.8311 150.462V151.959C49.4437 152.077 49.0449 152.137 48.6348 152.137C47.2493 152.137 46.543 151.437 46.5156 150.038V146.053H45.4355V144.604H46.5156V142.785H48.4912ZM53.1914 152H51.209V144.604H53.1914V152ZM51.0928 142.689C51.0928 142.393 51.1908 142.149 51.3867 141.958C51.5872 141.767 51.8584 141.671 52.2002 141.671C52.5374 141.671 52.8063 141.767 53.0068 141.958C53.2074 142.149 53.3076 142.393 53.3076 142.689C53.3076 142.99 53.2051 143.236 53 143.428C52.7995 143.619 52.5329 143.715 52.2002 143.715C51.8675 143.715 51.5986 143.619 51.3936 143.428C51.193 143.236 51.0928 142.99 51.0928 142.689ZM56.8936 144.604L56.9551 145.458C57.4837 144.797 58.1924 144.467 59.0811 144.467C59.8649 144.467 60.4482 144.697 60.8311 145.157C61.2139 145.618 61.4098 146.306 61.4189 147.222V152H59.4434V147.27C59.4434 146.85 59.3522 146.547 59.1699 146.36C58.9876 146.169 58.6846 146.073 58.2607 146.073C57.7048 146.073 57.2878 146.31 57.0098 146.784V152H55.0342V144.604H56.8936ZM66.5771 152.137C65.4925 152.137 64.6084 151.804 63.9248 151.139C63.2458 150.473 62.9062 149.587 62.9062 148.479V148.288C62.9062 147.545 63.0498 146.882 63.3369 146.299C63.624 145.711 64.0296 145.26 64.5537 144.945C65.0824 144.626 65.6839 144.467 66.3584 144.467C67.3701 144.467 68.1654 144.786 68.7441 145.424C69.3275 146.062 69.6191 146.966 69.6191 148.138V148.944H64.9092C64.973 149.427 65.1644 149.815 65.4834 150.106C65.807 150.398 66.2148 150.544 66.707 150.544C67.4681 150.544 68.0628 150.268 68.4912 149.717L69.4619 150.804C69.1657 151.223 68.7646 151.551 68.2588 151.788C67.7529 152.021 67.1924 152.137 66.5771 152.137ZM66.3516 146.066C65.9596 146.066 65.6406 146.199 65.3945 146.463C65.153 146.727 64.998 147.105 64.9297 147.598H67.6777V147.44C67.6686 147.003 67.5501 146.666 67.3223 146.429C67.0944 146.187 66.7708 146.066 66.3516 146.066ZM79.1631 151.248C78.6755 151.84 78.001 152.137 77.1396 152.137C76.3467 152.137 75.7406 151.909 75.3213 151.453C74.9066 150.997 74.6947 150.33 74.6855 149.45V144.604H76.6611V149.382C76.6611 150.152 77.012 150.537 77.7139 150.537C78.3838 150.537 78.8441 150.305 79.0947 149.84V144.604H81.0771V152H79.2178L79.1631 151.248ZM89.4756 148.37C89.4756 149.509 89.2158 150.423 88.6963 151.111C88.1813 151.795 87.484 152.137 86.6045 152.137C85.8571 152.137 85.2533 151.877 84.793 151.357V154.844H82.8174V144.604H84.6494L84.7178 145.328C85.1963 144.754 85.8206 144.467 86.5908 144.467C87.5023 144.467 88.2109 144.804 88.7168 145.479C89.2227 146.153 89.4756 147.083 89.4756 148.268V148.37ZM87.5 148.227C87.5 147.538 87.377 147.007 87.1309 146.634C86.8893 146.26 86.5361 146.073 86.0713 146.073C85.4515 146.073 85.0254 146.31 84.793 146.784V149.812C85.0345 150.3 85.4652 150.544 86.085 150.544C87.0283 150.544 87.5 149.771 87.5 148.227ZM90.6484 148.247C90.6484 147.094 90.9059 146.176 91.4209 145.492C91.9404 144.809 92.6491 144.467 93.5469 144.467C94.2669 144.467 94.8617 144.736 95.3311 145.273V141.5H97.3135V152H95.5293L95.4336 151.214C94.9414 151.829 94.3079 152.137 93.5332 152.137C92.6628 152.137 91.9632 151.795 91.4346 151.111C90.9105 150.423 90.6484 149.468 90.6484 148.247ZM92.624 148.391C92.624 149.083 92.7448 149.614 92.9863 149.983C93.2279 150.353 93.5788 150.537 94.0391 150.537C94.6497 150.537 95.0804 150.28 95.3311 149.765V146.846C95.085 146.331 94.6589 146.073 94.0527 146.073C93.1003 146.073 92.624 146.846 92.624 148.391ZM103.381 152C103.29 151.822 103.224 151.601 103.183 151.337C102.704 151.87 102.082 152.137 101.316 152.137C100.592 152.137 99.9902 151.927 99.5117 151.508C99.0378 151.089 98.8008 150.56 98.8008 149.922C98.8008 149.138 99.0902 148.536 99.6689 148.117C100.252 147.698 101.093 147.486 102.191 147.481H103.101V147.058C103.101 146.716 103.012 146.442 102.834 146.237C102.661 146.032 102.385 145.93 102.007 145.93C101.674 145.93 101.412 146.009 101.221 146.169C101.034 146.328 100.94 146.547 100.94 146.825H98.9648C98.9648 146.397 99.097 146 99.3613 145.636C99.6257 145.271 99.9993 144.986 100.482 144.781C100.965 144.572 101.508 144.467 102.109 144.467C103.021 144.467 103.743 144.697 104.276 145.157C104.814 145.613 105.083 146.256 105.083 147.085V150.291C105.088 150.993 105.186 151.524 105.377 151.884V152H103.381ZM101.747 150.626C102.039 150.626 102.308 150.562 102.554 150.435C102.8 150.302 102.982 150.127 103.101 149.908V148.637H102.362C101.373 148.637 100.847 148.979 100.783 149.662L100.776 149.778C100.776 150.024 100.863 150.227 101.036 150.387C101.209 150.546 101.446 150.626 101.747 150.626ZM109.216 142.785V144.604H110.48V146.053H109.216V149.744C109.216 150.018 109.268 150.214 109.373 150.332C109.478 150.451 109.678 150.51 109.975 150.51C110.193 150.51 110.387 150.494 110.556 150.462V151.959C110.168 152.077 109.77 152.137 109.359 152.137C107.974 152.137 107.268 151.437 107.24 150.038V146.053H106.16V144.604H107.24V142.785H109.216ZM115.235 152.137C114.151 152.137 113.267 151.804 112.583 151.139C111.904 150.473 111.564 149.587 111.564 148.479V148.288C111.564 147.545 111.708 146.882 111.995 146.299C112.282 145.711 112.688 145.26 113.212 144.945C113.741 144.626 114.342 144.467 115.017 144.467C116.028 144.467 116.824 144.786 117.402 145.424C117.986 146.062 118.277 146.966 118.277 148.138V148.944H113.567C113.631 149.427 113.823 149.815 114.142 150.106C114.465 150.398 114.873 150.544 115.365 150.544C116.126 150.544 116.721 150.268 117.149 149.717L118.12 150.804C117.824 151.223 117.423 151.551 116.917 151.788C116.411 152.021 115.851 152.137 115.235 152.137ZM115.01 146.066C114.618 146.066 114.299 146.199 114.053 146.463C113.811 146.727 113.656 147.105 113.588 147.598H116.336V147.44C116.327 147.003 116.208 146.666 115.98 146.429C115.753 146.187 115.429 146.066 115.01 146.066ZM123.661 149.956C123.661 149.715 123.54 149.525 123.299 149.389C123.062 149.247 122.679 149.122 122.15 149.013C120.391 148.644 119.512 147.896 119.512 146.771C119.512 146.114 119.783 145.567 120.325 145.13C120.872 144.688 121.585 144.467 122.465 144.467C123.404 144.467 124.153 144.688 124.714 145.13C125.279 145.572 125.562 146.146 125.562 146.853H123.586C123.586 146.57 123.495 146.338 123.312 146.155C123.13 145.968 122.845 145.875 122.458 145.875C122.125 145.875 121.868 145.95 121.686 146.101C121.503 146.251 121.412 146.442 121.412 146.675C121.412 146.894 121.515 147.071 121.72 147.208C121.929 147.34 122.28 147.456 122.772 147.557C123.265 147.652 123.679 147.762 124.017 147.885C125.06 148.268 125.582 148.931 125.582 149.874C125.582 150.549 125.293 151.095 124.714 151.515C124.135 151.929 123.388 152.137 122.472 152.137C121.852 152.137 121.3 152.027 120.817 151.809C120.339 151.585 119.963 151.282 119.689 150.899C119.416 150.512 119.279 150.095 119.279 149.648H121.152C121.171 149.999 121.3 150.268 121.542 150.455C121.784 150.642 122.107 150.735 122.513 150.735C122.891 150.735 123.176 150.665 123.367 150.523C123.563 150.378 123.661 150.188 123.661 149.956ZM131.387 152V146.053H130.286V144.604H131.387V143.975C131.387 143.145 131.624 142.503 132.098 142.047C132.576 141.587 133.244 141.356 134.101 141.356C134.374 141.356 134.709 141.402 135.105 141.493L135.085 143.024C134.921 142.983 134.72 142.963 134.483 142.963C133.741 142.963 133.369 143.312 133.369 144.009V144.604H134.839V146.053H133.369V152H131.387ZM135.807 148.233C135.807 147.5 135.948 146.846 136.23 146.271C136.513 145.697 136.919 145.253 137.447 144.938C137.98 144.624 138.598 144.467 139.3 144.467C140.298 144.467 141.111 144.772 141.74 145.383C142.374 145.993 142.727 146.823 142.8 147.871L142.813 148.377C142.813 149.512 142.497 150.423 141.863 151.111C141.23 151.795 140.38 152.137 139.313 152.137C138.247 152.137 137.395 151.795 136.757 151.111C136.123 150.428 135.807 149.498 135.807 148.322V148.233ZM137.782 148.377C137.782 149.079 137.914 149.617 138.179 149.99C138.443 150.359 138.821 150.544 139.313 150.544C139.792 150.544 140.166 150.362 140.435 149.997C140.703 149.628 140.838 149.04 140.838 148.233C140.838 147.545 140.703 147.012 140.435 146.634C140.166 146.256 139.787 146.066 139.3 146.066C138.817 146.066 138.443 146.256 138.179 146.634C137.914 147.007 137.782 147.589 137.782 148.377ZM148.437 146.456C148.168 146.42 147.931 146.401 147.726 146.401C146.978 146.401 146.488 146.654 146.256 147.16V152H144.28V144.604H146.146L146.201 145.485C146.598 144.806 147.147 144.467 147.849 144.467C148.067 144.467 148.272 144.496 148.464 144.556L148.437 146.456ZM157.386 149.956C157.386 149.715 157.265 149.525 157.023 149.389C156.786 149.247 156.404 149.122 155.875 149.013C154.116 148.644 153.236 147.896 153.236 146.771C153.236 146.114 153.507 145.567 154.05 145.13C154.597 144.688 155.31 144.467 156.189 144.467C157.128 144.467 157.878 144.688 158.438 145.13C159.004 145.572 159.286 146.146 159.286 146.853H157.311C157.311 146.57 157.219 146.338 157.037 146.155C156.855 145.968 156.57 145.875 156.183 145.875C155.85 145.875 155.592 145.95 155.41 146.101C155.228 146.251 155.137 146.442 155.137 146.675C155.137 146.894 155.239 147.071 155.444 147.208C155.654 147.34 156.005 147.456 156.497 147.557C156.989 147.652 157.404 147.762 157.741 147.885C158.785 148.268 159.307 148.931 159.307 149.874C159.307 150.549 159.017 151.095 158.438 151.515C157.86 151.929 157.112 152.137 156.196 152.137C155.576 152.137 155.025 152.027 154.542 151.809C154.063 151.585 153.688 151.282 153.414 150.899C153.141 150.512 153.004 150.095 153.004 149.648H154.877C154.895 149.999 155.025 150.268 155.267 150.455C155.508 150.642 155.832 150.735 156.237 150.735C156.616 150.735 156.9 150.665 157.092 150.523C157.288 150.378 157.386 150.188 157.386 149.956ZM164.239 152.137C163.155 152.137 162.271 151.804 161.587 151.139C160.908 150.473 160.568 149.587 160.568 148.479V148.288C160.568 147.545 160.712 146.882 160.999 146.299C161.286 145.711 161.692 145.26 162.216 144.945C162.744 144.626 163.346 144.467 164.021 144.467C165.032 144.467 165.827 144.786 166.406 145.424C166.99 146.062 167.281 146.966 167.281 148.138V148.944H162.571C162.635 149.427 162.826 149.815 163.146 150.106C163.469 150.398 163.877 150.544 164.369 150.544C165.13 150.544 165.725 150.268 166.153 149.717L167.124 150.804C166.828 151.223 166.427 151.551 165.921 151.788C165.415 152.021 164.854 152.137 164.239 152.137ZM164.014 146.066C163.622 146.066 163.303 146.199 163.057 146.463C162.815 146.727 162.66 147.105 162.592 147.598H165.34V147.44C165.331 147.003 165.212 146.666 164.984 146.429C164.757 146.187 164.433 146.066 164.014 146.066ZM171.735 150.544C172.1 150.544 172.396 150.444 172.624 150.243C172.852 150.043 172.97 149.776 172.979 149.443H174.832C174.827 149.945 174.691 150.405 174.422 150.824C174.153 151.239 173.784 151.562 173.314 151.795C172.85 152.023 172.335 152.137 171.77 152.137C170.712 152.137 169.878 151.802 169.268 151.132C168.657 150.457 168.352 149.528 168.352 148.343V148.213C168.352 147.074 168.655 146.164 169.261 145.485C169.867 144.806 170.699 144.467 171.756 144.467C172.681 144.467 173.422 144.731 173.978 145.26C174.538 145.784 174.823 146.483 174.832 147.358H172.979C172.97 146.976 172.852 146.666 172.624 146.429C172.396 146.187 172.095 146.066 171.722 146.066C171.261 146.066 170.913 146.235 170.676 146.572C170.443 146.905 170.327 147.447 170.327 148.199V148.404C170.327 149.165 170.443 149.712 170.676 150.045C170.908 150.378 171.261 150.544 171.735 150.544ZM180.64 151.248C180.152 151.84 179.478 152.137 178.616 152.137C177.823 152.137 177.217 151.909 176.798 151.453C176.383 150.997 176.171 150.33 176.162 149.45V144.604H178.138V149.382C178.138 150.152 178.489 150.537 179.19 150.537C179.86 150.537 180.321 150.305 180.571 149.84V144.604H182.554V152H180.694L180.64 151.248ZM188.45 146.456C188.181 146.42 187.944 146.401 187.739 146.401C186.992 146.401 186.502 146.654 186.27 147.16V152H184.294V144.604H186.16L186.215 145.485C186.611 144.806 187.16 144.467 187.862 144.467C188.081 144.467 188.286 144.496 188.478 144.556L188.45 146.456ZM191.742 152H189.76V144.604H191.742V152ZM189.644 142.689C189.644 142.393 189.742 142.149 189.938 141.958C190.138 141.767 190.409 141.671 190.751 141.671C191.088 141.671 191.357 141.767 191.558 141.958C191.758 142.149 191.858 142.393 191.858 142.689C191.858 142.99 191.756 143.236 191.551 143.428C191.35 143.619 191.084 143.715 190.751 143.715C190.418 143.715 190.149 143.619 189.944 143.428C189.744 143.236 189.644 142.99 189.644 142.689ZM195.991 142.785V144.604H197.256V146.053H195.991V149.744C195.991 150.018 196.044 150.214 196.148 150.332C196.253 150.451 196.454 150.51 196.75 150.51C196.969 150.51 197.162 150.494 197.331 150.462V151.959C196.944 152.077 196.545 152.137 196.135 152.137C194.749 152.137 194.043 151.437 194.016 150.038V146.053H192.936V144.604H194.016V142.785H195.991ZM201.368 149.204L202.735 144.604H204.854L201.881 153.148L201.717 153.538C201.275 154.504 200.546 154.987 199.529 154.987C199.242 154.987 198.951 154.944 198.654 154.857V153.36L198.955 153.367C199.329 153.367 199.607 153.31 199.789 153.196C199.976 153.082 200.122 152.893 200.227 152.629L200.459 152.021L197.868 144.604H199.994L201.368 149.204ZM216.278 148.37C216.278 149.509 216.019 150.423 215.499 151.111C214.984 151.795 214.287 152.137 213.407 152.137C212.66 152.137 212.056 151.877 211.596 151.357V154.844H209.62V144.604H211.452L211.521 145.328C211.999 144.754 212.623 144.467 213.394 144.467C214.305 144.467 215.014 144.804 215.52 145.479C216.025 146.153 216.278 147.083 216.278 148.268V148.37ZM214.303 148.227C214.303 147.538 214.18 147.007 213.934 146.634C213.692 146.26 213.339 146.073 212.874 146.073C212.254 146.073 211.828 146.31 211.596 146.784V149.812C211.837 150.3 212.268 150.544 212.888 150.544C213.831 150.544 214.303 149.771 214.303 148.227ZM222.045 152C221.954 151.822 221.888 151.601 221.847 151.337C221.368 151.87 220.746 152.137 219.98 152.137C219.256 152.137 218.654 151.927 218.176 151.508C217.702 151.089 217.465 150.56 217.465 149.922C217.465 149.138 217.754 148.536 218.333 148.117C218.916 147.698 219.757 147.486 220.855 147.481H221.765V147.058C221.765 146.716 221.676 146.442 221.498 146.237C221.325 146.032 221.049 145.93 220.671 145.93C220.338 145.93 220.076 146.009 219.885 146.169C219.698 146.328 219.604 146.547 219.604 146.825H217.629C217.629 146.397 217.761 146 218.025 145.636C218.29 145.271 218.663 144.986 219.146 144.781C219.63 144.572 220.172 144.467 220.773 144.467C221.685 144.467 222.407 144.697 222.94 145.157C223.478 145.613 223.747 146.256 223.747 147.085V150.291C223.752 150.993 223.85 151.524 224.041 151.884V152H222.045ZM220.411 150.626C220.703 150.626 220.972 150.562 221.218 150.435C221.464 150.302 221.646 150.127 221.765 149.908V148.637H221.026C220.037 148.637 219.511 148.979 219.447 149.662L219.44 149.778C219.44 150.024 219.527 150.227 219.7 150.387C219.873 150.546 220.11 150.626 220.411 150.626ZM227.88 142.785V144.604H229.145V146.053H227.88V149.744C227.88 150.018 227.932 150.214 228.037 150.332C228.142 150.451 228.342 150.51 228.639 150.51C228.857 150.51 229.051 150.494 229.22 150.462V151.959C228.832 152.077 228.434 152.137 228.023 152.137C226.638 152.137 225.932 151.437 225.904 150.038V146.053H224.824V144.604H225.904V142.785H227.88ZM233.571 150.544C233.936 150.544 234.232 150.444 234.46 150.243C234.688 150.043 234.806 149.776 234.815 149.443H236.668C236.663 149.945 236.527 150.405 236.258 150.824C235.989 151.239 235.62 151.562 235.15 151.795C234.686 152.023 234.171 152.137 233.605 152.137C232.548 152.137 231.714 151.802 231.104 151.132C230.493 150.457 230.188 149.528 230.188 148.343V148.213C230.188 147.074 230.491 146.164 231.097 145.485C231.703 144.806 232.535 144.467 233.592 144.467C234.517 144.467 235.257 144.731 235.813 145.26C236.374 145.784 236.659 146.483 236.668 147.358H234.815C234.806 146.976 234.688 146.666 234.46 146.429C234.232 146.187 233.931 146.066 233.558 146.066C233.097 146.066 232.749 146.235 232.512 146.572C232.279 146.905 232.163 147.447 232.163 148.199V148.404C232.163 149.165 232.279 149.712 232.512 150.045C232.744 150.378 233.097 150.544 233.571 150.544ZM239.974 145.41C240.498 144.781 241.156 144.467 241.949 144.467C243.553 144.467 244.367 145.399 244.39 147.263V152H242.414V147.317C242.414 146.894 242.323 146.581 242.141 146.381C241.958 146.176 241.655 146.073 241.231 146.073C240.653 146.073 240.233 146.297 239.974 146.743V152H237.998V141.5H239.974V145.41ZM249.534 152.137C248.45 152.137 247.565 151.804 246.882 151.139C246.203 150.473 245.863 149.587 245.863 148.479V148.288C245.863 147.545 246.007 146.882 246.294 146.299C246.581 145.711 246.987 145.26 247.511 144.945C248.039 144.626 248.641 144.467 249.315 144.467C250.327 144.467 251.122 144.786 251.701 145.424C252.285 146.062 252.576 146.966 252.576 148.138V148.944H247.866C247.93 149.427 248.121 149.815 248.44 150.106C248.764 150.398 249.172 150.544 249.664 150.544C250.425 150.544 251.02 150.268 251.448 149.717L252.419 150.804C252.123 151.223 251.722 151.551 251.216 151.788C250.71 152.021 250.149 152.137 249.534 152.137ZM249.309 146.066C248.917 146.066 248.598 146.199 248.352 146.463C248.11 146.727 247.955 147.105 247.887 147.598H250.635V147.44C250.626 147.003 250.507 146.666 250.279 146.429C250.051 146.187 249.728 146.066 249.309 146.066ZM257.96 149.956C257.96 149.715 257.839 149.525 257.598 149.389C257.361 149.247 256.978 149.122 256.449 149.013C254.69 148.644 253.811 147.896 253.811 146.771C253.811 146.114 254.082 145.567 254.624 145.13C255.171 144.688 255.884 144.467 256.764 144.467C257.702 144.467 258.452 144.688 259.013 145.13C259.578 145.572 259.86 146.146 259.86 146.853H257.885C257.885 146.57 257.794 146.338 257.611 146.155C257.429 145.968 257.144 145.875 256.757 145.875C256.424 145.875 256.167 145.95 255.984 146.101C255.802 146.251 255.711 146.442 255.711 146.675C255.711 146.894 255.813 147.071 256.019 147.208C256.228 147.34 256.579 147.456 257.071 147.557C257.563 147.652 257.978 147.762 258.315 147.885C259.359 148.268 259.881 148.931 259.881 149.874C259.881 150.549 259.591 151.095 259.013 151.515C258.434 151.929 257.687 152.137 256.771 152.137C256.151 152.137 255.599 152.027 255.116 151.809C254.638 151.585 254.262 151.282 253.988 150.899C253.715 150.512 253.578 150.095 253.578 149.648H255.451C255.469 149.999 255.599 150.268 255.841 150.455C256.082 150.642 256.406 150.735 256.812 150.735C257.19 150.735 257.475 150.665 257.666 150.523C257.862 150.378 257.96 150.188 257.96 149.956ZM261.922 154.495L260.89 153.955L261.136 153.511C261.441 152.955 261.598 152.401 261.607 151.85V150.318H263.275L263.269 151.686C263.264 152.191 263.136 152.702 262.886 153.217C262.635 153.732 262.314 154.158 261.922 154.495ZM31.4238 168.37C31.4238 169.555 31.1709 170.48 30.665 171.146C30.1592 171.806 29.4528 172.137 28.5459 172.137C27.7438 172.137 27.1035 171.829 26.625 171.214L26.5361 172H24.7588V161.5H26.7344V165.267C27.1901 164.733 27.7894 164.467 28.5322 164.467C29.4346 164.467 30.141 164.799 30.6514 165.465C31.1663 166.126 31.4238 167.058 31.4238 168.261V168.37ZM29.4482 168.227C29.4482 167.479 29.3298 166.935 29.0928 166.593C28.8558 166.246 28.5026 166.073 28.0332 166.073C27.4043 166.073 26.9714 166.331 26.7344 166.846V169.765C26.9759 170.284 27.4134 170.544 28.0469 170.544C28.6849 170.544 29.1042 170.229 29.3047 169.601C29.4004 169.3 29.4482 168.842 29.4482 168.227ZM37.3271 171.248C36.8395 171.84 36.165 172.137 35.3037 172.137C34.5107 172.137 33.9046 171.909 33.4854 171.453C33.0706 170.997 32.8587 170.33 32.8496 169.45V164.604H34.8252V169.382C34.8252 170.152 35.1761 170.537 35.8779 170.537C36.5479 170.537 37.0081 170.305 37.2588 169.84V164.604H39.2412V172H37.3818L37.3271 171.248ZM43.0664 172H41.084V164.604H43.0664V172ZM40.9678 162.689C40.9678 162.393 41.0658 162.149 41.2617 161.958C41.4622 161.767 41.7334 161.671 42.0752 161.671C42.4124 161.671 42.6813 161.767 42.8818 161.958C43.0824 162.149 43.1826 162.393 43.1826 162.689C43.1826 162.99 43.0801 163.236 42.875 163.428C42.6745 163.619 42.4079 163.715 42.0752 163.715C41.7425 163.715 41.4736 163.619 41.2686 163.428C41.068 163.236 40.9678 162.99 40.9678 162.689ZM47.0352 172H45.0527V161.5H47.0352V172ZM48.6113 168.247C48.6113 167.094 48.8688 166.176 49.3838 165.492C49.9033 164.809 50.612 164.467 51.5098 164.467C52.2298 164.467 52.8245 164.736 53.2939 165.273V161.5H55.2764V172H53.4922L53.3965 171.214C52.9043 171.829 52.2708 172.137 51.4961 172.137C50.6257 172.137 49.9261 171.795 49.3975 171.111C48.8734 170.423 48.6113 169.468 48.6113 168.247ZM50.5869 168.391C50.5869 169.083 50.7077 169.614 50.9492 169.983C51.1908 170.353 51.5417 170.537 52.002 170.537C52.6126 170.537 53.0433 170.28 53.2939 169.765V166.846C53.0479 166.331 52.6217 166.073 52.0156 166.073C51.0632 166.073 50.5869 166.846 50.5869 168.391ZM61.0635 169.956C61.0635 169.715 60.9427 169.525 60.7012 169.389C60.4642 169.247 60.0814 169.122 59.5527 169.013C57.7936 168.644 56.9141 167.896 56.9141 166.771C56.9141 166.114 57.1852 165.567 57.7275 165.13C58.2744 164.688 58.9876 164.467 59.8672 164.467C60.806 164.467 61.5557 164.688 62.1162 165.13C62.6813 165.572 62.9639 166.146 62.9639 166.853H60.9883C60.9883 166.57 60.8971 166.338 60.7148 166.155C60.5326 165.968 60.2477 165.875 59.8604 165.875C59.5277 165.875 59.2702 165.95 59.0879 166.101C58.9056 166.251 58.8145 166.442 58.8145 166.675C58.8145 166.894 58.917 167.071 59.1221 167.208C59.3317 167.34 59.6826 167.456 60.1748 167.557C60.667 167.652 61.0817 167.762 61.4189 167.885C62.4626 168.268 62.9844 168.931 62.9844 169.874C62.9844 170.549 62.695 171.095 62.1162 171.515C61.5374 171.929 60.79 172.137 59.874 172.137C59.2542 172.137 58.7028 172.027 58.2197 171.809C57.7412 171.585 57.3652 171.282 57.0918 170.899C56.8184 170.512 56.6816 170.095 56.6816 169.648H58.5547C58.5729 169.999 58.7028 170.268 58.9443 170.455C59.1859 170.642 59.5094 170.735 59.915 170.735C60.2933 170.735 60.5781 170.665 60.7695 170.523C60.9655 170.378 61.0635 170.188 61.0635 169.956ZM72.5352 172C72.444 171.822 72.3779 171.601 72.3369 171.337C71.8584 171.87 71.2363 172.137 70.4707 172.137C69.7461 172.137 69.1445 171.927 68.666 171.508C68.1921 171.089 67.9551 170.56 67.9551 169.922C67.9551 169.138 68.2445 168.536 68.8232 168.117C69.4066 167.698 70.2474 167.486 71.3457 167.481H72.2549V167.058C72.2549 166.716 72.166 166.442 71.9883 166.237C71.8151 166.032 71.5394 165.93 71.1611 165.93C70.8285 165.93 70.5664 166.009 70.375 166.169C70.1882 166.328 70.0947 166.547 70.0947 166.825H68.1191C68.1191 166.397 68.2513 166 68.5156 165.636C68.7799 165.271 69.1536 164.986 69.6367 164.781C70.1198 164.572 70.6621 164.467 71.2637 164.467C72.1751 164.467 72.8975 164.697 73.4307 165.157C73.9684 165.613 74.2373 166.256 74.2373 167.085V170.291C74.2419 170.993 74.3398 171.524 74.5312 171.884V172H72.5352ZM70.9014 170.626C71.193 170.626 71.4619 170.562 71.708 170.435C71.9541 170.302 72.1364 170.127 72.2549 169.908V168.637H71.5166C70.5277 168.637 70.0013 168.979 69.9375 169.662L69.9307 169.778C69.9307 170.024 70.0173 170.227 70.1904 170.387C70.3636 170.546 70.6006 170.626 70.9014 170.626ZM77.8232 164.604L77.8848 165.458C78.4134 164.797 79.1221 164.467 80.0107 164.467C80.7946 164.467 81.3779 164.697 81.7607 165.157C82.1436 165.618 82.3395 166.306 82.3486 167.222V172H80.373V167.27C80.373 166.85 80.2819 166.547 80.0996 166.36C79.9173 166.169 79.6143 166.073 79.1904 166.073C78.6344 166.073 78.2174 166.31 77.9395 166.784V172H75.9639V164.604H77.8232ZM83.7949 168.247C83.7949 167.094 84.0524 166.176 84.5674 165.492C85.0869 164.809 85.7956 164.467 86.6934 164.467C87.4134 164.467 88.0081 164.736 88.4775 165.273V161.5H90.46V172H88.6758L88.5801 171.214C88.0879 171.829 87.4544 172.137 86.6797 172.137C85.8092 172.137 85.1097 171.795 84.5811 171.111C84.057 170.423 83.7949 169.468 83.7949 168.247ZM85.7705 168.391C85.7705 169.083 85.8913 169.614 86.1328 169.983C86.3743 170.353 86.7253 170.537 87.1855 170.537C87.7962 170.537 88.2269 170.28 88.4775 169.765V166.846C88.2314 166.331 87.8053 166.073 87.1992 166.073C86.2467 166.073 85.7705 166.846 85.7705 168.391ZM95.6699 168.233C95.6699 167.5 95.8112 166.846 96.0938 166.271C96.3763 165.697 96.7819 165.253 97.3105 164.938C97.8438 164.624 98.4613 164.467 99.1631 164.467C100.161 164.467 100.975 164.772 101.604 165.383C102.237 165.993 102.59 166.823 102.663 167.871L102.677 168.377C102.677 169.512 102.36 170.423 101.727 171.111C101.093 171.795 100.243 172.137 99.1768 172.137C98.1104 172.137 97.2581 171.795 96.6201 171.111C95.9867 170.428 95.6699 169.498 95.6699 168.322V168.233ZM97.6455 168.377C97.6455 169.079 97.7777 169.617 98.042 169.99C98.3063 170.359 98.6846 170.544 99.1768 170.544C99.6553 170.544 100.029 170.362 100.298 169.997C100.567 169.628 100.701 169.04 100.701 168.233C100.701 167.545 100.567 167.012 100.298 166.634C100.029 166.256 99.6507 166.066 99.1631 166.066C98.68 166.066 98.3063 166.256 98.042 166.634C97.7777 167.007 97.6455 167.589 97.6455 168.377ZM106.509 162.785V164.604H107.773V166.053H106.509V169.744C106.509 170.018 106.561 170.214 106.666 170.332C106.771 170.451 106.971 170.51 107.268 170.51C107.486 170.51 107.68 170.494 107.849 170.462V171.959C107.461 172.077 107.062 172.137 106.652 172.137C105.267 172.137 104.561 171.437 104.533 170.038V166.053H103.453V164.604H104.533V162.785H106.509ZM111.052 165.41C111.576 164.781 112.234 164.467 113.027 164.467C114.632 164.467 115.445 165.399 115.468 167.263V172H113.492V167.317C113.492 166.894 113.401 166.581 113.219 166.381C113.036 166.176 112.733 166.073 112.31 166.073C111.731 166.073 111.312 166.297 111.052 166.743V172H109.076V161.5H111.052V165.41ZM120.612 172.137C119.528 172.137 118.644 171.804 117.96 171.139C117.281 170.473 116.941 169.587 116.941 168.479V168.288C116.941 167.545 117.085 166.882 117.372 166.299C117.659 165.711 118.065 165.26 118.589 164.945C119.118 164.626 119.719 164.467 120.394 164.467C121.405 164.467 122.201 164.786 122.779 165.424C123.363 166.062 123.654 166.966 123.654 168.138V168.944H118.944C119.008 169.427 119.2 169.815 119.519 170.106C119.842 170.398 120.25 170.544 120.742 170.544C121.503 170.544 122.098 170.268 122.526 169.717L123.497 170.804C123.201 171.223 122.8 171.551 122.294 171.788C121.788 172.021 121.228 172.137 120.612 172.137ZM120.387 166.066C119.995 166.066 119.676 166.199 119.43 166.463C119.188 166.727 119.033 167.105 118.965 167.598H121.713V167.44C121.704 167.003 121.585 166.666 121.357 166.429C121.13 166.187 120.806 166.066 120.387 166.066ZM129.188 166.456C128.92 166.42 128.683 166.401 128.478 166.401C127.73 166.401 127.24 166.654 127.008 167.16V172H125.032V164.604H126.898L126.953 165.485C127.35 164.806 127.899 164.467 128.601 164.467C128.819 164.467 129.024 164.496 129.216 164.556L129.188 166.456ZM134.672 172V166.053H133.571V164.604H134.672V163.975C134.672 163.145 134.909 162.503 135.383 162.047C135.861 161.587 136.529 161.356 137.386 161.356C137.659 161.356 137.994 161.402 138.391 161.493L138.37 163.024C138.206 162.983 138.006 162.963 137.769 162.963C137.026 162.963 136.654 163.312 136.654 164.009V164.604H138.124V166.053H136.654V172H134.672ZM142.64 172.137C141.555 172.137 140.671 171.804 139.987 171.139C139.308 170.473 138.969 169.587 138.969 168.479V168.288C138.969 167.545 139.112 166.882 139.399 166.299C139.687 165.711 140.092 165.26 140.616 164.945C141.145 164.626 141.746 164.467 142.421 164.467C143.433 164.467 144.228 164.786 144.807 165.424C145.39 166.062 145.682 166.966 145.682 168.138V168.944H140.972C141.035 169.427 141.227 169.815 141.546 170.106C141.869 170.398 142.277 170.544 142.77 170.544C143.531 170.544 144.125 170.268 144.554 169.717L145.524 170.804C145.228 171.223 144.827 171.551 144.321 171.788C143.815 172.021 143.255 172.137 142.64 172.137ZM142.414 166.066C142.022 166.066 141.703 166.199 141.457 166.463C141.215 166.727 141.061 167.105 140.992 167.598H143.74V167.44C143.731 167.003 143.613 166.666 143.385 166.429C143.157 166.187 142.833 166.066 142.414 166.066ZM151.346 172C151.255 171.822 151.188 171.601 151.147 171.337C150.669 171.87 150.047 172.137 149.281 172.137C148.557 172.137 147.955 171.927 147.477 171.508C147.003 171.089 146.766 170.56 146.766 169.922C146.766 169.138 147.055 168.536 147.634 168.117C148.217 167.698 149.058 167.486 150.156 167.481H151.065V167.058C151.065 166.716 150.977 166.442 150.799 166.237C150.626 166.032 150.35 165.93 149.972 165.93C149.639 165.93 149.377 166.009 149.186 166.169C148.999 166.328 148.905 166.547 148.905 166.825H146.93C146.93 166.397 147.062 166 147.326 165.636C147.59 165.271 147.964 164.986 148.447 164.781C148.93 164.572 149.473 164.467 150.074 164.467C150.986 164.467 151.708 164.697 152.241 165.157C152.779 165.613 153.048 166.256 153.048 167.085V170.291C153.052 170.993 153.15 171.524 153.342 171.884V172H151.346ZM149.712 170.626C150.004 170.626 150.272 170.562 150.519 170.435C150.765 170.302 150.947 170.127 151.065 169.908V168.637H150.327C149.338 168.637 148.812 168.979 148.748 169.662L148.741 169.778C148.741 170.024 148.828 170.227 149.001 170.387C149.174 170.546 149.411 170.626 149.712 170.626ZM157.181 162.785V164.604H158.445V166.053H157.181V169.744C157.181 170.018 157.233 170.214 157.338 170.332C157.443 170.451 157.643 170.51 157.939 170.51C158.158 170.51 158.352 170.494 158.521 170.462V171.959C158.133 172.077 157.734 172.137 157.324 172.137C155.939 172.137 155.232 171.437 155.205 170.038V166.053H154.125V164.604H155.205V162.785H157.181ZM164.226 171.248C163.738 171.84 163.063 172.137 162.202 172.137C161.409 172.137 160.803 171.909 160.384 171.453C159.969 170.997 159.757 170.33 159.748 169.45V164.604H161.724V169.382C161.724 170.152 162.075 170.537 162.776 170.537C163.446 170.537 163.907 170.305 164.157 169.84V164.604H166.14V172H164.28L164.226 171.248ZM172.036 166.456C171.767 166.42 171.53 166.401 171.325 166.401C170.578 166.401 170.088 166.654 169.855 167.16V172H167.88V164.604H169.746L169.801 165.485C170.197 164.806 170.746 164.467 171.448 164.467C171.667 164.467 171.872 164.496 172.063 164.556L172.036 166.456ZM176.511 172.137C175.426 172.137 174.542 171.804 173.858 171.139C173.179 170.473 172.84 169.587 172.84 168.479V168.288C172.84 167.545 172.983 166.882 173.271 166.299C173.558 165.711 173.963 165.26 174.487 164.945C175.016 164.626 175.618 164.467 176.292 164.467C177.304 164.467 178.099 164.786 178.678 165.424C179.261 166.062 179.553 166.966 179.553 168.138V168.944H174.843C174.907 169.427 175.098 169.815 175.417 170.106C175.741 170.398 176.148 170.544 176.641 170.544C177.402 170.544 177.996 170.268 178.425 169.717L179.396 170.804C179.099 171.223 178.698 171.551 178.192 171.788C177.687 172.021 177.126 172.137 176.511 172.137ZM176.285 166.066C175.893 166.066 175.574 166.199 175.328 166.463C175.087 166.727 174.932 167.105 174.863 167.598H177.611V167.44C177.602 167.003 177.484 166.666 177.256 166.429C177.028 166.187 176.704 166.066 176.285 166.066ZM184.937 169.956C184.937 169.715 184.816 169.525 184.574 169.389C184.337 169.247 183.954 169.122 183.426 169.013C181.667 168.644 180.787 167.896 180.787 166.771C180.787 166.114 181.058 165.567 181.601 165.13C182.147 164.688 182.861 164.467 183.74 164.467C184.679 164.467 185.429 164.688 185.989 165.13C186.554 165.572 186.837 166.146 186.837 166.853H184.861C184.861 166.57 184.77 166.338 184.588 166.155C184.406 165.968 184.121 165.875 183.733 165.875C183.401 165.875 183.143 165.95 182.961 166.101C182.779 166.251 182.688 166.442 182.688 166.675C182.688 166.894 182.79 167.071 182.995 167.208C183.205 167.34 183.556 167.456 184.048 167.557C184.54 167.652 184.955 167.762 185.292 167.885C186.336 168.268 186.857 168.931 186.857 169.874C186.857 170.549 186.568 171.095 185.989 171.515C185.41 171.929 184.663 172.137 183.747 172.137C183.127 172.137 182.576 172.027 182.093 171.809C181.614 171.585 181.238 171.282 180.965 170.899C180.691 170.512 180.555 170.095 180.555 169.648H182.428C182.446 169.999 182.576 170.268 182.817 170.455C183.059 170.642 183.382 170.735 183.788 170.735C184.166 170.735 184.451 170.665 184.643 170.523C184.839 170.378 184.937 170.188 184.937 169.956ZM188.488 171.029C188.488 170.715 188.593 170.46 188.803 170.264C189.017 170.068 189.284 169.97 189.603 169.97C189.926 169.97 190.193 170.068 190.402 170.264C190.617 170.46 190.724 170.715 190.724 171.029C190.724 171.339 190.619 171.592 190.409 171.788C190.2 171.979 189.931 172.075 189.603 172.075C189.279 172.075 189.012 171.979 188.803 171.788C188.593 171.592 188.488 171.339 188.488 171.029Z" fill="#49454F"/>
</g>
<defs>
<clipPath id="clip0_50995_3212">
<path d="M0 28C0 12.536 12.536 0 28 0H262C277.464 0 290 12.536 290 28V194C290 209.464 277.464 222 262 222H28C12.536 222 0 209.464 0 194V28Z" fill="white"/>
</clipPath>
</defs>
</svg>
