<svg width="543" height="543" viewBox="0 0 543 543" fill="none" xmlns="http://www.w3.org/2000/svg">
<path d="M531.152 203.417C581.924 82.5806 460.419 -38.924 339.583 11.8482L328.178 16.6403C291.928 31.8716 251.072 31.8716 214.822 16.6403L203.417 11.8482C82.5806 -38.924 -38.924 82.5806 11.8482 203.417L16.6403 214.822C31.8716 251.072 31.8716 291.928 16.6403 328.178L11.8482 339.583C-38.924 460.419 82.5806 581.924 203.417 531.152L214.822 526.36C251.072 511.128 291.928 511.128 328.178 526.36L339.583 531.152C460.419 581.924 581.924 460.419 531.152 339.583L526.36 328.178C511.128 291.928 511.128 251.072 526.36 214.822L531.152 203.417Z" fill="#FBDEAC"/>
</svg>
